<svg width="24" height="25" viewBox="0 0 24 25" fill="none" xmlns="http://www.w3.org/2000/svg">
<g clip-path="url(#clip0_1223_28866)">
<path d="M9.99972 3.91922C8.43542 4.28186 6.99664 5.05642 5.8326 6.16256C4.66856 7.26869 3.82166 8.66612 3.37975 10.2099C2.93783 11.7537 2.917 13.3876 3.31941 14.9421C3.72182 16.4966 4.53281 17.9152 5.66827 19.0507C6.80372 20.1861 8.22229 20.9971 9.77683 21.3995C11.3314 21.8019 12.9653 21.7811 14.509 21.3392C16.0528 20.8973 17.4502 20.0504 18.5564 18.8863C19.6625 17.7223 20.4371 16.2835 20.7997 14.7192C20.7997 14.454 20.6944 14.1997 20.5068 14.0121C20.3193 13.8246 20.0649 13.7192 19.7997 13.7192H15.9997C15.8179 14.4182 15.4547 15.0568 14.9468 15.5703C14.4389 16.0838 13.8044 16.4541 13.1074 16.6436C12.4105 16.8331 11.6758 16.8351 10.9779 16.6495C10.2799 16.4638 9.6433 16.0971 9.13259 15.5864C8.62188 15.0756 8.25514 14.4391 8.06949 13.7411C7.88384 13.0431 7.88586 12.3085 8.07536 11.6115C8.26486 10.9145 8.6351 10.28 9.14862 9.77213C9.66214 9.26424 10.3007 8.90102 10.9997 8.71922V4.71922C10.9873 4.60075 10.9515 4.48592 10.8943 4.38139C10.8372 4.27686 10.7599 4.18472 10.6669 4.1103C10.5738 4.03589 10.467 3.98068 10.3524 3.94788C10.2379 3.91508 10.118 3.90534 9.99972 3.91922Z" stroke="#BFBFBF" stroke-width="1.5" stroke-linecap="round" stroke-linejoin="round"/>
<path d="M15 4.21777C16.2697 4.66486 17.423 5.39107 18.3748 6.34293C19.3267 7.29479 20.0529 8.44805 20.5 9.71777H16C15.6934 9.35873 15.359 9.02436 15 8.71777V4.21777Z" stroke="#BFBFBF" stroke-width="1.5" stroke-linecap="round" stroke-linejoin="round"/>
</g>
<defs>
<clipPath id="clip0_1223_28866">
<rect width="24" height="24" fill="white" transform="translate(0 0.717773)"/>
</clipPath>
</defs>
</svg>
