<svg width="200" height="200" viewBox="0 0 200 200" fill="none" xmlns="http://www.w3.org/2000/svg">
<g clip-path="url(#clip0_4207_571)">
<path d="M100 200C155.228 200 200 155.228 200 100C200 44.7715 155.228 0 100 0C44.7715 0 0 44.7715 0 100C0 155.228 44.7715 200 100 200Z" fill="#FF9900"/>
<path d="M78.1836 93.5742C78.1836 94.8047 78.3204 95.8008 78.5547 96.5234C78.8282 97.2656 79.1602 98.0664 79.629 98.9258C79.8047 99.1797 79.8633 99.4531 79.8633 99.6875C79.8633 100.02 79.668 100.352 79.2383 100.684L77.1485 102.07C76.8946 102.246 76.6016 102.363 76.2891 102.363C75.9571 102.363 75.625 102.188 75.293 101.895C74.8438 101.406 74.4532 100.898 74.1016 100.332C73.7305 99.6875 73.379 99.043 73.0665 98.3789C70.4688 101.445 67.2071 102.969 63.2813 102.969C60.4883 102.969 58.2618 102.168 56.6407 100.586C55.0196 98.9844 54.1797 96.8555 54.1797 94.1992C54.1797 91.3672 55.1758 89.082 57.2071 87.3438C59.2383 85.6055 61.9336 84.7461 65.3516 84.7461C66.4844 84.7461 67.6563 84.8437 68.8672 85.0195C70.0977 85.1953 71.3672 85.4492 72.6954 85.7617V83.3398C72.6954 80.8203 72.168 79.043 71.1329 78.0273C70.0782 76.9922 68.2813 76.5039 65.7227 76.5039C64.5508 76.5039 63.3594 76.6406 62.129 76.9336C60.8985 77.2266 59.7071 77.5977 58.5352 78.0664C58.1641 78.2422 57.7735 78.3789 57.3633 78.4961C57.1875 78.5547 57.0118 78.5742 56.836 78.5937C56.3672 78.5937 56.1329 78.2617 56.1329 77.5586V75.9375C56.1329 75.4102 56.1915 75 56.3672 74.7656C56.6211 74.4727 56.9336 74.2188 57.3047 74.0625C58.4766 73.457 59.8633 72.9687 61.4844 72.5586C63.1836 72.1289 64.9219 71.9141 66.6797 71.9336C70.6446 71.9336 73.5352 72.832 75.3907 74.6289C77.2266 76.4258 78.1446 79.1406 78.1446 82.8125V93.5938L78.1836 93.5742ZM64.6875 98.6328C65.7813 98.6328 66.9141 98.4375 68.1055 98.0273C69.2969 97.6367 70.3711 96.8945 71.2696 95.8984C71.7969 95.2734 72.2071 94.5703 72.4024 93.7695C72.5977 92.9688 72.7344 92.0117 72.7344 90.8789V89.4922C71.7188 89.2383 70.7032 89.0625 69.668 88.9258C68.6329 88.7891 67.5782 88.7305 66.543 88.7305C64.3165 88.7305 62.6758 89.1602 61.5821 90.0586C60.4883 90.957 59.961 92.2266 59.961 93.8867C59.961 95.4492 60.3516 96.6211 61.1914 97.4023C61.9922 98.2422 63.1446 98.6328 64.6875 98.6328ZM91.3868 102.227C90.7813 102.227 90.3907 102.129 90.1172 101.895C89.8438 101.699 89.6094 101.23 89.4141 100.605L81.6016 74.9023C81.4454 74.4727 81.3477 74.0234 81.3086 73.5742C81.3086 73.0469 81.5821 72.7344 82.1094 72.7344H85.3711C85.9961 72.7344 86.4258 72.832 86.6602 73.0664C86.9336 73.2617 87.129 73.7305 87.3243 74.375L92.9102 96.3867L98.1055 74.375C98.2813 73.7109 98.4766 73.2812 98.7305 73.0664C99.1211 72.8125 99.5899 72.6953 100.059 72.7344H102.734C103.359 72.7344 103.809 72.832 104.063 73.0664C104.316 73.2617 104.57 73.7305 104.688 74.375L109.941 96.6602L115.703 74.375C115.898 73.7109 116.133 73.2812 116.367 73.0664C116.758 72.8125 117.207 72.6953 117.656 72.7344H120.762C121.289 72.7344 121.602 73.0078 121.602 73.5742C121.602 73.75 121.563 73.9062 121.523 74.1016C121.465 74.3945 121.387 74.668 121.289 74.9414L113.281 100.645C113.086 101.309 112.852 101.738 112.578 101.934C112.207 102.168 111.758 102.285 111.309 102.266H108.438C107.813 102.266 107.383 102.168 107.109 101.934C106.856 101.699 106.621 101.27 106.484 100.605L101.328 79.1602L96.211 100.586C96.0352 101.25 95.8399 101.68 95.586 101.914C95.3125 102.148 94.8438 102.246 94.2579 102.246L91.3868 102.227ZM134.121 103.125C132.383 103.125 130.664 102.93 129.004 102.52C127.344 102.129 126.055 101.68 125.176 101.191C124.648 100.898 124.277 100.566 124.141 100.254C124.004 99.9609 123.945 99.6484 123.945 99.3164V97.6172C123.945 96.9141 124.219 96.582 124.707 96.582C124.902 96.582 125.098 96.6211 125.313 96.6797C125.508 96.7383 125.82 96.875 126.152 97.0117C127.285 97.5195 128.516 97.9102 129.805 98.1836C131.133 98.457 132.422 98.5742 133.77 98.5742C135.859 98.5742 137.5 98.2031 138.633 97.4805C139.727 96.8164 140.391 95.6055 140.371 94.3164C140.391 93.457 140.078 92.6172 139.473 91.9922C138.867 91.3672 137.734 90.8008 136.113 90.2539L131.289 88.75C128.867 87.9883 127.07 86.8555 125.977 85.3711C124.902 83.9844 124.316 82.2852 124.316 80.5469C124.316 79.1602 124.629 77.9297 125.215 76.8555C125.82 75.8008 126.602 74.8633 127.617 74.1211C128.613 73.3594 129.746 72.793 131.074 72.3828C132.402 71.9922 133.809 71.8164 135.273 71.8164C135.996 71.8164 136.777 71.8555 137.5 71.9531C138.262 72.0508 138.965 72.1875 139.668 72.3242C140.332 72.5 140.977 72.6562 141.563 72.8516C142.168 73.0469 142.637 73.2422 142.969 73.457C143.359 73.6523 143.711 73.9453 143.965 74.2969C144.18 74.6289 144.277 75 144.258 75.3906V76.9531C144.258 77.6562 143.984 78.0273 143.496 78.0273C143.047 77.9687 142.617 77.832 142.227 77.6367C140.215 76.7578 138.047 76.3086 135.84 76.3477C133.945 76.3477 132.441 76.6406 131.406 77.2852C130.371 77.9102 129.844 78.8867 129.844 80.2344C129.844 81.1719 130.176 81.9727 130.84 82.5977C131.504 83.2227 132.734 83.8672 134.492 84.4336L139.219 85.918C141.602 86.6797 143.34 87.7539 144.375 89.1211C145.41 90.4883 145.898 92.0508 145.898 93.7695C145.898 95.1953 145.606 96.5039 145.039 97.6367C144.434 98.7695 143.633 99.7656 142.617 100.566C141.582 101.406 140.352 101.992 138.926 102.422C137.383 102.891 135.82 103.125 134.121 103.125ZM140.41 119.277C129.473 127.363 113.574 131.641 99.9024 131.641C80.7422 131.641 63.4766 124.551 50.4493 112.773C49.4141 111.836 50.3516 110.586 51.5821 111.309C65.6836 119.492 83.086 124.453 101.074 124.453C113.223 124.453 126.543 121.934 138.828 116.738C140.645 115.918 142.207 117.949 140.41 119.277ZM144.961 114.102C143.555 112.305 135.703 113.242 132.148 113.672C131.094 113.809 130.918 112.871 131.895 112.168C138.145 107.773 148.418 109.043 149.629 110.508C150.82 112.012 149.297 122.285 143.438 127.207C142.539 127.969 141.68 127.578 142.07 126.582C143.398 123.281 146.367 115.859 144.961 114.102Z" fill="white"/>
</g>
<defs>
<clipPath id="clip0_4207_571">
<rect width="200" height="200" fill="white"/>
</clipPath>
</defs>
</svg>
