<svg width="100" height="100" viewBox="0 0 100 100" fill="none" xmlns="http://www.w3.org/2000/svg">
<g clip-path="url(#clip0_865_4475)">
<path d="M24.7124 28.9004L30.0249 46.6046M53.3874 69.9754L71.0999 75.2879" stroke="#2461FF" stroke-width="2.5" stroke-linecap="round" stroke-linejoin="round"/>
<path d="M48.6792 51.321L72.675 27.3252" stroke="#2461FF" stroke-width="2.5" stroke-linecap="round" stroke-linejoin="round"/>
<path d="M22.9165 29.167C26.3683 29.167 29.1665 26.3688 29.1665 22.917C29.1665 19.4652 26.3683 16.667 22.9165 16.667C19.4647 16.667 16.6665 19.4652 16.6665 22.917C16.6665 26.3688 19.4647 29.167 22.9165 29.167Z" stroke="#2461FF" stroke-width="2.5" stroke-linecap="round" stroke-linejoin="round"/>
<path d="M77.0835 29.167C80.5353 29.167 83.3335 26.3688 83.3335 22.917C83.3335 19.4652 80.5353 16.667 77.0835 16.667C73.6317 16.667 70.8335 19.4652 70.8335 22.917C70.8335 26.3688 73.6317 29.167 77.0835 29.167Z" stroke="#2461FF" stroke-width="2.5" stroke-linecap="round" stroke-linejoin="round"/>
<path d="M77.0835 83.333C80.5353 83.333 83.3335 80.5348 83.3335 77.083C83.3335 73.6312 80.5353 70.833 77.0835 70.833C73.6317 70.833 70.8335 73.6312 70.8335 77.083C70.8335 80.5348 73.6317 83.333 77.0835 83.333Z" stroke="#2461FF" stroke-width="2.5" stroke-linecap="round" stroke-linejoin="round"/>
<path d="M35.4165 83.333C45.7718 83.333 54.1665 74.9383 54.1665 64.583C54.1665 54.2277 45.7718 45.833 35.4165 45.833C25.0612 45.833 16.6665 54.2277 16.6665 64.583C16.6665 74.9383 25.0612 83.333 35.4165 83.333Z" stroke="#2461FF" stroke-width="2.5" stroke-linecap="round" stroke-linejoin="round"/>
</g>
<defs>
<clipPath id="clip0_865_4475">
<rect width="100" height="100" fill="white"/>
</clipPath>
</defs>
</svg>
