<svg width="82" height="79" viewBox="0 0 82 79" fill="none" xmlns="http://www.w3.org/2000/svg">
<path d="M79.5228 40.9548L62.5 32.4432V12.5001C62.5001 11.9197 62.3385 11.3508 62.0335 10.8571C61.7284 10.3634 61.2919 9.96435 60.7728 9.70476L42.0228 0.329755C41.5888 0.112895 41.1102 0 40.625 0C40.1398 0 39.6612 0.112895 39.2272 0.329755L20.4772 9.70476C19.9581 9.96435 19.5216 10.3634 19.2165 10.8571C18.9115 11.3508 18.7499 11.9197 18.75 12.5001V32.4432L1.72719 40.9548C1.20812 41.2143 0.771602 41.6134 0.466541 42.1071C0.16148 42.6008 -6.73083e-05 43.1697 2.10374e-08 43.7501V65.6251C-6.73083e-05 66.2054 0.16148 66.7743 0.466541 67.2681C0.771602 67.7618 1.20812 68.1608 1.72719 68.4204L20.4772 77.7954C20.9113 78.0122 21.3898 78.1251 21.875 78.1251C22.3602 78.1251 22.8387 78.0122 23.2728 77.7954L40.625 69.1194L57.9772 77.7954C58.4113 78.0122 58.8898 78.1251 59.375 78.1251C59.8602 78.1251 60.3387 78.0122 60.7728 77.7954L79.5228 68.4204C80.0419 68.1608 80.4784 67.7618 80.7835 67.2681C81.0885 66.7743 81.2501 66.2054 81.25 65.6251V43.7501C81.2501 43.1697 81.0885 42.6008 80.7835 42.1071C80.4784 41.6134 80.0419 41.2143 79.5228 40.9548ZM56.25 32.4432L43.75 38.6932V23.8069L56.25 17.5569V32.4432ZM40.625 6.61944L52.3866 12.5001L40.625 18.3807L28.8634 12.5001L40.625 6.61944ZM25 17.5569L37.5 23.8069V38.6932L25 32.4432V17.5569ZM18.75 69.9432L6.25 63.6932V48.8069L18.75 55.0569V69.9432ZM21.875 49.6307L10.1134 43.7501L21.875 37.8694L33.6366 43.7501L21.875 49.6307ZM25 55.0569L37.5 48.8069V63.6932L25 69.9432V55.0569ZM56.25 69.9432L43.75 63.6932V48.8069L56.25 55.0569V69.9432ZM59.375 49.6307L47.6134 43.7501L59.375 37.8694L71.1366 43.7501L59.375 49.6307ZM75 63.6932L62.5 69.9432V55.0569L75 48.8069V63.6932Z" fill="black"/>
</svg>
