<svg width="100" height="100" viewBox="0 0 100 100" fill="none" xmlns="http://www.w3.org/2000/svg">
<g clip-path="url(#clip0_865_4536)">
<path d="M12.5 87.5H29.1667L83.3333 33.3333C85.5435 31.1232 86.7851 28.1256 86.7851 25C86.7851 21.8744 85.5435 18.8768 83.3333 16.6666C81.1232 14.4565 78.1256 13.2148 75 13.2148C71.8744 13.2148 68.8768 14.4565 66.6667 16.6666L12.5 70.8333V87.5Z" stroke="#2461FF" stroke-width="2.5" stroke-linecap="round" stroke-linejoin="round"/>
<path d="M60.4166 22.917L77.0833 39.5837" stroke="#2461FF" stroke-width="2.5" stroke-linecap="round" stroke-linejoin="round"/>
<path d="M50 33.3333L29.1667 12.5L12.5 29.1667L33.3333 50" stroke="#2461FF" stroke-width="2.5" stroke-linecap="round" stroke-linejoin="round"/>
<path d="M29.1666 33.333L22.9166 39.583" stroke="#2461FF" stroke-width="2.5" stroke-linecap="round" stroke-linejoin="round"/>
<path d="M66.6667 50L87.5 70.8333L70.8333 87.5L50 66.6667" stroke="#2461FF" stroke-width="2.5" stroke-linecap="round" stroke-linejoin="round"/>
<path d="M66.6666 70.833L60.4166 77.083" stroke="#2461FF" stroke-width="2.5" stroke-linecap="round" stroke-linejoin="round"/>
</g>
<defs>
<clipPath id="clip0_865_4536">
<rect width="100" height="100" fill="white"/>
</clipPath>
</defs>
</svg>
