<svg width="200" height="100" viewBox="0 0 200 100" fill="none" xmlns="http://www.w3.org/2000/svg">
<path d="M19.8687 68.2427L20.1878 67.7958L35.2824 39.1544L35.3143 38.8512L28.6604 26.3525C28.1027 25.3055 26.5331 25.5701 26.3503 26.7422L19.8687 68.2427Z" fill="#FFC24A"/>
<path d="M20.0571 67.9015L20.2984 67.431L35.2333 39.0896L28.5977 26.5401C28.046 25.504 26.6453 25.7681 26.4629 26.928L20.0571 67.9015Z" fill="#FFA712"/>
<path d="M20.0571 67.9015L20.2984 67.431L35.2333 39.0896L28.5977 26.5401C28.046 25.504 26.6453 25.7681 26.4629 26.928L20.0571 67.9015Z" fill="black"/>
<path d="M40.1651 48.305L45.1195 43.2311L40.1638 33.7703C39.6932 32.8747 38.3797 32.8722 37.9143 33.7703L35.2664 38.8217V39.2516L40.1651 48.305Z" fill="#F4BD62"/>
<path d="M40.0766 48.0944L44.8932 43.1615L40.0766 33.9898C39.6193 33.1178 38.5081 33.0279 38.0556 33.8996L35.3939 39.0261L35.3142 39.2883L40.0766 48.0944Z" fill="#FFA50E"/>
<path d="M40.0766 48.0944L44.8932 43.1615L40.0766 33.9898C39.6193 33.1178 38.5081 33.0279 38.0556 33.8996L35.3939 39.0261L35.3142 39.2883L40.0766 48.0944Z" fill="black"/>
<path d="M35.2803 38.793L19.8687 68.2432L20.0133 68.0977L20.5389 67.8842L39.854 48.6409L40.0985 47.9749L35.2803 38.793Z" fill="#F6820C"/>
<path d="M40.7837 77.9472L58.2643 68.1981L53.2738 37.4536C53.1175 36.4917 51.9376 36.1114 51.2492 36.8011L19.8687 68.2426L37.249 77.9466C37.7892 78.2482 38.3976 78.4066 39.0163 78.4067C39.635 78.4068 40.2435 78.2487 40.7839 77.9474" fill="#FDE068"/>
<path d="M58.1079 68.1171L53.154 37.6071C52.9991 36.6525 52.0174 36.2575 51.3343 36.942L20.0642 68.1832L37.2536 77.7898C38.3435 78.3984 39.671 78.3987 40.7616 77.7907L58.1079 68.1171Z" fill="#FCCA3F"/>
<path d="M40.7837 77.6608C39.6863 78.2736 38.3472 78.2733 37.2488 77.6599L20.0085 68.0955L19.8687 68.2433L37.249 77.9473C38.3473 78.5607 39.685 78.5607 40.7839 77.9481L58.2645 68.1989L58.2216 67.9355L40.7837 77.6608Z" fill="#EEAB37"/>
<path d="M71.4999 63.7281H68.5249V40.5748H82.0249V43.4198H71.4999V51.0198H81.0082V53.8031H71.4999V63.7281ZM87.2549 43.9048C86.8449 44.3148 86.3499 44.5214 85.7682 44.5214C85.4914 44.5262 85.2165 44.4739 84.9607 44.3678C84.7049 44.2617 84.4738 44.1041 84.2816 43.9048C84.083 43.712 83.9259 43.4807 83.8199 43.225C83.7138 42.9694 83.6611 42.6948 83.6649 42.4181C83.6601 42.1412 83.7124 41.8663 83.8185 41.6106C83.9246 41.3548 84.0822 41.1236 84.2816 40.9314C84.4744 40.7329 84.7057 40.5758 84.9613 40.4697C85.2169 40.3637 85.4915 40.311 85.7682 40.3148C86.0451 40.31 86.32 40.3623 86.5758 40.4683C86.8315 40.5744 87.0627 40.7321 87.2549 40.9314C87.4535 41.1242 87.6106 41.3555 87.7166 41.6111C87.8226 41.8668 87.8754 42.1414 87.8716 42.4181C87.8763 42.695 87.8241 42.9698 87.718 43.2256C87.6119 43.4814 87.4542 43.7126 87.2549 43.9048ZM87.2549 63.7281H84.2799V47.8831H87.2549V63.7281ZM93.6766 63.7281H90.6999V47.8831H93.5449V50.4698H93.6732C93.9732 49.6081 94.5949 48.8964 95.5332 48.3364C96.4716 47.7764 97.3666 47.4948 98.2666 47.4948C99.1666 47.4948 99.8949 47.6248 100.5 47.8831L99.3666 50.6664C98.9782 50.4998 98.4499 50.4398 97.7832 50.4398C96.7049 50.4398 95.7499 50.8648 94.9216 51.7164C94.0932 52.5681 93.6766 53.6831 93.6766 55.0631V63.7281ZM108.323 64.2281C105.93 64.2281 103.985 63.4314 102.487 61.8348C100.988 60.2381 100.237 58.2248 100.237 55.7881C100.237 53.4814 100.963 51.4981 102.403 49.8381C103.843 48.1781 105.737 47.3481 107.982 47.3481C110.315 47.3481 112.212 48.1148 113.625 49.6448C115.038 51.1748 115.742 53.2231 115.742 55.7898L115.708 56.3398H103.208C103.295 57.9348 103.828 59.1964 104.808 60.1231C105.263 60.5698 105.801 60.9225 106.392 61.161C106.983 61.3995 107.616 61.5192 108.253 61.5131C110.387 61.5131 111.832 60.6081 112.587 58.7964L115.253 59.8964C114.753 61.1248 113.883 62.1548 112.698 62.9848C111.513 63.8148 110.057 64.2298 108.332 64.2298L108.323 64.2281ZM112.59 53.8948C112.523 52.9898 112.11 52.1281 111.345 51.3081C110.58 50.4881 109.442 50.0798 107.933 50.0798C106.833 50.0798 105.88 50.4248 105.072 51.1131C104.263 51.8014 103.708 52.7298 103.405 53.8964H112.572L112.59 53.8948ZM126.528 64.2281C125.32 64.2281 124.237 63.9698 123.278 63.4514C122.32 62.9331 121.602 62.2881 121.112 61.5114H121V63.7114H118.155V40.5748H121.13V47.8831L121 50.0831H121.13C121.605 49.3064 122.322 48.6598 123.297 48.1431C124.272 47.6264 125.34 47.3664 126.547 47.3664C128.597 47.3664 130.38 48.1748 131.85 49.7914C133.32 51.4081 134.083 53.4131 134.083 55.7914C134.083 58.1698 133.34 60.1914 131.85 61.7914C130.36 63.3914 128.595 64.2164 126.547 64.2164L126.528 64.2281ZM126.028 61.5114C127.408 61.5114 128.595 60.9881 129.585 59.9448C130.575 58.9014 131.072 57.5148 131.072 55.7898C131.072 54.0648 130.575 52.6798 129.585 51.6348C128.595 50.5898 127.407 50.0681 126.028 50.0681C125.356 50.0549 124.689 50.1865 124.073 50.454C123.456 50.7214 122.904 51.1185 122.455 51.6181C121.475 52.6681 120.983 54.0431 120.983 55.7898C120.983 57.5364 121.473 58.9264 122.455 59.9614C123.437 60.9964 124.627 61.5148 126.028 61.5148V61.5114ZM141.883 64.2281C140.217 64.2281 138.795 63.7281 137.663 62.7731C136.532 61.8181 135.963 60.5198 135.963 58.9398C135.963 57.2148 136.63 55.8631 137.968 54.8814C139.307 53.8998 140.955 53.4098 142.918 53.4098C144.665 53.4098 146.098 53.7331 147.218 54.3798V53.9264C147.218 52.7598 146.818 51.8298 146.022 51.1298C145.225 50.4298 144.243 50.0798 143.078 50.0798C142.215 50.0798 141.433 50.2848 140.733 50.6964C140.067 51.0658 139.557 51.6628 139.295 52.3781L136.578 51.2148C136.945 50.2648 137.667 49.3881 138.745 48.5814C139.823 47.7748 141.245 47.3681 143.012 47.3681C145.038 47.3681 146.72 47.9614 148.057 49.1464C149.393 50.3314 150.062 52.0031 150.062 54.1581V63.7298H147.233V61.5298H147.103C145.917 63.3398 144.182 64.2464 141.897 64.2464L141.883 64.2281ZM142.383 61.5114C143.612 61.5114 144.728 61.0531 145.73 60.1364C146.732 59.2198 147.233 58.1364 147.233 56.8864C146.393 56.1964 145.133 55.8531 143.45 55.8531C142.005 55.8531 140.917 56.1664 140.183 56.7914C139.45 57.4164 139.083 58.1498 139.083 58.9914C139.083 59.7681 139.417 60.3814 140.087 60.8348C140.757 61.2881 141.52 61.5148 142.383 61.5148V61.5114ZM158.717 64.2281C156.95 64.2281 155.488 63.7948 154.333 62.9348C153.208 62.1087 152.33 60.9906 151.795 59.7014L154.462 58.6014C155.302 60.6014 156.737 61.5764 158.762 61.5764C159.688 61.5764 160.448 61.3714 161.042 60.9598C161.635 60.5481 161.932 60.0098 161.932 59.3431C161.932 58.3098 161.21 57.6098 159.765 57.2431L156.565 56.4664C155.552 56.2081 154.592 55.7164 153.687 54.9948C152.782 54.2731 152.333 53.3331 152.333 52.0864C152.333 50.6864 152.953 49.5481 154.193 48.6748C155.433 47.8014 156.905 47.3648 158.61 47.3648C160.01 47.3648 161.277 47.6981 162.36 48.3181C163.443 48.9381 164.247 49.8648 164.722 51.0514L162.135 52.1181C161.552 50.7181 160.345 50.0181 158.513 50.0181C157.63 50.0181 156.885 50.1848 156.28 50.5681C155.675 50.9514 155.375 51.4298 155.375 52.0548C155.375 52.9598 156.075 53.5748 157.475 53.8981L160.612 54.6414C162.098 54.9864 163.198 55.5798 163.912 56.4198C164.625 57.2598 164.978 58.2098 164.978 59.2648C164.978 60.6881 164.395 61.8731 163.232 62.8214C162.068 63.7698 160.568 64.2448 158.737 64.2448L158.717 64.2281ZM174.562 64.2281C172.168 64.2281 170.222 63.4314 168.725 61.8348C167.228 60.2381 166.475 58.2248 166.475 55.7881C166.475 53.4814 167.202 51.4981 168.642 49.8381C170.082 48.1781 171.975 47.3481 174.22 47.3481C176.553 47.3481 178.45 48.1148 179.863 49.6448C181.277 51.1748 181.98 53.2231 181.98 55.7898V56.3398H169.48C169.563 57.9348 170.1 59.1964 171.08 60.1231C171.534 60.5696 172.072 60.9222 172.663 61.1607C173.254 61.3992 173.886 61.5189 174.523 61.5131C176.657 61.5131 178.102 60.6081 178.857 58.7964L181.523 59.8964C181.023 61.1248 180.153 62.1548 178.968 62.9848C177.783 63.8148 176.327 64.2298 174.602 64.2298L174.562 64.2281ZM178.828 53.8948C178.762 52.9898 178.348 52.1281 177.583 51.3081C176.818 50.4881 175.68 50.0798 174.172 50.0798C173.123 50.0613 172.104 50.4298 171.31 51.1148C170.502 51.8048 169.947 52.7314 169.643 53.8981H178.81L178.828 53.8948Z" fill="#63666A"/>
</svg>
