<svg width="101" height="101" viewBox="0 0 101 101" fill="none" xmlns="http://www.w3.org/2000/svg">
<path d="M35.9109 19.4317C31.0756 19.6197 26.7092 21.3447 24.3734 23.6811C23.2886 24.7661 21.5297 24.7661 20.445 23.6814C19.36 22.5969 19.3598 20.838 20.4445 19.753C24.0484 16.1486 29.9134 14.1053 35.6948 13.8803C41.5139 13.6539 47.867 15.2472 52.3162 19.6972C53.4006 20.7819 53.4006 22.5408 52.3156 23.6255C51.2309 24.7103 49.472 24.71 48.3873 23.6253C45.3567 20.5939 40.7081 19.245 35.9109 19.4317Z" fill="#333333"/>
<path fill-rule="evenodd" clip-rule="evenodd" d="M64.2098 59.9003C69.5209 53.6131 72.7223 45.4859 72.7223 36.6111C72.7223 16.6675 56.5548 0.5 36.6111 0.5C16.6675 0.5 0.5 16.6675 0.5 36.6111C0.5 56.5548 16.6675 72.7223 36.6111 72.7223C45.4859 72.7223 53.6131 69.5209 59.9003 64.2098L58.8334 70.345L79.7048 91.2165L91.2165 79.7048L70.345 58.8334L64.2098 59.9003ZM36.6111 64.3889C51.9523 64.3889 64.3889 51.9523 64.3889 36.6111C64.3889 21.27 51.9523 8.83334 36.6111 8.83334C21.27 8.83334 8.83334 21.27 8.83334 36.6111C8.83334 51.9523 21.27 64.3889 36.6111 64.3889Z" fill="#333333"/>
<path d="M83.6333 95.1445L95.145 83.6328L98.9108 87.3989C101.03 89.5181 101.03 92.9539 98.9108 95.0731L95.0736 98.9103C92.9544 101.029 89.5186 101.029 87.3994 98.9103L83.6333 95.1445Z" fill="#333333"/>
</svg>
