<svg width="24" height="25" viewBox="0 0 24 25" fill="none" xmlns="http://www.w3.org/2000/svg">
<g clip-path="url(#clip0_1223_28875)">
<path d="M3 12.7178H4M12 3.71777V4.71777M20 12.7178H21M5.6 6.31777L6.3 7.01777M18.4 6.31777L17.7 7.01777" stroke="#BFBFBF" stroke-width="1.5" stroke-linecap="round" stroke-linejoin="round"/>
<path d="M9 16.7178C8.16047 16.0881 7.54033 15.2103 7.22743 14.2086C6.91453 13.2069 6.92473 12.1322 7.25658 11.1366C7.58844 10.1411 8.22512 9.27516 9.07645 8.66156C9.92778 8.04796 10.9506 7.71777 12 7.71777C13.0494 7.71777 14.0722 8.04796 14.9236 8.66156C15.7749 9.27516 16.4116 10.1411 16.7434 11.1366C17.0753 12.1322 17.0855 13.2069 16.7726 14.2086C16.4597 15.2103 15.8395 16.0881 15 16.7178C14.6096 17.1043 14.3156 17.5772 14.1419 18.0984C13.9681 18.6196 13.9195 19.1743 14 19.7178C14 20.2482 13.7893 20.7569 13.4142 21.132C13.0391 21.5071 12.5304 21.7178 12 21.7178C11.4696 21.7178 10.9609 21.5071 10.5858 21.132C10.2107 20.7569 10 20.2482 10 19.7178C10.0805 19.1743 10.0319 18.6196 9.85813 18.0984C9.6844 17.5772 9.39043 17.1043 9 16.7178" stroke="#BFBFBF" stroke-width="1.5" stroke-linecap="round" stroke-linejoin="round"/>
<path d="M9.7002 17.7178H14.3002" stroke="#BFBFBF" stroke-width="1.5" stroke-linecap="round" stroke-linejoin="round"/>
</g>
<defs>
<clipPath id="clip0_1223_28875">
<rect width="24" height="24" fill="white" transform="translate(0 0.717773)"/>
</clipPath>
</defs>
</svg>
