<svg width="151" height="48" viewBox="0 0 151 48" fill="none" xmlns="http://www.w3.org/2000/svg">
<path d="M17.296 7.67861L7.67339 17.3013C7.61428 17.3609 7.57408 17.4367 7.55785 17.5192C7.54162 17.6016 7.55006 17.687 7.58213 17.7646C7.6142 17.8422 7.66847 17.9087 7.73813 17.9556C7.8078 18.0026 7.88977 18.0279 7.97377 18.0285H17.5911C17.7041 18.0278 17.8123 17.9826 17.8922 17.9027C17.9721 17.8228 18.0173 17.7146 18.018 17.6016V7.97899C18.0164 7.89605 17.9908 7.81536 17.9441 7.74678C17.8974 7.67821 17.8318 7.62471 17.7552 7.59285C17.6786 7.56098 17.5944 7.55212 17.5128 7.56736C17.4313 7.58259 17.3559 7.62125 17.296 7.67861Z" fill="#2461FF"/>
<path d="M17.296 18.7503L7.67339 28.3677C7.61428 28.4274 7.57408 28.5032 7.55785 28.5856C7.54162 28.668 7.55006 28.7534 7.58213 28.831C7.6142 28.9087 7.66847 28.9751 7.73813 29.0221C7.8078 29.069 7.88977 29.0944 7.97377 29.0949H17.5911C17.6472 29.0949 17.7027 29.0839 17.7545 29.0624C17.8063 29.041 17.8533 29.0095 17.893 28.9699C17.9326 28.9303 17.964 28.8832 17.9855 28.8314C18.0069 28.7796 18.018 28.7241 18.018 28.6681V19.0507C18.0164 18.9678 17.9908 18.8871 17.9441 18.8185C17.8974 18.7499 17.8318 18.6964 17.7552 18.6646C17.6786 18.6327 17.5944 18.6238 17.5128 18.6391C17.4313 18.6543 17.3559 18.693 17.296 18.7503Z" fill="#2461FF"/>
<path d="M17.296 29.8223L7.67339 39.4344C7.61428 39.4941 7.57408 39.5699 7.55785 39.6523C7.54162 39.7347 7.55006 39.8201 7.58213 39.8977C7.6142 39.9754 7.66847 40.0418 7.73813 40.0888C7.8078 40.1357 7.88977 40.161 7.97377 40.1616H17.5911C17.7041 40.1609 17.8123 40.1157 17.8922 40.0358C17.9721 39.9559 18.0173 39.8478 18.018 39.7348V30.1227C18.0164 30.0397 17.9908 29.959 17.9441 29.8905C17.8974 29.8219 17.8318 29.7684 17.7552 29.7365C17.6786 29.7047 17.5944 29.6958 17.5128 29.711C17.4313 29.7263 17.3559 29.7649 17.296 29.8223Z" fill="#2461FF"/>
<path d="M28.3627 7.67854L18.7454 17.3012C18.6862 17.3609 18.646 17.4367 18.6298 17.5191C18.6136 17.6015 18.622 17.6869 18.6541 17.7645C18.6862 17.8422 18.7404 17.9086 18.8101 17.9556C18.8798 18.0025 18.9617 18.0278 19.0457 18.0284H28.6631C28.7192 18.0284 28.7747 18.0174 28.8264 17.9959C28.8782 17.9745 28.9253 17.943 28.9649 17.9034C29.0046 17.8637 29.036 17.8167 29.0575 17.7649C29.0789 17.7131 29.09 17.6576 29.09 17.6016V7.97892C29.0894 7.89491 29.064 7.81295 29.0171 7.74328C28.9702 7.67362 28.9037 7.61935 28.8261 7.58728C28.7484 7.55521 28.663 7.54676 28.5806 7.563C28.4982 7.57923 28.4224 7.61942 28.3627 7.67854Z" fill="#2461FF"/>
<path d="M28.3627 18.7505L18.7454 28.3679C18.6862 28.4276 18.646 28.5034 18.6298 28.5858C18.6136 28.6682 18.622 28.7536 18.6541 28.8312C18.6862 28.9089 18.7404 28.9753 18.8101 29.0222C18.8798 29.0692 18.9617 29.0945 19.0457 29.0951H28.6631C28.7193 29.0955 28.7749 29.0847 28.8269 29.0633C28.8788 29.042 28.926 29.0106 28.9657 28.9709C29.0054 28.9312 29.0368 28.884 29.0582 28.832C29.0795 28.7801 29.0903 28.7244 29.09 28.6682V19.0509C29.0894 18.9669 29.064 18.8849 29.0171 18.8152C28.9702 18.7456 28.9037 18.6913 28.8261 18.6592C28.7484 18.6272 28.663 18.6187 28.5806 18.635C28.4982 18.6512 28.4224 18.6914 28.3627 18.7505Z" fill="#2461FF"/>
<path d="M28.3627 29.8222L18.7454 39.4343C18.6862 39.494 18.646 39.5698 18.6298 39.6522C18.6136 39.7346 18.622 39.82 18.6541 39.8977C18.6862 39.9753 18.7404 40.0417 18.8101 40.0887C18.8798 40.1356 18.9617 40.161 19.0457 40.1615H28.6631C28.7192 40.1615 28.7747 40.1505 28.8264 40.129C28.8782 40.1076 28.9253 40.0762 28.9649 40.0365C29.0046 39.9969 29.036 39.9498 29.0575 39.898C29.0789 39.8462 29.09 39.7907 29.09 39.7347V30.1226C29.0894 30.0386 29.064 29.9566 29.0171 29.887C28.9702 29.8173 28.9037 29.763 28.8261 29.731C28.7484 29.6989 28.663 29.6904 28.5806 29.7067C28.4982 29.7229 28.4224 29.7631 28.3627 29.8222Z" fill="#2461FF"/>
<path d="M39.4292 7.6787L29.8171 17.3013C29.7579 17.361 29.7178 17.4368 29.7015 17.5192C29.6853 17.6017 29.6937 17.687 29.7258 17.7647C29.7579 17.8423 29.8121 17.9088 29.8818 17.9557C29.9515 18.0027 30.0334 18.028 30.1174 18.0286H39.7348C39.848 18.0286 39.9566 17.9836 40.0366 17.9035C40.1167 17.8235 40.1617 17.7149 40.1617 17.6017V7.97908C40.1621 7.89399 40.1372 7.81069 40.09 7.73989C40.0428 7.66909 39.9755 7.61401 39.8968 7.58172C39.818 7.54944 39.7314 7.54142 39.6481 7.5587C39.5648 7.57598 39.4886 7.61777 39.4292 7.6787Z" fill="#2461FF"/>
<path d="M39.4292 18.7504L29.8171 28.3678C29.7579 28.4275 29.7178 28.5033 29.7015 28.5857C29.6853 28.6681 29.6937 28.7535 29.7258 28.8311C29.7579 28.9088 29.8121 28.9752 29.8818 29.0222C29.9515 29.0691 30.0334 29.0944 30.1174 29.095H39.7348C39.791 29.0954 39.8466 29.0846 39.8986 29.0632C39.9505 29.0419 39.9977 29.0105 40.0374 28.9708C40.0771 28.9311 40.1085 28.8839 40.1299 28.8319C40.1512 28.78 40.162 28.7243 40.1617 28.6682V19.0508C40.1621 18.9657 40.1372 18.8824 40.09 18.8116C40.0428 18.7408 39.9755 18.6857 39.8968 18.6534C39.818 18.6211 39.7314 18.6131 39.6481 18.6304C39.5648 18.6477 39.4886 18.6895 39.4292 18.7504Z" fill="#2461FF"/>
<path d="M50.2111 12.6163C52.5404 12.6163 54.3216 13.0423 55.5547 13.8942C56.7878 14.7462 57.4132 16.0794 57.4307 17.894C57.4525 18.736 57.2775 19.5715 56.9196 20.3339C56.5954 21.0011 56.101 21.571 55.4862 21.986C54.7778 22.4336 53.9939 22.7488 53.1727 22.9161C52.1458 23.1281 51.0989 23.2288 50.0504 23.2165H48.5933V28.8947H45.6791V13.0116C46.4168 12.8483 47.1668 12.7469 47.9214 12.7085C48.7593 12.6488 49.5225 12.6181 50.2111 12.6163ZM50.4193 15.1511C49.6815 15.1511 49.0702 15.1722 48.5933 15.2196V20.7054H50.003C51.4082 20.7054 52.4877 20.5122 53.2412 20.1258C53.9948 19.7393 54.3734 18.9875 54.3769 17.8703C54.3913 17.4127 54.2879 16.959 54.0765 16.5529C53.8791 16.2045 53.5903 15.9166 53.2412 15.7202C52.8462 15.5061 52.4161 15.3642 51.9712 15.3013C51.4598 15.2021 50.9402 15.1519 50.4193 15.1511Z" fill="black"/>
<path d="M62.8981 26.9134C63.5563 26.9305 64.2146 26.8837 64.8638 26.7738V23.6593C64.6447 23.5986 64.4221 23.552 64.1971 23.5197C63.8754 23.471 63.5502 23.4481 63.2248 23.4511C62.9074 23.4509 62.5904 23.4738 62.2763 23.5197C61.9796 23.5657 61.6912 23.6544 61.4199 23.7831C61.1775 23.9039 60.9705 24.0854 60.8192 24.3101C60.6562 24.5583 60.5751 24.8513 60.5873 25.148C60.5873 25.8155 60.7955 26.2801 61.2118 26.5419C61.7309 26.8134 62.313 26.9416 62.8981 26.9134ZM62.6662 16.4291C63.4594 16.4076 64.2503 16.5244 65.0034 16.7743C65.5787 16.9694 66.0959 17.3055 66.5079 17.7519C66.9021 18.187 67.1803 18.7144 67.3168 19.2854C67.4951 19.9208 67.5838 20.5779 67.5803 21.2378V28.6155C67.1482 28.7104 66.4921 28.8193 65.6121 28.9423C64.6398 29.0895 63.6574 29.1591 62.6742 29.1504C62.0053 29.1567 61.3379 29.0869 60.6848 28.9423C60.1287 28.8226 59.602 28.5933 59.1355 28.2677C58.7098 27.9479 58.3673 27.5304 58.1369 27.0504C57.8871 26.4685 57.7684 25.8389 57.7891 25.206C57.7697 24.5939 57.9047 23.9868 58.1817 23.4406C58.4518 22.9676 58.8335 22.5677 59.2936 22.276C59.7776 21.9576 60.3191 21.7365 60.8877 21.6252C61.5183 21.4846 62.1625 21.4148 62.8085 21.417C63.1338 21.4186 63.4586 21.4415 63.7808 21.4855C64.1466 21.5221 64.5094 21.5846 64.8664 21.6726V21.2168C64.8683 20.904 64.8303 20.5923 64.7531 20.2893C64.6793 20.0026 64.5364 19.7385 64.3368 19.5199C64.1336 19.2792 63.8698 19.0973 63.5727 18.9929C63.1943 18.8578 62.7938 18.7953 62.3922 18.8085C61.7956 18.8035 61.1996 18.8502 60.611 18.9481C60.1632 19.0171 59.7223 19.1255 59.2936 19.2722L58.9458 16.9957C59.4525 16.8336 59.9703 16.7086 60.4951 16.6215C61.2116 16.4923 61.9382 16.4279 62.6662 16.4291Z" fill="black"/>
<path d="M70.073 17.1275C70.7665 16.9392 71.4703 16.7914 72.1809 16.6848C73.1302 16.5383 74.0897 16.4678 75.0503 16.474C75.8946 16.4487 76.7355 16.5911 77.5245 16.8929C78.1458 17.1215 78.6927 17.5161 79.1054 18.0339C79.522 18.5461 79.8077 19.152 79.938 19.7992C80.1181 20.5374 80.2066 21.2949 80.2015 22.0547V28.8949H77.3848V22.4974C77.393 21.9434 77.3462 21.39 77.2452 20.8453C77.1932 20.4469 77.0508 20.0656 76.8288 19.7307C76.6452 19.4371 76.3661 19.2156 76.0384 19.1036C75.6562 18.9528 75.2475 18.8811 74.8369 18.8928C74.4651 18.8939 74.0938 18.9177 73.7249 18.964C73.3402 19.0088 73.0557 19.0483 72.8712 19.0799V28.8949H70.073V17.1275Z" fill="black"/>
<path d="M93.6212 22.7975C93.6324 23.6931 93.4916 24.584 93.2049 25.4324C92.9525 26.1792 92.5509 26.8667 92.0244 27.4534C91.5114 28.016 90.882 28.4602 90.18 28.755C88.6684 29.3768 86.9725 29.3768 85.4609 28.755C84.7663 28.4565 84.1437 28.0126 83.6349 27.4534C83.1054 26.8649 82.6963 26.1783 82.4308 25.4324C82.144 24.584 82.0033 23.6931 82.0145 22.7975C82.0016 21.9144 82.1406 21.0356 82.4255 20.1995C82.6907 19.4535 83.0998 18.7669 83.6296 18.1786C84.1461 17.625 84.775 17.1884 85.4741 16.898C86.9699 16.2798 88.6499 16.2798 90.1457 16.898C90.8487 17.1814 91.479 17.619 91.9902 18.1786C92.5207 18.764 92.926 19.4517 93.1811 20.1995C93.4835 21.0318 93.6326 21.9121 93.6212 22.7975ZM90.7518 22.7975C90.7518 21.5908 90.4883 20.6378 89.9613 19.9387C89.7212 19.5967 89.3988 19.3207 89.024 19.1361C88.6492 18.9515 88.2339 18.8641 87.8165 18.8821C87.3949 18.8642 86.9754 18.9511 86.5956 19.1351C86.2158 19.319 85.8875 19.5942 85.6401 19.936C85.1324 20.6387 84.8786 21.5916 84.8786 22.7949C84.8786 23.9982 85.1324 24.9643 85.6401 25.6933C85.8827 26.0428 86.209 26.3259 86.5892 26.5169C86.9693 26.7079 87.3913 26.8007 87.8165 26.7868C88.2361 26.8047 88.6534 26.716 89.0294 26.5289C89.4054 26.3418 89.7278 26.0625 89.9666 25.717C90.4918 24.9968 90.7535 24.0236 90.7518 22.7975Z" fill="black"/>
<path d="M102.472 19.2641C102.154 19.1653 101.83 19.0879 101.502 19.0322C101.038 18.9331 100.564 18.8862 100.09 18.8926C99.7565 18.8953 99.4242 18.9261 99.0963 18.9848C98.8545 19.0254 98.6152 19.08 98.3796 19.1482V28.8947H95.5787V17.3011C96.2357 17.0677 96.9084 16.8811 97.5918 16.7425C98.4802 16.5534 99.3869 16.4633 100.295 16.4738C100.512 16.4761 100.728 16.4919 100.943 16.5212C101.192 16.5376 101.439 16.5684 101.684 16.6134C101.925 16.6445 102.165 16.6911 102.4 16.7531C102.588 16.7898 102.774 16.8364 102.956 16.8927L102.472 19.2641Z" fill="black"/>
<path d="M108.239 26.9134C108.898 26.9305 109.556 26.8837 110.205 26.7738V23.6593C109.985 23.5985 109.762 23.5519 109.536 23.5197C109.214 23.471 108.889 23.4481 108.564 23.4511C108.246 23.4509 107.929 23.4738 107.615 23.5197C107.318 23.5657 107.03 23.6544 106.759 23.7831C106.516 23.9039 106.309 24.0854 106.158 24.3101C105.995 24.5583 105.914 24.8513 105.926 25.148C105.926 25.8155 106.134 26.2801 106.551 26.5419C107.07 26.8138 107.653 26.9421 108.239 26.9134ZM108.008 16.4291C108.801 16.4076 109.592 16.5244 110.345 16.7743C110.92 16.9694 111.437 17.3055 111.849 17.7519C112.242 18.1877 112.521 18.7148 112.658 19.2854C112.836 19.9208 112.925 20.5779 112.922 21.2378V28.6155C112.49 28.7104 111.833 28.8193 110.953 28.9423C109.981 29.0895 108.999 29.1591 108.016 29.1504C107.347 29.1567 106.679 29.0869 106.026 28.9423C105.47 28.8226 104.943 28.5933 104.477 28.2677C104.05 27.9482 103.707 27.5307 103.476 27.0504C103.226 26.4685 103.107 25.8389 103.128 25.206C103.108 24.5939 103.243 23.9868 103.52 23.4406C103.791 22.9676 104.172 22.5677 104.632 22.276C105.116 21.9576 105.658 21.7365 106.226 21.6252C106.857 21.4846 107.501 21.4148 108.147 21.417C108.472 21.4186 108.797 21.4415 109.12 21.4855C109.485 21.5221 109.848 21.5846 110.205 21.6726V21.2168C110.207 20.904 110.169 20.5923 110.092 20.2893C110.018 20.0026 109.875 19.7385 109.675 19.5199C109.472 19.2792 109.209 19.0973 108.911 18.9929C108.533 18.858 108.133 18.7955 107.731 18.8085C107.134 18.8035 106.538 18.8502 105.95 18.9481C105.502 19.0171 105.061 19.1255 104.632 19.2722L104.285 16.9957C104.789 16.8312 105.305 16.7035 105.829 16.6136C106.548 16.4866 107.277 16.4248 108.008 16.4291Z" fill="black"/>
<path d="M122.307 22.4973C122.307 21.2255 122.146 20.3112 121.822 19.7543C121.499 19.1975 120.911 18.9068 120.057 18.8822C119.717 18.8843 119.377 18.9081 119.04 18.9533C118.668 18.9981 118.392 19.0376 118.207 19.0693V28.8948H115.414V17.1273C116.108 16.9391 116.812 16.7913 117.522 16.6847C118.441 16.5416 119.37 16.4711 120.299 16.4739C120.992 16.4511 121.683 16.562 122.334 16.8006C122.835 16.9918 123.291 17.2842 123.675 17.6596C123.882 17.5137 124.098 17.3817 124.323 17.2644C124.606 17.1176 124.9 16.9933 125.203 16.8928C125.534 16.7668 125.874 16.6663 126.22 16.5925C126.585 16.5141 126.956 16.4744 127.329 16.4739C128.122 16.4455 128.911 16.5884 129.643 16.8928C130.222 17.1258 130.721 17.5222 131.079 18.0337C131.451 18.559 131.696 19.1632 131.795 19.7991C131.94 20.5421 132.01 21.2977 132.004 22.0546V28.8948H129.203V22.4973C129.203 21.2255 129.048 20.3112 128.739 19.7543C128.43 19.1975 127.836 18.9068 126.958 18.8822C126.523 18.8807 126.091 18.9593 125.685 19.1141C125.368 19.2141 125.065 19.3549 124.784 19.533C124.914 19.9338 125.003 20.3471 125.047 20.7661C125.096 21.2291 125.12 21.6944 125.119 22.16V28.8948H122.307V22.4973Z" fill="black"/>
<path d="M138.765 26.9134C139.424 26.9304 140.083 26.8836 140.733 26.7738V23.6593C140.512 23.5989 140.288 23.5522 140.061 23.5197C139.739 23.471 139.414 23.4481 139.089 23.4512C138.771 23.4509 138.454 23.4738 138.14 23.5197C137.844 23.5653 137.557 23.6541 137.287 23.7832C137.043 23.903 136.835 24.0847 136.683 24.3101C136.52 24.5583 136.439 24.8514 136.451 25.148C136.451 25.8155 136.66 26.2802 137.078 26.5419C137.597 26.8139 138.18 26.9421 138.765 26.9134ZM138.536 16.4292C139.329 16.4075 140.12 16.5243 140.873 16.7743C141.448 16.9694 141.965 17.3055 142.377 17.7519C142.771 18.187 143.05 18.7144 143.186 19.2854C143.366 19.9205 143.454 20.5779 143.45 21.2379V28.6156C143.017 28.7104 142.362 28.8193 141.484 28.9423C140.512 29.0894 139.529 29.159 138.546 29.1504C137.877 29.1569 137.21 29.0871 136.557 28.9423C136 28.8232 135.472 28.5939 135.005 28.2678C134.576 27.9484 134.23 27.531 133.996 27.0504C133.746 26.4686 133.627 25.8389 133.648 25.206C133.628 24.5939 133.763 23.9868 134.04 23.4406C134.311 22.9676 134.692 22.5678 135.152 22.276C135.637 21.9571 136.18 21.736 136.749 21.6252C137.379 21.4846 138.022 21.4148 138.667 21.417C138.993 21.4187 139.317 21.4415 139.64 21.4855C140.006 21.5223 140.37 21.5848 140.728 21.6726V21.2168C140.729 20.9039 140.69 20.5922 140.612 20.2893C140.538 20.0027 140.395 19.7385 140.196 19.5199C139.992 19.2792 139.729 19.0973 139.431 18.9929C139.053 18.8579 138.653 18.7953 138.251 18.8085C137.654 18.8035 137.058 18.8502 136.47 18.9481C136.022 19.0174 135.581 19.1259 135.152 19.2722L134.812 16.9878C135.319 16.8257 135.837 16.7007 136.362 16.6136C137.078 16.4873 137.803 16.4256 138.53 16.4292H138.536Z" fill="black"/>
<path d="M51.2441 38.7625H50.4537V38.636C50.422 37.8455 50.3878 37.0814 50.3483 36.3726C50.3193 35.8193 50.285 35.2949 50.2402 34.8048C50.1586 34.9629 50.0663 35.1474 49.9636 35.3529C49.8608 35.5584 49.737 35.8114 49.6158 36.067L49.2627 36.8047L48.9439 37.4608C48.8569 37.6584 48.7858 37.8192 48.7357 37.943L48.7041 38.0247H48.0664L48.0322 37.943C47.9821 37.8218 47.911 37.6611 47.8161 37.4608C47.7213 37.2606 47.6211 37.0419 47.5078 36.8047L47.1521 36.067C47.0309 35.8035 46.915 35.5742 46.8043 35.3529C46.6937 35.1316 46.6093 34.9629 46.5277 34.8048C46.4829 35.2923 46.4433 35.8193 46.4144 36.3726C46.3775 37.0893 46.3459 37.8429 46.3142 38.636V38.7625H45.5422V38.6228C45.587 37.698 45.6371 36.7995 45.6924 35.951C45.7477 35.1026 45.8268 34.2752 45.9111 33.5006V33.3846H46.5566L46.5935 33.4479C46.7464 33.6929 46.9097 33.9749 47.081 34.3121C47.2523 34.6494 47.4235 34.9682 47.5895 35.3186C47.7555 35.6691 47.9242 36.0064 48.0822 36.3463C48.1903 36.5755 48.293 36.7889 48.3853 36.9892C48.4749 36.7889 48.5723 36.5755 48.6804 36.3463C48.8411 36.0064 49.0045 35.6638 49.1731 35.3186C49.3417 34.9735 49.5183 34.6257 49.6869 34.3095C49.8555 33.9933 50.0242 33.6929 50.1744 33.4479L50.2323 33.3741H50.8542V33.49C50.9385 34.2805 51.0096 35.092 51.065 35.9405C51.1203 36.7889 51.1783 37.6821 51.223 38.6123L51.2441 38.7625Z" fill="black"/>
<path d="M54.6457 35.5372C54.5958 35.3561 54.5058 35.1886 54.3822 35.0471C54.2507 34.8967 54.0829 34.7825 53.8948 34.7151C53.672 34.63 53.4349 34.5888 53.1965 34.5939C52.9704 34.5909 52.7445 34.6094 52.522 34.6493C52.3768 34.6739 52.2346 34.7136 52.0978 34.7678L52.0082 34.81L52.1188 35.4898L52.269 35.4318C52.3323 35.4081 52.4324 35.3791 52.5668 35.3396C52.766 35.2981 52.9694 35.2804 53.1728 35.2869C53.3195 35.2798 53.4659 35.3078 53.5996 35.3686C53.6968 35.4117 53.7792 35.4822 53.8368 35.5715C53.8961 35.6553 53.9349 35.7519 53.9501 35.8534C53.9684 35.9737 53.9772 36.0953 53.9764 36.217V36.2724C53.9343 36.2724 53.8842 36.2539 53.8342 36.246C53.7559 36.2301 53.6767 36.2196 53.597 36.2144C53.2896 36.178 52.9782 36.1967 52.6774 36.2697C52.4766 36.3108 52.2852 36.3895 52.1136 36.5016C51.9533 36.6036 51.8211 36.744 51.7289 36.91C51.6346 37.0941 51.5875 37.2987 51.5919 37.5055C51.5866 37.7166 51.6279 37.9262 51.7131 38.1194C51.7955 38.2815 51.9124 38.4236 52.0556 38.5357C52.2052 38.6415 52.3732 38.7183 52.551 38.7623C52.7492 38.811 52.9528 38.8349 53.157 38.8335C53.3163 38.8339 53.4755 38.8259 53.6339 38.8098C53.7946 38.8098 53.9422 38.7834 54.0687 38.765L54.4086 38.7123C54.5087 38.6912 54.5851 38.6728 54.6378 38.6569L54.7327 38.628V36.1248C54.7307 35.9259 54.7014 35.7282 54.6457 35.5372ZM53.3414 36.8863C53.4997 36.8831 53.6579 36.8972 53.8131 36.9284C53.8816 36.9443 53.9343 36.9548 53.9712 36.968V38.1168L53.7261 38.1484C53.5865 38.1484 53.4231 38.1484 53.236 38.1484C53.1045 38.1499 52.9731 38.1393 52.8434 38.1168C52.7497 38.0933 52.6606 38.0541 52.5799 38.0009C52.5119 37.9548 52.4566 37.8922 52.4192 37.819C52.3791 37.7223 52.3602 37.6181 52.3639 37.5134C52.3569 37.402 52.3855 37.2913 52.4456 37.1972C52.5033 37.116 52.5815 37.0515 52.6722 37.0101C52.7708 36.9565 52.8792 36.9234 52.991 36.9126C53.107 36.8957 53.2241 36.8869 53.3414 36.8863Z" fill="black"/>
<path d="M58.7193 36.4966V38.7626H57.9631V36.6547C57.9667 36.4338 57.9482 36.2131 57.9078 35.9959C57.8853 35.8495 57.8284 35.7104 57.7418 35.5902C57.6711 35.4932 57.5714 35.4213 57.4572 35.3846C57.2988 35.3303 57.1318 35.3053 56.9645 35.3109C56.7689 35.3093 56.5734 35.3216 56.3795 35.3477C56.2794 35.3477 56.2109 35.3741 56.1661 35.382V38.7652H55.4125V34.8471L55.51 34.8208C55.6576 34.7812 55.8605 34.7338 56.1081 34.6864C56.4149 34.6301 56.7264 34.6045 57.0382 34.61C57.308 34.6026 57.5766 34.6482 57.8287 34.7444C58.0384 34.8286 58.2207 34.969 58.3557 35.1501C58.4917 35.3275 58.587 35.5326 58.635 35.7509C58.6913 35.9954 58.7196 36.2456 58.7193 36.4966Z" fill="black"/>
<path d="M62.1816 35.5373C62.1307 35.3566 62.0408 35.1893 61.9182 35.0472C61.7866 34.8968 61.6188 34.7825 61.4307 34.7152C61.2072 34.6297 60.9691 34.5885 60.7298 34.594C60.5037 34.5912 60.2779 34.6097 60.0553 34.6493C59.9111 34.6743 59.7698 34.714 59.6337 34.7679L59.5441 34.81L59.6521 35.4899L59.8023 35.4319C59.8656 35.4082 59.9657 35.3792 60.1027 35.3397C60.3019 35.2982 60.5054 35.2805 60.7087 35.287C60.8555 35.2802 61.0017 35.3082 61.1356 35.3686C61.2323 35.4112 61.314 35.4819 61.3701 35.5715C61.4311 35.6544 61.4701 35.7514 61.4834 35.8535C61.5025 35.9737 61.5122 36.0953 61.5124 36.2171V36.2724L61.3701 36.2461C61.2919 36.2302 61.2126 36.2196 61.133 36.2144C60.8256 36.178 60.5142 36.1967 60.2134 36.2698C60.0124 36.3104 59.821 36.3891 59.6495 36.5017C59.4881 36.6022 59.3555 36.7429 59.2648 36.9101C59.1694 37.0937 59.1222 37.2986 59.1278 37.5055C59.123 37.7163 59.1634 37.9257 59.2464 38.1195C59.3288 38.2816 59.4457 38.4237 59.5889 38.5358C59.7394 38.6415 59.9083 38.7184 60.0869 38.7624C60.2852 38.8111 60.4888 38.835 60.6929 38.8335C60.8522 38.8338 61.0114 38.8259 61.1698 38.8098C61.3306 38.8098 61.4781 38.7835 61.6046 38.765L61.9419 38.7123C62.042 38.6912 62.1184 38.6728 62.1737 38.657L62.266 38.628V36.1249C62.2649 35.9261 62.2365 35.7284 62.1816 35.5373ZM60.8774 36.8863C61.0357 36.8833 61.1938 36.8974 61.349 36.9285C61.4175 36.9443 61.4702 36.9549 61.5071 36.968V38.1168L61.2594 38.1485C61.1224 38.1485 60.9591 38.1485 60.772 38.1485C60.6403 38.1505 60.5087 38.139 60.3794 38.1142C60.2857 38.092 60.1965 38.0536 60.1159 38.0009C60.0479 37.9555 59.9933 37.8927 59.9578 37.8191C59.9179 37.7223 59.899 37.6181 59.9025 37.5134C59.8955 37.4021 59.9241 37.2914 59.9841 37.1973C60.0409 37.1162 60.1182 37.0516 60.2081 37.0102C60.3079 36.957 60.4171 36.9239 60.5296 36.9127C60.6447 36.8957 60.761 36.8869 60.8774 36.8863Z" fill="black"/>
<path d="M66.147 34.8205C65.9994 34.7757 65.8124 34.7309 65.591 34.6861C65.2961 34.6278 64.9957 34.6021 64.6952 34.6097C64.4115 34.6056 64.13 34.6594 63.8678 34.7678C63.6299 34.8634 63.4158 35.01 63.2407 35.1973C63.068 35.3826 62.9352 35.6014 62.8507 35.8402C62.7583 36.0934 62.7119 36.3611 62.7137 36.6307C62.7063 36.9398 62.7581 37.2475 62.8666 37.5371C62.9582 37.7687 63.0984 37.978 63.2776 38.151C63.4513 38.3118 63.6582 38.4323 63.8836 38.5041C64.2396 38.6159 64.617 38.6421 64.985 38.5805C65.0944 38.5581 65.2018 38.5272 65.3065 38.4883L65.4909 38.4119V38.4303C65.5079 38.5734 65.4932 38.7184 65.4476 38.855C65.4021 38.9917 65.3269 39.1166 65.2274 39.2208C64.9578 39.4019 64.634 39.4847 64.3105 39.4553C64.1054 39.4543 63.9008 39.4349 63.6992 39.3973C63.5411 39.3707 63.3864 39.3265 63.2381 39.2656L63.0932 39.1997L62.9324 39.9085L63.0457 39.948C63.2179 40.0043 63.394 40.0475 63.5727 40.0771C63.8074 40.1202 64.0456 40.1404 64.2841 40.1377C64.7984 40.1736 65.3095 40.0333 65.7333 39.7399C66.0653 39.4764 66.2366 39.0311 66.2366 38.4224V34.8495L66.147 34.8205ZM65.483 35.3818V37.6715C65.3766 37.7409 65.2614 37.7958 65.1405 37.8348C64.8314 37.945 64.495 37.9524 64.1814 37.8559C64.0526 37.8089 63.9357 37.7342 63.8388 37.6372C63.7317 37.5251 63.6483 37.3925 63.5938 37.2473C63.4719 36.8738 63.4673 36.472 63.5806 36.0958C63.63 35.9408 63.7117 35.798 63.8204 35.6769C63.9217 35.5621 64.0478 35.4719 64.1893 35.4134C64.3516 35.3444 64.5267 35.3103 64.7031 35.3133C64.8909 35.3084 65.0788 35.3208 65.2643 35.3501C65.3486 35.3554 65.4198 35.3686 65.483 35.3818Z" fill="black"/>
<path d="M69.8121 35.0946C69.6539 34.9276 69.4617 34.7964 69.2485 34.7101C69.0353 34.6237 68.8061 34.5841 68.5763 34.5939C68.3423 34.5942 68.1105 34.6398 67.8938 34.7283C67.6702 34.8183 67.4688 34.9559 67.3036 35.1315C67.1253 35.3268 66.985 35.5538 66.89 35.8007C66.7842 36.0946 66.7333 36.4054 66.7398 36.7177C66.7373 37.0025 66.7745 37.2863 66.8504 37.5608C66.9205 37.8111 67.0456 38.0424 67.2167 38.238C67.394 38.4356 67.6151 38.589 67.8622 38.6859C68.1574 38.7979 68.4715 38.8516 68.7871 38.844C69.028 38.8483 69.2683 38.8191 69.5011 38.7571C69.6494 38.722 69.7935 38.6707 69.9306 38.6043L70.0176 38.5568L69.87 37.8849L69.7198 37.9587C69.6156 38.0056 69.5081 38.0452 69.3984 38.0773C69.2041 38.1278 69.0035 38.15 68.8029 38.1432C68.6288 38.1596 68.4532 38.1387 68.2878 38.0819C68.1224 38.0251 67.9711 37.9337 67.8438 37.8138C67.6509 37.5679 67.5412 37.2671 67.5302 36.9548H70.2574L70.2732 36.8415C70.2754 36.8038 70.2754 36.7659 70.2732 36.7282C70.2758 36.6835 70.2758 36.6386 70.2732 36.5938C70.2784 35.9272 70.123 35.4213 69.8121 35.0946ZM68.5842 35.2869C68.71 35.2789 68.8359 35.3002 68.952 35.3491C69.0681 35.3981 69.1713 35.4733 69.2535 35.5689C69.4063 35.7774 69.4927 36.0272 69.5011 36.2856H67.5513C67.5669 36.1832 67.5925 36.0826 67.6277 35.9852C67.6785 35.8541 67.7516 35.7329 67.8438 35.6268C67.9335 35.5197 68.0426 35.4303 68.1652 35.3633C68.2972 35.3062 68.4405 35.28 68.5842 35.2869Z" fill="black"/>
<path d="M76.3309 36.4964V38.7625H75.5773V36.6545C75.5789 36.4432 75.5666 36.2319 75.5405 36.0222C75.5303 35.88 75.4898 35.7417 75.4219 35.6164C75.3729 35.5186 75.2921 35.4406 75.1926 35.3951C75.0565 35.3328 74.9075 35.3038 74.7579 35.3107C74.6286 35.3096 74.4996 35.3229 74.3732 35.3503C74.2721 35.3704 74.1733 35.4004 74.0781 35.4399C74.0065 35.4697 73.9378 35.5059 73.8726 35.5479L73.833 35.5742C73.8685 35.6957 73.8932 35.82 73.9068 35.9458C73.9346 36.12 73.9478 36.2963 73.9463 36.4727V38.7756H73.1928V36.6677C73.1946 36.4572 73.1822 36.2468 73.1559 36.038C73.146 35.8949 73.1056 35.7556 73.0373 35.6296C72.9834 35.5309 72.8981 35.453 72.7949 35.4082C72.6524 35.3453 72.4973 35.3164 72.3417 35.3239C72.147 35.3225 71.9525 35.334 71.7594 35.3582C71.6645 35.374 71.6039 35.3845 71.5618 35.3951V38.7783H70.8056V34.847L70.903 34.8207C71.0506 34.7811 71.2429 34.7363 71.4775 34.6863C71.7876 34.6288 72.1028 34.6032 72.4181 34.6099C72.6163 34.5962 72.8152 34.6226 73.0031 34.6873C73.1909 34.752 73.3638 34.8538 73.5116 34.9867L73.5643 34.955C73.6577 34.8936 73.7565 34.8407 73.8594 34.7969C73.9909 34.7397 74.1277 34.6956 74.2678 34.6652C74.4408 34.6271 74.6176 34.6086 74.7948 34.6099C75.0659 34.5975 75.3362 34.6471 75.5852 34.7548C75.7826 34.8406 75.9503 34.9827 76.0674 35.1632C76.1834 35.3465 76.2597 35.552 76.2914 35.7666C76.3229 36.0085 76.3361 36.2525 76.3309 36.4964Z" fill="black"/>
<path d="M80.328 36.5938C80.328 35.9272 80.1699 35.4213 79.8616 35.0946C79.7035 34.9276 79.5113 34.7964 79.2981 34.7101C79.0849 34.6237 78.8557 34.5841 78.6259 34.5939C78.3919 34.5942 78.1601 34.6398 77.9434 34.7283C77.7194 34.819 77.5172 34.9564 77.3506 35.1315C77.1736 35.3274 77.0343 35.5543 76.9395 35.8007C76.8329 36.0944 76.7811 36.4052 76.7867 36.7177C76.7855 37.0024 76.8227 37.2861 76.8974 37.5608C76.9695 37.8108 77.0954 38.0419 77.2663 38.238C77.4431 38.4362 77.6643 38.5897 77.9118 38.6859C78.2069 38.7982 78.521 38.8519 78.8367 38.844C79.0776 38.8482 79.3179 38.8189 79.5507 38.7571C79.6989 38.7215 79.8429 38.6703 79.9802 38.6043L80.0672 38.5568L79.917 37.8849L79.7668 37.9587C79.6625 38.0056 79.5551 38.0452 79.4453 38.0773C79.252 38.128 79.0522 38.1502 78.8525 38.1432C78.6784 38.1596 78.5028 38.1387 78.3374 38.0819C78.172 38.0251 78.0207 37.9337 77.8934 37.8138C77.7005 37.5679 77.5908 37.2671 77.5798 36.9548H80.2938L80.3122 36.8415C80.3159 36.8038 80.3159 36.7659 80.3122 36.7282C80.3214 36.684 80.3267 36.639 80.328 36.5938ZM77.6009 36.2856C77.6155 36.1832 77.6402 36.0826 77.6747 35.9852C77.7263 35.854 77.8003 35.7327 77.8934 35.6268C77.9831 35.5197 78.0921 35.4303 78.2148 35.3633C78.3456 35.3014 78.4891 35.2707 78.6338 35.2738C78.7592 35.2655 78.8848 35.2868 79.0005 35.3357C79.1163 35.3847 79.2189 35.46 79.3004 35.5557C79.4553 35.7633 79.5426 36.0135 79.5507 36.2724L77.6009 36.2856Z" fill="black"/>
<path d="M84.1617 36.4966V38.7626H83.4082V36.6547C83.4108 36.4337 83.3914 36.213 83.3502 35.9959C83.3277 35.8495 83.2708 35.7104 83.1842 35.5902C83.1135 35.4932 83.0139 35.4213 82.8996 35.3846C82.7412 35.3305 82.5742 35.3055 82.4069 35.3109C82.2113 35.3093 82.0158 35.3216 81.822 35.3477C81.7218 35.3477 81.6533 35.3741 81.6085 35.382V38.7652H80.8549V34.8471L80.9524 34.8208C81.1 34.7812 81.3029 34.7338 81.5506 34.6864C81.8573 34.6301 82.1689 34.6045 82.4807 34.61C82.7504 34.6026 83.019 34.6482 83.2711 34.7444C83.4808 34.8286 83.6631 34.969 83.7981 35.1501C83.9341 35.3275 84.0295 35.5326 84.0774 35.7509C84.1338 35.9954 84.162 36.2456 84.1617 36.4966Z" fill="black"/>
<path d="M87.321 38.5333L87.234 38.586C86.925 38.7592 86.5765 38.85 86.2222 38.8495C85.9996 38.8539 85.7778 38.821 85.5661 38.752C85.3905 38.686 85.2351 38.5752 85.1156 38.4305C85.0009 38.2738 84.9218 38.094 84.8837 37.9036C84.8386 37.6754 84.8174 37.4431 84.8204 37.2106V33.5823L85.574 33.4479V34.6916H87.1207V35.3609H85.5635V37.258C85.5603 37.4254 85.5772 37.5926 85.6136 37.756C85.6353 37.8538 85.6815 37.9445 85.7479 38.0195C85.7997 38.0746 85.8666 38.1131 85.9403 38.1302C86.0389 38.1522 86.1397 38.1628 86.2407 38.1618C86.3939 38.1674 86.547 38.1478 86.6939 38.1038C86.7845 38.0688 86.8726 38.0274 86.9574 37.98L87.1023 37.9009L87.321 38.5333Z" fill="black"/>
<path d="M93.2522 38.5832C93.0466 38.0562 92.8543 37.5556 92.6804 37.0998C92.5065 36.6439 92.3273 36.196 92.1534 35.7823C91.9795 35.3686 91.8161 34.9655 91.6528 34.5914C91.4894 34.2172 91.3076 33.8272 91.1258 33.4504L91.0889 33.3767H90.4723L90.4354 33.4504C90.2484 33.8299 90.0692 34.2146 89.9085 34.5914C89.7477 34.9681 89.5738 35.3686 89.4026 35.7823C89.2313 36.196 89.0653 36.6281 88.8888 37.0998C88.7122 37.5714 88.5225 38.051 88.3223 38.5832L88.2538 38.7624H89.0732L89.1048 38.6754C89.1944 38.412 89.284 38.1827 89.3683 37.9535C89.4526 37.7242 89.5185 37.553 89.5923 37.3606H91.9637C92.0348 37.553 92.1086 37.7506 92.1824 37.9535C92.2562 38.1564 92.3589 38.4251 92.4459 38.6781L92.4775 38.7624H93.3286L93.2522 38.5832ZM89.8479 36.6677C90.0165 36.2303 90.1772 35.8166 90.3301 35.4345C90.4723 35.092 90.6173 34.7494 90.7674 34.4148C90.9176 34.7521 91.0626 35.0946 91.2048 35.4345C91.3629 35.8192 91.5289 36.225 91.6949 36.6677H89.8479Z" fill="black"/>
<path d="M96.0295 32.8815V34.8181C95.9636 34.7865 95.8846 34.7549 95.795 34.7206C95.5673 34.6371 95.326 34.5969 95.0835 34.602C94.8058 34.5974 94.5302 34.6513 94.2746 34.7601C94.0452 34.8645 93.8412 35.0173 93.6765 35.2081C93.5089 35.4088 93.3826 35.6408 93.305 35.8905C93.2225 36.1612 93.1816 36.4428 93.1838 36.7258C93.1804 37.0262 93.2295 37.3249 93.3287 37.6085C93.4239 37.8579 93.5671 38.0862 93.7503 38.2804C93.9361 38.4659 94.1574 38.612 94.4011 38.7099C94.6683 38.8048 94.9502 38.8521 95.2337 38.8495C95.5304 38.8553 95.8269 38.8324 96.1191 38.781C96.3146 38.7462 96.5074 38.6978 96.6961 38.6361L96.7857 38.6071V32.7444L96.0295 32.8815ZM95.239 38.1513C95.0685 38.16 94.8982 38.1328 94.7388 38.0715C94.5795 38.0103 94.4349 37.9162 94.3142 37.7955C94.0652 37.4968 93.9407 37.1138 93.9664 36.7258C93.9652 36.5351 93.9865 36.345 94.0296 36.1593C94.0659 35.9973 94.134 35.8442 94.2298 35.7087C94.3186 35.5836 94.4361 35.4815 94.5724 35.411C94.7458 35.3318 94.9352 35.2939 95.1257 35.3003C95.2294 35.301 95.3327 35.3125 95.434 35.3345C95.5237 35.3529 95.6118 35.3785 95.6975 35.411C95.7723 35.4389 95.8446 35.4733 95.9135 35.5137C95.95 35.5324 95.9852 35.5536 96.0189 35.577V38.0801C95.9583 38.0801 95.8819 38.1091 95.795 38.1223C95.6114 38.1446 95.4265 38.1543 95.2416 38.1513H95.239Z" fill="black"/>
<path d="M100.643 34.6915L100.601 34.8549C100.509 35.2053 100.406 35.5558 100.295 35.9089C100.185 36.2619 100.063 36.5887 99.9395 36.9128C99.8157 37.2369 99.6761 37.5557 99.5522 37.8561C99.4284 38.1564 99.2887 38.441 99.1649 38.7071L99.128 38.7835H98.4956L98.4587 38.7098C98.3296 38.4463 98.1952 38.1591 98.0635 37.8561C97.9318 37.553 97.8 37.2395 97.6788 36.9128C97.5576 36.586 97.439 36.2488 97.3284 35.9089C97.2177 35.569 97.1149 35.2185 97.0227 34.8549L96.9806 34.6915H97.771L97.7947 34.7943C97.8527 35.0578 97.9265 35.3213 98.0134 35.6269C98.1004 35.9326 98.1979 36.2119 98.298 36.507C98.3981 36.8021 98.5088 37.0735 98.6195 37.3502C98.688 37.5161 98.7565 37.6716 98.8223 37.8165C98.8882 37.6716 98.9567 37.5135 99.0252 37.3475C99.1359 37.084 99.2413 36.7889 99.3388 36.507C99.4363 36.225 99.539 35.9194 99.6234 35.6269C99.7077 35.3345 99.7894 35.0473 99.8473 34.7943L99.871 34.6915H100.643Z" fill="black"/>
<path d="M101.71 33.6639C101.713 33.7317 101.701 33.7992 101.676 33.8622C101.651 33.9252 101.613 33.9824 101.565 34.0302C101.47 34.118 101.344 34.1661 101.215 34.1646C101.087 34.1663 100.964 34.1192 100.87 34.0328C100.821 33.9852 100.782 33.9277 100.757 33.8641C100.731 33.8006 100.719 33.7324 100.722 33.6639C100.719 33.5963 100.731 33.5288 100.756 33.4661C100.782 33.4033 100.82 33.3468 100.87 33.3003C100.964 33.2114 101.088 33.1618 101.217 33.1618C101.347 33.1618 101.471 33.2114 101.565 33.3003C101.614 33.3469 101.652 33.4035 101.677 33.4663C101.702 33.5291 101.714 33.5965 101.71 33.6639Z" fill="black"/>
<path d="M101.597 34.6836H100.843V38.7624H101.597V34.6836Z" fill="black"/>
<path d="M104.875 37.6716C104.883 37.8471 104.844 38.0217 104.764 38.1779C104.684 38.3342 104.564 38.4667 104.416 38.5622C104.07 38.7708 103.669 38.8709 103.265 38.8494C102.986 38.8607 102.707 38.8287 102.437 38.7545C102.308 38.7205 102.181 38.6765 102.058 38.6228L101.958 38.5727L102.169 37.8639L102.316 37.9588C102.343 37.9745 102.372 37.9886 102.4 38.0009L102.59 38.0694C102.683 38.0947 102.777 38.1149 102.872 38.13C103.002 38.1504 103.133 38.1601 103.265 38.159C103.483 38.1677 103.7 38.1272 103.9 38.0404C103.965 38.0105 104.02 37.961 104.057 37.8988C104.094 37.8367 104.111 37.7647 104.105 37.6926C104.107 37.6212 104.094 37.5502 104.066 37.4845C104.04 37.4232 103.998 37.3702 103.944 37.3317C103.863 37.2702 103.775 37.2189 103.681 37.1788C103.56 37.1244 103.41 37.0611 103.23 36.9891L102.809 36.81C102.677 36.7457 102.551 36.668 102.435 36.5781C102.326 36.4841 102.236 36.3695 102.171 36.2408C102.098 36.0936 102.062 35.9308 102.066 35.7665C102.062 35.6027 102.096 35.4402 102.166 35.292C102.236 35.1438 102.34 35.014 102.469 34.9128C102.779 34.6865 103.158 34.5739 103.541 34.594C103.774 34.5891 104.005 34.613 104.232 34.6651C104.367 34.6955 104.499 34.7378 104.627 34.7916L104.724 34.8391L104.543 35.5268L104.398 35.4583C104.302 35.4133 104.204 35.3755 104.103 35.345C103.913 35.2927 103.717 35.2705 103.52 35.2791C103.424 35.2785 103.327 35.2891 103.233 35.3107C103.156 35.3262 103.083 35.3557 103.017 35.3976C102.96 35.4297 102.912 35.476 102.877 35.532C102.842 35.5887 102.824 35.6549 102.827 35.7217C102.825 35.7921 102.84 35.8618 102.872 35.9246C102.908 35.9862 102.955 36.04 103.012 36.0827C103.096 36.1362 103.184 36.1829 103.275 36.2224L103.665 36.3831C103.815 36.4411 103.963 36.5043 104.1 36.5702C104.245 36.6291 104.38 36.71 104.5 36.81C104.619 36.9053 104.716 37.0236 104.788 37.1578C104.859 37.319 104.889 37.4957 104.875 37.6716Z" fill="black"/>
<path d="M108.709 35.864C108.626 35.6147 108.491 35.3858 108.313 35.1921C108.147 35.0037 107.941 34.8543 107.71 34.7547C107.466 34.6504 107.204 34.5966 106.939 34.5966C106.674 34.5966 106.412 34.6504 106.169 34.7547C105.939 34.8557 105.733 35.0049 105.565 35.1921C105.39 35.3878 105.256 35.6161 105.17 35.864C105.075 36.1412 105.029 36.4327 105.033 36.7256C105.029 37.0194 105.075 37.3116 105.17 37.5898C105.257 37.8377 105.392 38.066 105.568 38.2617C105.74 38.4465 105.947 38.5952 106.176 38.6991C106.671 38.8994 107.224 38.8994 107.718 38.6991C107.946 38.5964 108.151 38.4474 108.319 38.2617C108.497 38.0681 108.632 37.8392 108.717 37.5898C108.906 37.0302 108.906 36.4236 108.717 35.864H108.709ZM108.068 36.7256C108.089 37.1022 107.979 37.4744 107.757 37.7795C107.656 37.8964 107.53 37.99 107.389 38.0542C107.248 38.1184 107.094 38.1516 106.939 38.1516C106.784 38.1516 106.631 38.1184 106.49 38.0542C106.349 37.99 106.223 37.8964 106.121 37.7795C105.918 37.4655 105.81 37.0995 105.81 36.7256C105.81 36.3517 105.918 35.9857 106.121 35.6716C106.222 35.5528 106.347 35.4574 106.488 35.3919C106.63 35.3265 106.784 35.2925 106.939 35.2925C107.095 35.2925 107.249 35.3265 107.39 35.3919C107.531 35.4574 107.657 35.5528 107.757 35.6716C107.979 35.977 108.088 36.349 108.068 36.7256Z" fill="black"/>
<path d="M111.72 34.7759L111.559 35.4557L111.409 35.3846C111.342 35.3578 111.271 35.3418 111.199 35.3372C111.046 35.3097 110.89 35.2974 110.735 35.3003C110.573 35.2964 110.411 35.3105 110.253 35.3424L110.105 35.3793V38.7625H109.351V34.9051L109.43 34.8708C109.606 34.7995 109.788 34.743 109.973 34.7022C110.248 34.6361 110.529 34.6051 110.811 34.6099C110.971 34.6091 111.131 34.6224 111.288 34.6495C111.401 34.6649 111.513 34.6923 111.62 34.7312L111.72 34.7759Z" fill="black"/>
<path d="M115.341 34.6915L115.306 34.8522C115.146 35.5636 114.958 36.2671 114.753 36.9417C114.561 37.5753 114.335 38.198 114.076 38.8072C113.989 39.0106 113.887 39.207 113.77 39.3947C113.674 39.558 113.55 39.7033 113.404 39.8242C113.266 39.9454 113.103 40.0353 112.927 40.0877C112.728 40.1439 112.522 40.1705 112.316 40.1668C112.187 40.1679 112.058 40.152 111.934 40.1193C111.858 40.0997 111.784 40.0733 111.712 40.0403L111.625 39.9613L111.794 39.2735L111.952 39.3921C111.993 39.4069 112.034 39.4192 112.076 39.429C112.273 39.4845 112.482 39.4845 112.679 39.429C112.776 39.4058 112.865 39.3617 112.943 39.2999C113.026 39.232 113.098 39.151 113.156 39.0601C113.227 38.9486 113.289 38.8314 113.341 38.7097C113.183 38.4225 113.03 38.1221 112.885 37.8191C112.74 37.5161 112.587 37.1656 112.45 36.831C112.313 36.4964 112.187 36.1565 112.086 35.8271C111.986 35.4977 111.876 35.1578 111.797 34.8364L111.754 34.673H112.545L112.569 34.7731C112.624 35.005 112.695 35.2606 112.779 35.532C112.864 35.8034 112.959 36.0827 113.064 36.3673C113.169 36.6518 113.291 36.9469 113.422 37.2552C113.512 37.4607 113.607 37.6663 113.704 37.8691C113.773 37.6742 113.836 37.4845 113.894 37.3026C113.978 37.0392 114.057 36.7757 114.126 36.5122C114.194 36.2487 114.271 35.9694 114.337 35.6901C114.403 35.4108 114.479 35.1051 114.555 34.781L114.579 34.6809L115.341 34.6915Z" fill="black"/>
<path d="M119.97 37.3529C119.982 37.5758 119.938 37.7982 119.841 37.9991C119.743 38.2001 119.597 38.373 119.414 38.5017C118.994 38.769 118.502 38.8989 118.004 38.8732C117.813 38.8743 117.622 38.8611 117.433 38.8337C117.278 38.8129 117.125 38.7821 116.974 38.7415C116.854 38.7081 116.736 38.6668 116.621 38.6176C116.544 38.585 116.47 38.548 116.397 38.507L116.3 38.4516L116.563 37.7666L116.698 37.8456C116.745 37.872 116.811 37.9062 116.89 37.9431C116.969 37.98 117.069 38.0169 117.18 38.0564C117.29 38.0959 117.412 38.1144 117.551 38.1381C117.704 38.1632 117.858 38.1755 118.012 38.175C118.319 38.1925 118.624 38.125 118.895 37.98C118.99 37.9139 119.066 37.8237 119.115 37.7185C119.163 37.6134 119.183 37.4972 119.172 37.3819C119.177 37.2442 119.145 37.1077 119.08 36.9866C119.017 36.8811 118.931 36.7911 118.829 36.7231C118.71 36.6363 118.58 36.5662 118.442 36.515L117.949 36.3147C117.747 36.2386 117.549 36.1506 117.356 36.0512C117.188 35.9669 117.031 35.8616 116.89 35.7377C116.76 35.6166 116.654 35.4717 116.579 35.3108C116.508 35.1343 116.473 34.9452 116.476 34.7549C116.462 34.5425 116.5 34.3299 116.587 34.1354C116.673 33.9408 116.805 33.77 116.972 33.6377C117.359 33.3749 117.822 33.2463 118.289 33.2714C118.434 33.2715 118.58 33.2812 118.724 33.3004C118.858 33.3196 118.991 33.3487 119.122 33.3874C119.237 33.4143 119.35 33.4504 119.459 33.4954C119.551 33.5314 119.64 33.5773 119.722 33.6324L119.812 33.693L119.53 34.3623L119.398 34.2753C119.245 34.1763 119.077 34.1024 118.9 34.0566C118.557 33.9595 118.196 33.9468 117.846 34.0197C117.735 34.0419 117.63 34.0877 117.538 34.1541C117.453 34.212 117.383 34.2887 117.333 34.3781C117.286 34.4805 117.263 34.5923 117.267 34.7048C117.263 34.8207 117.289 34.9356 117.34 35.0394C117.394 35.1327 117.467 35.2136 117.554 35.2766C117.666 35.3551 117.786 35.4221 117.912 35.4768L118.384 35.6745C118.595 35.7588 118.79 35.8431 118.971 35.9379C119.156 36.0183 119.329 36.1238 119.485 36.2515C119.634 36.3777 119.756 36.5328 119.844 36.7073C119.934 36.9101 119.977 37.1309 119.97 37.3529Z" fill="black"/>
<path d="M123.161 35.0946C123.003 34.9276 122.811 34.7964 122.597 34.7101C122.384 34.6237 122.155 34.5841 121.925 34.5939C121.691 34.5942 121.459 34.6398 121.243 34.7283C121.02 34.819 120.818 34.9565 120.653 35.1315C120.475 35.3268 120.335 35.5539 120.242 35.8007C120.134 36.0942 120.082 36.4052 120.089 36.7177C120.086 37.0025 120.123 37.2863 120.199 37.5608C120.269 37.8111 120.395 38.0424 120.566 38.238C120.743 38.4356 120.964 38.589 121.211 38.6859C121.506 38.7977 121.82 38.8513 122.136 38.844C122.378 38.8481 122.619 38.8188 122.853 38.7571C123 38.7216 123.143 38.6704 123.28 38.6043L123.367 38.5568L123.219 37.8849L123.069 37.9587C122.964 38.0056 122.857 38.0452 122.747 38.0773C122.553 38.1278 122.352 38.15 122.152 38.1432C121.978 38.1597 121.802 38.1386 121.637 38.0813C121.472 38.024 121.322 37.9319 121.195 37.8112C121 37.5674 120.889 37.2669 120.879 36.9548H123.596L123.612 36.8415C123.614 36.8038 123.614 36.7659 123.612 36.7282C123.614 36.6835 123.614 36.6386 123.612 36.5938C123.627 35.9272 123.482 35.4213 123.161 35.0946ZM120.9 36.2856C120.916 36.1832 120.941 36.0826 120.977 35.9852C121.026 35.8536 121.1 35.7322 121.193 35.6268C121.282 35.5195 121.391 35.4301 121.514 35.3633C121.645 35.3016 121.788 35.271 121.933 35.2738C122.059 35.2657 122.185 35.287 122.301 35.336C122.417 35.3849 122.52 35.4601 122.602 35.5557C122.755 35.7642 122.842 36.014 122.85 36.2724L120.9 36.2856Z" fill="black"/>
<path d="M126.523 34.7758L126.362 35.4556L126.215 35.3845C126.147 35.3587 126.076 35.3428 126.004 35.337C125.851 35.3099 125.696 35.2975 125.54 35.3002C125.377 35.2961 125.215 35.3103 125.055 35.3423L124.91 35.3792V38.7624H124.154V34.9049L124.236 34.8707C124.675 34.6944 125.144 34.6049 125.617 34.6072C125.776 34.6065 125.934 34.6197 126.091 34.6467C126.204 34.6614 126.316 34.6888 126.423 34.7284L126.523 34.7758Z" fill="black"/>
<path d="M130.22 34.6915L130.178 34.8549C130.085 35.2053 129.983 35.5558 129.872 35.9089C129.761 36.2619 129.64 36.5887 129.516 36.9128C129.392 37.2369 129.253 37.5557 129.129 37.8561C129.005 38.1564 128.865 38.441 128.742 38.7071L128.705 38.7835H128.072L128.035 38.7098C127.904 38.4463 127.772 38.1538 127.64 37.8561C127.508 37.5583 127.377 37.2395 127.256 36.9128C127.134 36.586 127.016 36.2488 126.905 35.9089C126.794 35.569 126.692 35.2185 126.599 34.8549L126.557 34.6915H127.348L127.371 34.7943C127.429 35.0578 127.503 35.3213 127.59 35.6269C127.677 35.9326 127.775 36.2119 127.875 36.507C127.975 36.8021 128.085 37.0735 128.196 37.3502C128.265 37.5161 128.331 37.6716 128.399 37.8165C128.465 37.6716 128.533 37.5135 128.602 37.3475C128.71 37.084 128.815 36.7916 128.915 36.507C129.016 36.2224 129.116 35.9194 129.2 35.6269C129.284 35.3345 129.366 35.0499 129.424 34.7917L129.448 34.6915H130.22Z" fill="black"/>
<path d="M131.287 33.664C131.289 33.7317 131.277 33.7991 131.252 33.8621C131.228 33.9251 131.19 33.9823 131.142 34.0302C131.047 34.1181 130.921 34.1662 130.792 34.1646C130.664 34.1663 130.54 34.1192 130.446 34.0329C130.398 33.9849 130.359 33.9274 130.334 33.8639C130.309 33.8004 130.297 33.7323 130.299 33.664C130.296 33.5961 130.308 33.5283 130.333 33.4655C130.359 33.4026 130.399 33.3463 130.449 33.3004C130.543 33.2122 130.667 33.1631 130.796 33.1631C130.924 33.1631 131.048 33.2122 131.142 33.3004C131.191 33.347 131.229 33.4036 131.254 33.4663C131.279 33.5291 131.29 33.5965 131.287 33.664Z" fill="black"/>
<path d="M131.174 34.6836H130.42V38.7624H131.174V34.6836Z" fill="black"/>
<path d="M134.844 38.565L134.754 38.6124C134.606 38.6831 134.449 38.7345 134.288 38.7652C134.082 38.819 133.869 38.8456 133.656 38.8443C133.366 38.8481 133.078 38.7972 132.807 38.6941C132.567 38.5999 132.352 38.4521 132.177 38.2619C132.01 38.0634 131.883 37.8343 131.803 37.5874C131.631 37.0286 131.631 36.4309 131.803 35.8721C131.886 35.6222 132.018 35.3912 132.191 35.1923C132.359 35.0011 132.569 34.8506 132.805 34.7523C133.054 34.6447 133.323 34.5908 133.595 34.5942C133.801 34.5927 134.007 34.6112 134.209 34.6495C134.371 34.6741 134.528 34.7229 134.675 34.7944L134.773 34.8471L134.567 35.5111L134.428 35.4426C134.328 35.3948 134.224 35.3585 134.117 35.3346C133.96 35.3035 133.8 35.2894 133.64 35.2924C133.474 35.2804 133.308 35.3073 133.154 35.3709C133 35.4345 132.863 35.533 132.754 35.6587C132.532 35.9711 132.425 36.3511 132.451 36.7337C132.45 36.9335 132.474 37.1328 132.523 37.3266C132.564 37.4865 132.637 37.6362 132.739 37.7666C132.847 37.8863 132.98 37.9815 133.129 38.0459C133.322 38.1154 133.527 38.1484 133.732 38.1434C133.897 38.1485 134.061 38.128 134.219 38.0828C134.321 38.0522 134.42 38.0134 134.515 37.9668L134.662 37.8904L134.844 38.565Z" fill="black"/>
<path d="M137.919 35.0946C137.761 34.9276 137.569 34.7964 137.355 34.7101C137.142 34.6237 136.913 34.5841 136.683 34.5939C136.449 34.5942 136.217 34.6398 136.001 34.7283C135.777 34.819 135.574 34.9564 135.408 35.1315C135.231 35.3274 135.092 35.5543 134.997 35.8007C134.89 36.0944 134.838 36.4052 134.844 36.7177C134.842 37.0026 134.88 37.2864 134.957 37.5608C135.027 37.8111 135.152 38.0424 135.324 38.238C135.501 38.4354 135.722 38.5888 135.969 38.6859C136.264 38.7982 136.578 38.8519 136.894 38.844C137.135 38.8482 137.375 38.8189 137.608 38.7571C137.756 38.7215 137.9 38.6703 138.037 38.6043L138.124 38.5568L137.977 37.8849L137.824 37.9587C137.72 38.0056 137.612 38.0452 137.503 38.0773C137.309 38.128 137.109 38.1502 136.91 38.1432C136.736 38.1596 136.56 38.1387 136.395 38.0819C136.229 38.0251 136.078 37.9337 135.951 37.8138C135.758 37.5679 135.648 37.2671 135.637 36.9548H138.351L138.369 36.8415C138.372 36.8038 138.372 36.7659 138.369 36.7282C138.372 36.6835 138.372 36.6386 138.369 36.5938C138.385 35.9272 138.238 35.4213 137.919 35.0946ZM135.658 36.2856C135.673 36.1832 135.697 36.0826 135.732 35.9852C135.784 35.854 135.858 35.7327 135.951 35.6268C136.04 35.5197 136.149 35.4303 136.272 35.3633C136.403 35.3014 136.546 35.2707 136.691 35.2738C136.816 35.2655 136.942 35.2868 137.058 35.3357C137.173 35.3847 137.276 35.46 137.358 35.5557C137.512 35.7633 137.6 36.0135 137.608 36.2724L135.658 36.2856Z" fill="black"/>
<path d="M141.455 37.6716C141.464 37.8472 141.426 38.022 141.345 38.1783C141.265 38.3347 141.145 38.467 140.997 38.5622C140.65 38.7708 140.249 38.8708 139.845 38.8494C139.566 38.8605 139.287 38.8285 139.018 38.7545C138.888 38.7205 138.761 38.6765 138.638 38.6228L138.541 38.5727L138.749 37.8639L138.897 37.9588L138.981 38.0036L139.171 38.0694C139.263 38.0947 139.358 38.1149 139.453 38.13C139.582 38.1504 139.714 38.16 139.845 38.159C140.063 38.1677 140.28 38.1272 140.48 38.0404C140.546 38.0108 140.601 37.9614 140.638 37.8991C140.675 37.8369 140.692 37.7647 140.686 37.6926C140.688 37.6212 140.675 37.5501 140.646 37.4845C140.621 37.4232 140.579 37.3702 140.525 37.3317C140.444 37.2697 140.355 37.2183 140.261 37.1788C140.14 37.1244 139.99 37.0611 139.811 36.9891L139.392 36.8099C139.259 36.7463 139.134 36.6685 139.018 36.5781C138.904 36.4853 138.81 36.3706 138.741 36.2408C138.666 36.0941 138.629 35.9311 138.633 35.7665C138.629 35.6027 138.664 35.4402 138.734 35.292C138.804 35.1438 138.907 35.014 139.036 34.9128C139.347 34.6876 139.725 34.5751 140.109 34.594C140.341 34.5891 140.573 34.613 140.799 34.6651C140.934 34.6955 141.066 34.7378 141.194 34.7916L141.292 34.839L141.11 35.5268L140.965 35.4582C140.87 35.4137 140.773 35.3758 140.673 35.3449C140.482 35.2929 140.285 35.2707 140.088 35.2791C139.991 35.2786 139.895 35.2892 139.8 35.3107C139.724 35.3267 139.651 35.3562 139.584 35.3976C139.528 35.4304 139.48 35.4765 139.445 35.532C139.409 35.5887 139.392 35.6549 139.395 35.7217C139.392 35.792 139.408 35.8618 139.439 35.9246C139.475 35.9862 139.522 36.04 139.579 36.0827C139.663 36.1362 139.751 36.1829 139.843 36.2224L140.232 36.3831C140.385 36.4411 140.53 36.5043 140.67 36.5702C140.814 36.6291 140.948 36.71 141.068 36.8099C141.187 36.9047 141.284 37.0231 141.355 37.1578C141.431 37.3179 141.465 37.4946 141.455 37.6716Z" fill="black"/>
</svg>
