<svg width="180" height="44" viewBox="0 0 180 44" fill="none" xmlns="http://www.w3.org/2000/svg">
<path d="M12.9089 0.17061L0.163691 12.9158C0.0853915 12.9949 0.0321575 13.0953 0.0106567 13.2044C-0.010844 13.3136 0.000344329 13.4267 0.0428204 13.5295C0.0852965 13.6324 0.157172 13.7204 0.249444 13.7826C0.341715 13.8447 0.450281 13.8783 0.561543 13.879H13.2998C13.4494 13.8781 13.5927 13.8183 13.6985 13.7124C13.8044 13.6066 13.8642 13.4633 13.8651 13.3137V0.568461C13.8631 0.458607 13.8291 0.35173 13.7673 0.260899C13.7054 0.170067 13.6185 0.0992163 13.5171 0.05701C13.4156 0.0148037 13.3041 0.00307068 13.1961 0.0232455C13.0881 0.0434204 12.9883 0.0946288 12.9089 0.17061Z" fill="#2461FF"/>
<path d="M12.9089 14.8351L0.163691 27.5734C0.0853915 27.6524 0.0321575 27.7528 0.0106567 27.862C-0.010844 27.9711 0.000344329 28.0842 0.0428204 28.1871C0.0852965 28.2899 0.157172 28.3779 0.249444 28.4401C0.341715 28.5023 0.450281 28.5358 0.561543 28.5366H13.2998C13.374 28.5366 13.4475 28.522 13.5161 28.4935C13.5847 28.4651 13.6471 28.4235 13.6996 28.371C13.7521 28.3185 13.7937 28.2562 13.8221 28.1876C13.8505 28.119 13.8651 28.0455 13.8651 27.9712V15.233C13.8631 15.1231 13.8291 15.0162 13.7673 14.9254C13.7054 14.8346 13.6185 14.7637 13.5171 14.7215C13.4156 14.6793 13.3041 14.6676 13.1961 14.6878C13.0881 14.7079 12.9883 14.7591 12.9089 14.8351Z" fill="#2461FF"/>
<path d="M12.9089 29.5L0.163691 42.2312C0.0853915 42.3103 0.0321575 42.4107 0.0106567 42.5198C-0.010844 42.629 0.000344329 42.7421 0.0428204 42.8449C0.0852965 42.9478 0.157172 43.0358 0.249444 43.098C0.341715 43.1601 0.450281 43.1937 0.561543 43.1945H13.2998C13.4494 43.1935 13.5927 43.1337 13.6985 43.0278C13.8044 42.922 13.8642 42.7787 13.8651 42.6291V29.8978C13.8631 29.788 13.8291 29.6811 13.7673 29.5903C13.7054 29.4994 13.6185 29.4286 13.5171 29.3864C13.4156 29.3442 13.3041 29.3324 13.1961 29.3526C13.0881 29.3728 12.9883 29.424 12.9089 29.5Z" fill="#2461FF"/>
<path d="M27.5668 0.170507L14.8285 12.9157C14.7502 12.9948 14.697 13.0952 14.6755 13.2043C14.654 13.3135 14.6652 13.4266 14.7077 13.5294C14.7502 13.6323 14.822 13.7203 14.9143 13.7825C15.0066 13.8446 15.1151 13.8782 15.2264 13.8789H27.9646C28.0389 13.8789 28.1124 13.8643 28.181 13.8359C28.2496 13.8075 28.3119 13.7659 28.3644 13.7134C28.4169 13.6609 28.4586 13.5985 28.487 13.5299C28.5154 13.4613 28.53 13.3878 28.53 13.3136V0.568359C28.5292 0.457098 28.4957 0.348532 28.4335 0.25626C28.3713 0.163988 28.2833 0.0921128 28.1805 0.0496367C28.0776 0.0071606 27.9646 -0.00402778 27.8554 0.017473C27.7462 0.0389738 27.6458 0.0922077 27.5668 0.170507Z" fill="#2461FF"/>
<path d="M27.5668 14.8354L14.8285 27.5736C14.7502 27.6526 14.697 27.753 14.6755 27.8622C14.654 27.9714 14.6652 28.0845 14.7077 28.1873C14.7502 28.2901 14.822 28.3782 14.9143 28.4403C15.0066 28.5025 15.1151 28.5361 15.2264 28.5368H27.9646C28.039 28.5373 28.1127 28.523 28.1815 28.4947C28.2503 28.4665 28.3128 28.4248 28.3654 28.3723C28.418 28.3197 28.4597 28.2572 28.4879 28.1884C28.5162 28.1195 28.5305 28.0458 28.53 27.9714V15.2332C28.5292 15.122 28.4957 15.0134 28.4335 14.9211C28.3713 14.8288 28.2833 14.757 28.1805 14.7145C28.0776 14.672 27.9646 14.6608 27.8554 14.6823C27.7462 14.7038 27.6458 14.7571 27.5668 14.8354Z" fill="#2461FF"/>
<path d="M27.5668 29.4999L14.8285 42.2311C14.7502 42.3102 14.697 42.4106 14.6755 42.5197C14.654 42.6289 14.6652 42.742 14.7077 42.8448C14.7502 42.9477 14.822 43.0357 14.9143 43.0979C15.0066 43.16 15.1151 43.1936 15.2264 43.1944H27.9646C28.0389 43.1944 28.1124 43.1797 28.181 43.1513C28.2496 43.1229 28.3119 43.0813 28.3644 43.0288C28.4169 42.9763 28.4586 42.9139 28.487 42.8453C28.5154 42.7767 28.53 42.7032 28.53 42.629V29.8977C28.5292 29.7865 28.4957 29.6779 28.4335 29.5856C28.3713 29.4934 28.2833 29.4215 28.1805 29.379C28.0776 29.3365 27.9646 29.3253 27.8554 29.3468C27.7462 29.3683 27.6458 29.4216 27.5668 29.4999Z" fill="#2461FF"/>
<path d="M42.2243 0.170723L29.4931 12.9159C29.4148 12.995 29.3615 13.0954 29.34 13.2045C29.3185 13.3137 29.3297 13.4268 29.3722 13.5296C29.4147 13.6325 29.4865 13.7205 29.5788 13.7827C29.6711 13.8448 29.7796 13.8784 29.8909 13.8792H42.6291C42.7791 13.8792 42.9229 13.8196 43.0289 13.7136C43.1349 13.6075 43.1945 13.4637 43.1945 13.3138V0.568574C43.1951 0.45587 43.1621 0.345546 43.0996 0.251768C43.0371 0.157989 42.9479 0.0850356 42.8437 0.0422737C42.7394 -0.000488333 42.6247 -0.0111072 42.5143 0.0117805C42.404 0.0346681 42.303 0.0900175 42.2243 0.170723Z" fill="#2461FF"/>
<path d="M42.2243 14.8352L29.4931 27.5735C29.4148 27.6525 29.3615 27.7529 29.34 27.8621C29.3185 27.9713 29.3297 28.0843 29.3722 28.1872C29.4147 28.29 29.4865 28.378 29.5788 28.4402C29.6711 28.5024 29.7796 28.5359 29.8909 28.5367H42.6291C42.7035 28.5372 42.7772 28.5228 42.846 28.4946C42.9148 28.4664 42.9774 28.4247 43.0299 28.3721C43.0825 28.3195 43.1242 28.257 43.1524 28.1882C43.1807 28.1194 43.195 28.0457 43.1945 27.9713V15.2331C43.1951 15.1204 43.1621 15.0101 43.0996 14.9163C43.0371 14.8225 42.9479 14.7495 42.8437 14.7068C42.7394 14.664 42.6247 14.6534 42.5143 14.6763C42.404 14.6992 42.303 14.7545 42.2243 14.8352Z" fill="#2461FF"/>
<path d="M56.5051 6.71061C59.5902 6.71061 61.9493 7.27482 63.5826 8.40323C65.2159 9.53164 66.0442 11.2975 66.0675 13.7009C66.0963 14.8162 65.8645 15.9227 65.3904 16.9326C64.9611 17.8163 64.3062 18.5711 63.4919 19.1208C62.5536 19.7137 61.5153 20.1311 60.4277 20.3527C59.0675 20.6335 57.681 20.7669 56.2922 20.7506H54.3622V28.2714H50.5024V7.2341C51.4795 7.01787 52.4729 6.88363 53.4723 6.83276C54.5821 6.75366 55.593 6.71294 56.5051 6.71061ZM56.7808 10.0679C55.8036 10.0679 54.9939 10.0958 54.3622 10.1587V17.4247H56.2294C58.0907 17.4247 59.5204 17.1688 60.5185 16.6569C61.5166 16.1451 62.018 15.1493 62.0226 13.6695C62.0417 13.0634 61.9047 12.4625 61.6248 11.9246C61.3632 11.4631 60.9807 11.0818 60.5185 10.8217C59.9953 10.5381 59.4256 10.3502 58.8363 10.2668C58.159 10.1355 57.4707 10.0689 56.7808 10.0679Z" fill="black"/>
<path d="M73.309 25.6471C74.1808 25.6698 75.0527 25.6079 75.9125 25.4622V21.3371C75.6224 21.2567 75.3275 21.1949 75.0296 21.1521C74.6034 21.0877 74.1728 21.0573 73.7418 21.0614C73.3214 21.0611 72.9015 21.0914 72.4854 21.1521C72.0925 21.2131 71.7104 21.3306 71.3512 21.5011C71.03 21.661 70.7558 21.9015 70.5555 22.1991C70.3396 22.5278 70.2322 22.916 70.2484 23.3089C70.2484 24.193 70.5241 24.8084 71.0755 25.1551C71.763 25.5147 72.534 25.6845 73.309 25.6471ZM73.0019 11.7607C74.0525 11.7321 75.1 11.8868 76.0975 12.2179C76.8595 12.4763 77.5446 12.9214 78.0902 13.5127C78.6124 14.0889 78.9808 14.7875 79.1616 15.5438C79.3977 16.3854 79.5152 17.2558 79.5106 18.1298V27.9016C78.9383 28.0273 78.0693 28.1715 76.9037 28.3344C75.6159 28.5294 74.3147 28.6216 73.0124 28.6101C72.1265 28.6184 71.2425 28.5259 70.3775 28.3344C69.6409 28.1759 68.9433 27.8722 68.3254 27.441C67.7616 27.0174 67.308 26.4644 67.0027 25.8286C66.6719 25.0579 66.5147 24.2239 66.5421 23.3857C66.5165 22.575 66.6953 21.7709 67.0621 21.0474C67.4199 20.4209 67.9255 19.8913 68.5348 19.5049C69.176 19.0831 69.8931 18.7904 70.6462 18.6429C71.4814 18.4567 72.3347 18.3643 73.1904 18.3672C73.6212 18.3693 74.0513 18.3996 74.4782 18.4579C74.9627 18.5063 75.4432 18.5891 75.916 18.7057V18.1019C75.9186 17.6877 75.8682 17.2749 75.7659 16.8735C75.6682 16.4938 75.4789 16.1439 75.2145 15.8544C74.9455 15.5356 74.596 15.2946 74.2025 15.1564C73.7013 14.9775 73.1708 14.8946 72.639 14.9121C71.8487 14.9055 71.0594 14.9674 70.2798 15.0971C69.6866 15.1884 69.1027 15.3321 68.5348 15.5264L68.0741 12.5111C68.7453 12.2964 69.4311 12.1308 70.1262 12.0155C71.0752 11.8444 72.0376 11.7591 73.0019 11.7607Z" fill="black"/>
<path d="M82.8122 12.6856C83.7307 12.4363 84.6629 12.2406 85.6041 12.0993C86.8615 11.9053 88.1324 11.8119 89.4046 11.8201C90.5229 11.7867 91.6367 11.9753 92.6817 12.375C93.5047 12.6778 94.229 13.2004 94.7756 13.8862C95.3274 14.5646 95.7059 15.3671 95.8784 16.2244C96.1169 17.2021 96.2341 18.2055 96.2274 19.2118V28.2716H92.4967V19.7981C92.5075 19.0644 92.4456 18.3314 92.3117 17.6099C92.2429 17.0822 92.0543 16.5773 91.7603 16.1337C91.5171 15.7447 91.1474 15.4514 90.7133 15.3031C90.2072 15.1034 89.6658 15.0084 89.1219 15.0239C88.6296 15.0253 88.1377 15.0568 87.6492 15.1181C87.1397 15.1774 86.7628 15.2298 86.5185 15.2717V28.2716H82.8122V12.6856Z" fill="black"/>
<path d="M114.002 20.1957C114.017 21.3818 113.83 22.5618 113.45 23.6856C113.116 24.6746 112.584 25.5853 111.887 26.3624C111.207 27.1076 110.374 27.6959 109.444 28.0864C107.442 28.9099 105.196 28.9099 103.194 28.0864C102.274 27.6909 101.449 27.1031 100.775 26.3624C100.074 25.5829 99.5318 24.6735 99.1801 23.6856C98.8003 22.5618 98.6139 21.3818 98.6287 20.1957C98.6116 19.0259 98.7958 17.8619 99.1731 16.7546C99.5243 15.7665 100.066 14.857 100.768 14.0778C101.452 13.3447 102.285 12.7664 103.211 12.3817C105.192 11.5629 107.417 11.5629 109.399 12.3817C110.33 12.7571 111.164 13.3367 111.842 14.0778C112.544 14.8533 113.081 15.7642 113.419 16.7546C113.82 17.857 114.017 19.0229 114.002 20.1957ZM110.201 20.1957C110.201 18.5973 109.852 17.3351 109.154 16.4091C108.836 15.9562 108.409 15.5906 107.913 15.3461C107.416 15.1015 106.866 14.9858 106.314 15.0096C105.755 14.986 105.199 15.1011 104.696 15.3447C104.193 15.5883 103.759 15.9528 103.431 16.4056C102.758 17.3363 102.422 18.5984 102.422 20.1922C102.422 21.7859 102.758 23.0655 103.431 24.0311C103.752 24.494 104.184 24.869 104.688 25.122C105.191 25.375 105.75 25.4979 106.314 25.4794C106.869 25.5032 107.422 25.3856 107.92 25.1379C108.418 24.8901 108.845 24.5201 109.161 24.0625C109.857 23.1086 110.204 21.8196 110.201 20.1957Z" fill="black"/>
<path d="M125.724 15.5156C125.303 15.3848 124.874 15.2822 124.44 15.2085C123.825 15.0772 123.198 15.0152 122.569 15.0236C122.128 15.0271 121.688 15.068 121.254 15.1457C120.933 15.1995 120.616 15.2717 120.304 15.3621V28.2713H116.595V12.9156C117.465 12.6065 118.356 12.3593 119.261 12.1758C120.438 11.9253 121.639 11.8059 122.842 11.8198C123.129 11.8229 123.415 11.8438 123.7 11.8826C124.029 11.9044 124.356 11.9452 124.681 12.0048C125.001 12.0459 125.318 12.1077 125.63 12.1897C125.879 12.2384 126.124 12.3001 126.366 12.3747L125.724 15.5156Z" fill="black"/>
<path d="M133.364 25.6471C134.236 25.6698 135.107 25.6079 135.967 25.4622V21.3371C135.676 21.2566 135.38 21.1948 135.081 21.1521C134.655 21.0877 134.224 21.0573 133.793 21.0614C133.373 21.0611 132.953 21.0914 132.537 21.1521C132.144 21.2131 131.762 21.3306 131.402 21.5011C131.081 21.661 130.807 21.9015 130.607 22.1991C130.391 22.5278 130.284 22.916 130.3 23.3089C130.3 24.193 130.575 24.8084 131.127 25.1551C131.815 25.5153 132.588 25.6851 133.364 25.6471ZM133.057 11.7607C134.107 11.7321 135.155 11.8868 136.152 12.2179C136.914 12.4763 137.599 12.9214 138.145 13.5127C138.666 14.0899 139.034 14.7881 139.216 15.5438C139.453 16.3854 139.57 17.2558 139.565 18.1298V27.9016C138.993 28.0273 138.124 28.1715 136.958 28.3344C135.671 28.5294 134.37 28.6216 133.067 28.6101C132.181 28.6184 131.297 28.5259 130.432 28.3344C129.696 28.1759 128.998 27.8722 128.38 27.441C127.815 27.0178 127.36 26.4647 127.054 25.8286C126.723 25.0579 126.566 24.2239 126.593 23.3857C126.568 22.575 126.747 21.7709 127.113 21.0474C127.471 20.4209 127.977 19.8913 128.586 19.5049C129.227 19.0831 129.944 18.7904 130.698 18.6429C131.533 18.4567 132.386 18.3643 133.242 18.3672C133.672 18.3693 134.103 18.3996 134.529 18.4579C135.014 18.5063 135.494 18.5891 135.967 18.7057V18.1019C135.97 17.6877 135.919 17.2749 135.817 16.8735C135.72 16.4938 135.53 16.1439 135.266 15.8544C134.997 15.5356 134.647 15.2946 134.254 15.1564C133.753 14.9778 133.222 14.8949 132.69 14.9121C131.9 14.9055 131.111 14.9674 130.331 15.0971C129.738 15.1884 129.154 15.3321 128.586 15.5264L128.125 12.5111C128.794 12.2932 129.478 12.1241 130.171 12.005C131.123 11.8368 132.089 11.755 133.057 11.7607Z" fill="black"/>
<path d="M151.997 19.798C151.997 18.1135 151.782 16.9025 151.354 16.1649C150.926 15.4274 150.147 15.0423 149.016 15.0098C148.566 15.0126 148.116 15.0441 147.669 15.104C147.177 15.1633 146.81 15.2157 146.566 15.2576V28.2715H142.867V12.6855C143.785 12.4362 144.718 12.2404 145.659 12.0992C146.876 11.9096 148.106 11.8163 149.337 11.82C150.255 11.7898 151.169 11.9367 152.031 12.2527C152.695 12.5059 153.3 12.8932 153.808 13.3904C154.082 13.1973 154.369 13.0224 154.666 12.867C155.041 12.6725 155.431 12.508 155.832 12.3749C156.27 12.2079 156.72 12.0749 157.179 11.977C157.662 11.8733 158.154 11.8206 158.648 11.82C159.698 11.7824 160.743 11.9717 161.712 12.3749C162.48 12.6834 163.141 13.2084 163.614 13.886C164.107 14.5817 164.432 15.382 164.564 16.2243C164.756 17.2083 164.848 18.2091 164.839 19.2116V28.2715H161.13V19.798C161.13 18.1135 160.925 16.9025 160.515 16.1649C160.106 15.4274 159.32 15.0423 158.156 15.0098C157.58 15.0078 157.009 15.1119 156.471 15.3169C156.05 15.4494 155.649 15.6359 155.277 15.8718C155.45 16.4027 155.567 16.95 155.626 17.5051C155.691 18.1183 155.722 18.7346 155.72 19.3512V28.2715H151.997V19.798Z" fill="black"/>
<path d="M173.795 25.6472C174.668 25.6697 175.541 25.6077 176.402 25.4622V21.3371C176.109 21.257 175.812 21.1953 175.512 21.1521C175.086 21.0877 174.655 21.0573 174.224 21.0614C173.803 21.0611 173.384 21.0914 172.968 21.1521C172.576 21.2126 172.195 21.3302 171.837 21.5011C171.514 21.6599 171.238 21.9005 171.038 22.1991C170.822 22.5279 170.714 22.916 170.73 23.3089C170.73 24.193 171.007 24.8084 171.561 25.1551C172.248 25.5153 173.02 25.6852 173.795 25.6472ZM173.491 11.7608C174.542 11.732 175.589 11.8867 176.587 12.2179C177.349 12.4763 178.034 12.9214 178.579 13.5127C179.101 14.089 179.47 14.7875 179.651 15.5438C179.889 16.385 180.006 17.2557 180 18.1299V27.9017C179.427 28.0273 178.56 28.1716 177.396 28.3344C176.109 28.5292 174.807 28.6214 173.505 28.6101C172.619 28.6187 171.735 28.5262 170.87 28.3344C170.132 28.1767 169.433 27.8729 168.815 27.441C168.247 27.018 167.788 26.4652 167.478 25.8287C167.147 25.058 166.99 24.2239 167.017 23.3857C166.992 22.575 167.17 21.7709 167.537 21.0475C167.895 20.4209 168.401 19.8913 169.01 19.5049C169.652 19.0825 170.37 18.7897 171.125 18.6429C171.959 18.4567 172.811 18.3642 173.666 18.3672C174.096 18.3693 174.526 18.3996 174.953 18.4579C175.439 18.5066 175.921 18.5894 176.395 18.7057V18.102C176.396 17.6876 176.345 17.2748 176.241 16.8735C176.143 16.4938 175.954 16.1439 175.69 15.8544C175.421 15.5357 175.071 15.2947 174.678 15.1565C174.176 14.9776 173.646 14.8947 173.114 14.9122C172.324 14.9056 171.535 14.9675 170.755 15.0971C170.162 15.1889 169.578 15.3325 169.01 15.5264L168.56 12.5006C169.231 12.286 169.917 12.1204 170.612 12.005C171.56 11.8378 172.521 11.756 173.484 11.7608H173.491Z" fill="black"/>
<path d="M57.8733 41.3413H56.8263V41.1737C56.7844 40.1268 56.7391 39.1147 56.6867 38.1759C56.6483 37.443 56.6029 36.7485 56.5436 36.0994C56.4354 36.3088 56.3133 36.5531 56.1772 36.8253C56.0411 37.0975 55.877 37.4325 55.7165 37.7711L55.2489 38.7482L54.8266 39.6172C54.7114 39.879 54.6172 40.0919 54.5509 40.2559L54.509 40.3641H53.6644L53.6191 40.2559C53.5527 40.0954 53.4585 39.8825 53.3329 39.6172C53.2072 39.352 53.0746 39.0623 52.9246 38.7482L52.4534 37.7711C52.2929 37.4221 52.1393 37.1185 51.9928 36.8253C51.8462 36.5321 51.7345 36.3088 51.6263 36.0994C51.567 36.745 51.5146 37.443 51.4762 38.1759C51.4274 39.1252 51.3855 40.1233 51.3436 41.1737V41.3413H50.3211V41.1563C50.3804 39.9313 50.4467 38.7413 50.52 37.6175C50.5933 36.4938 50.698 35.3979 50.8097 34.3719V34.2183H51.6647L51.7136 34.3021C51.916 34.6266 52.1323 35.0001 52.3592 35.4468C52.586 35.8935 52.8129 36.3158 53.0327 36.7799C53.2526 37.2441 53.476 37.6908 53.6854 38.141C53.8285 38.4446 53.9646 38.7273 54.0867 38.9925C54.2054 38.7273 54.3345 38.4446 54.4776 38.141C54.6905 37.6908 54.9068 37.2371 55.1302 36.7799C55.3535 36.3227 55.5874 35.8621 55.8107 35.4433C56.0341 35.0245 56.2574 34.6266 56.4564 34.3021L56.5331 34.2044H57.3568V34.3579C57.4684 35.4049 57.5627 36.4798 57.636 37.6035C57.7093 38.7273 57.786 39.9104 57.8454 41.1423L57.8733 41.3413Z" fill="black"/>
<path d="M62.3787 37.0694C62.3126 36.8296 62.1934 36.6077 62.0297 36.4203C61.8555 36.2211 61.6332 36.0697 61.384 35.9806C61.089 35.8678 60.775 35.8133 60.4592 35.82C60.1598 35.816 59.8606 35.8405 59.5658 35.8933C59.3735 35.9259 59.1852 35.9785 59.0039 36.0504L58.8853 36.1062L59.0318 37.0066L59.2308 36.9298C59.3145 36.8984 59.4471 36.86 59.6251 36.8077C59.889 36.7527 60.1584 36.7293 60.4278 36.7379C60.6222 36.7285 60.816 36.7656 60.9932 36.8461C61.1218 36.9031 61.231 36.9965 61.3073 37.1148C61.3858 37.2258 61.4372 37.3537 61.4573 37.4882C61.4816 37.6476 61.4933 37.8086 61.4922 37.9698V38.0431C61.4364 38.0431 61.3701 38.0187 61.3038 38.0082C61.2001 37.9872 61.0952 37.9732 60.9897 37.9663C60.5826 37.9181 60.1701 37.9429 59.7717 38.0396C59.5056 38.0941 59.2523 38.1983 59.0249 38.3467C58.8126 38.4818 58.6375 38.6678 58.5153 38.8877C58.3905 39.1315 58.3281 39.4025 58.3339 39.6764C58.3268 39.956 58.3816 40.2336 58.4944 40.4896C58.6036 40.7043 58.7584 40.8925 58.9481 41.041C59.1462 41.181 59.3687 41.2828 59.6042 41.3411C59.8668 41.4056 60.1364 41.4373 60.4069 41.4353C60.6178 41.4358 60.8287 41.4254 61.0385 41.4039C61.2514 41.4039 61.4469 41.369 61.6144 41.3446L62.0646 41.2748C62.1972 41.2469 62.2984 41.2224 62.3682 41.2015L62.4938 41.1631V37.8477C62.4912 37.5842 62.4525 37.3224 62.3787 37.0694ZM60.6512 38.8563C60.8608 38.852 61.0703 38.8707 61.2759 38.9121C61.3666 38.933 61.4364 38.947 61.4853 38.9645V40.4861L61.1607 40.528C60.9757 40.528 60.7593 40.528 60.5116 40.528C60.3373 40.5299 60.1633 40.5159 59.9916 40.4861C59.8674 40.455 59.7494 40.4031 59.6426 40.3325C59.5524 40.2715 59.4792 40.1886 59.4297 40.0917C59.3765 39.9636 59.3515 39.8255 59.3564 39.6869C59.3472 39.5393 59.3851 39.3927 59.4646 39.2681C59.5411 39.1605 59.6446 39.0751 59.7647 39.0203C59.8954 38.9493 60.039 38.9054 60.187 38.8912C60.3407 38.8687 60.4958 38.8571 60.6512 38.8563Z" fill="black"/>
<path d="M67.7742 38.3401V41.3414H66.7726V38.5495C66.7774 38.2569 66.7528 37.9646 66.6993 37.677C66.6695 37.483 66.5941 37.2988 66.4794 37.1395C66.3858 37.0112 66.2538 36.9159 66.1025 36.8673C65.8927 36.7954 65.6716 36.7623 65.4499 36.7696C65.1908 36.7675 64.9319 36.7838 64.6751 36.8185C64.5425 36.8185 64.4518 36.8534 64.3924 36.8638V41.3449H63.3943V36.1554L63.5235 36.1205C63.7189 36.0681 63.9876 36.0053 64.3157 35.9425C64.7219 35.8679 65.1346 35.834 65.5476 35.8413C65.9049 35.8315 66.2606 35.892 66.5946 36.0193C66.8723 36.1308 67.1138 36.3168 67.2926 36.5567C67.4727 36.7917 67.599 37.0633 67.6625 37.3524C67.7371 37.6763 67.7746 38.0077 67.7742 38.3401Z" fill="black"/>
<path d="M72.3601 37.0695C72.2926 36.8302 72.1735 36.6086 72.0111 36.4204C71.8368 36.2212 71.6146 36.0698 71.3654 35.9806C71.0693 35.8674 70.754 35.8129 70.4371 35.8201C70.1377 35.8164 69.8385 35.8409 69.5437 35.8934C69.3527 35.9265 69.1656 35.9791 68.9853 36.0504L68.8666 36.1063L69.0097 37.0067L69.2087 36.9299C69.2924 36.8985 69.425 36.8601 69.6065 36.8078C69.8704 36.7528 70.1398 36.7294 70.4092 36.738C70.6035 36.729 70.7972 36.7661 70.9746 36.8461C71.1027 36.9025 71.2109 36.9962 71.2852 37.1149C71.366 37.2247 71.4176 37.3531 71.4352 37.4883C71.4606 37.6476 71.4734 37.8086 71.4736 37.9699V38.0432L71.2852 38.0083C71.1815 37.9873 71.0766 37.9733 70.9711 37.9664C70.5639 37.9181 70.1515 37.9429 69.7531 38.0397C69.4868 38.0935 69.2333 38.1977 69.0062 38.3468C68.7924 38.48 68.6169 38.6664 68.4967 38.8878C68.3703 39.131 68.3078 39.4024 68.3152 39.6765C68.3089 39.9556 68.3624 40.2329 68.4723 40.4896C68.5815 40.7043 68.7363 40.8925 68.926 41.041C69.1253 41.1811 69.349 41.2829 69.5856 41.3412C69.8482 41.4057 70.1178 41.4373 70.3882 41.4354C70.5992 41.4358 70.8101 41.4253 71.0199 41.404C71.2328 41.404 71.4283 41.3691 71.5958 41.3447L72.0425 41.2749C72.1751 41.2469 72.2763 41.2225 72.3496 41.2016L72.4717 41.1632V37.8478C72.4703 37.5844 72.4327 37.3226 72.3601 37.0695ZM70.6325 38.8563C70.8422 38.8523 71.0517 38.871 71.2572 38.9122C71.348 38.9331 71.4178 38.9471 71.4666 38.9645V40.4861L71.1386 40.528C70.9571 40.528 70.7407 40.528 70.493 40.528C70.3185 40.5307 70.1443 40.5155 69.9729 40.4827C69.8488 40.4532 69.7307 40.4024 69.624 40.3326C69.5339 40.2724 69.4616 40.1893 69.4146 40.0918C69.3617 39.9636 69.3367 39.8256 69.3413 39.6869C69.3321 39.5394 69.37 39.3928 69.4495 39.2682C69.5246 39.1607 69.627 39.0752 69.7461 39.0204C69.8782 38.9499 70.0229 38.906 70.1719 38.8912C70.3244 38.8687 70.4784 38.8571 70.6325 38.8563Z" fill="black"/>
<path d="M77.6122 36.1202C77.4167 36.0608 77.169 36.0015 76.8758 35.9422C76.4852 35.8648 76.0873 35.8309 75.6892 35.841C75.3135 35.8356 74.9407 35.9068 74.5934 36.0504C74.2782 36.1769 73.9947 36.3711 73.7628 36.6192C73.534 36.8646 73.3582 37.1545 73.2463 37.4708C73.1238 37.8061 73.0623 38.1607 73.0648 38.5177C73.0549 38.9272 73.1236 39.3347 73.2672 39.7183C73.3887 40.025 73.5743 40.3023 73.8117 40.5314C74.0417 40.7443 74.3157 40.904 74.6143 40.9991C75.0859 41.1471 75.5857 41.1818 76.0731 41.1003C76.218 41.0705 76.3603 41.0297 76.4989 40.9781L76.7432 40.8769V40.9014C76.7658 41.0908 76.7462 41.2829 76.6858 41.4639C76.6255 41.6449 76.5259 41.8103 76.3942 41.9483C76.037 42.1882 75.6082 42.2979 75.1797 42.2589C74.9081 42.2576 74.6371 42.2319 74.37 42.1822C74.1606 42.1468 73.9558 42.0883 73.7593 42.0077L73.5674 41.9204L73.3545 42.8592L73.5045 42.9116C73.7326 42.9861 73.9659 43.0433 74.2025 43.0826C74.5133 43.1395 74.8289 43.1664 75.1448 43.1628C75.8259 43.2104 76.5029 43.0245 77.0643 42.6359C77.504 42.2869 77.7308 41.6971 77.7308 40.8909V36.1586L77.6122 36.1202ZM76.7327 36.8635V39.8963C76.5917 39.9881 76.4392 40.0609 76.279 40.1126C75.8697 40.2585 75.4241 40.2683 75.0087 40.1406C74.8382 40.0782 74.6833 39.9794 74.555 39.8509C74.4131 39.7024 74.3027 39.5267 74.2304 39.3344C74.069 38.8397 74.0629 38.3075 74.213 37.8093C74.2784 37.6039 74.3866 37.4148 74.5306 37.2544C74.6647 37.1023 74.8318 36.983 75.0192 36.9054C75.2342 36.814 75.4661 36.7688 75.6997 36.7728C75.9485 36.7664 76.1973 36.7827 76.4431 36.8216C76.5547 36.8286 76.649 36.8461 76.7327 36.8635Z" fill="black"/>
<path d="M82.4666 36.4831C82.2571 36.2619 82.0025 36.0883 81.7202 35.9739C81.4378 35.8595 81.1342 35.807 80.8298 35.8201C80.5198 35.8204 80.2129 35.8808 79.9259 35.998C79.6297 36.1173 79.3629 36.2994 79.1441 36.532C78.9079 36.7908 78.7221 37.0914 78.5962 37.4184C78.4562 37.8077 78.3888 38.2194 78.3973 38.6329C78.394 39.0102 78.4434 39.3861 78.5439 39.7497C78.6367 40.0811 78.8024 40.3876 79.029 40.6466C79.2638 40.9084 79.5566 41.1115 79.884 41.2399C80.275 41.3882 80.691 41.4593 81.109 41.4493C81.4281 41.455 81.7464 41.4162 82.0547 41.3341C82.2512 41.2876 82.4419 41.2197 82.6236 41.1317L82.7388 41.0689L82.5433 40.179L82.3444 40.2767C82.2063 40.3388 82.064 40.3913 81.9186 40.4337C81.6613 40.5007 81.3957 40.53 81.1299 40.521C80.8993 40.5427 80.6668 40.515 80.4477 40.4398C80.2287 40.3646 80.0282 40.2436 79.8596 40.0848C79.6042 39.7591 79.4588 39.3607 79.4443 38.947H83.0564L83.0773 38.797C83.0803 38.747 83.0803 38.6969 83.0773 38.6469C83.0808 38.5876 83.0808 38.5282 83.0773 38.4689C83.0843 37.586 82.8784 36.9159 82.4666 36.4831ZM80.8402 36.7379C81.0068 36.7273 81.1736 36.7555 81.3274 36.8203C81.4812 36.8851 81.6179 36.9847 81.7267 37.1113C81.9292 37.3875 82.0435 37.7183 82.0547 38.0606H79.4722C79.4928 37.925 79.5267 37.7917 79.5734 37.6627C79.6406 37.4892 79.7375 37.3286 79.8596 37.1881C79.9784 37.0462 80.1229 36.9278 80.2854 36.8391C80.4602 36.7634 80.65 36.7288 80.8402 36.7379Z" fill="black"/>
<path d="M91.1008 38.3399V41.3413H90.1027V38.5493C90.1047 38.2694 90.0884 37.9896 90.0538 37.7117C90.0403 37.5234 89.9868 37.3402 89.8968 37.1743C89.832 37.0448 89.7248 36.9414 89.5932 36.8811C89.4129 36.7986 89.2154 36.7603 89.0173 36.7695C88.8461 36.768 88.6752 36.7855 88.5078 36.8218C88.374 36.8485 88.2431 36.8883 88.1169 36.9405C88.0222 36.9801 87.9311 37.0279 87.8447 37.0835L87.7924 37.1184C87.8393 37.2793 87.872 37.444 87.8901 37.6105C87.9268 37.8413 87.9444 38.0748 87.9424 38.3085V41.3587H86.9443V38.5668C86.9467 38.288 86.9304 38.0093 86.8955 37.7327C86.8825 37.5432 86.8289 37.3587 86.7384 37.1917C86.667 37.061 86.554 36.9579 86.4174 36.8986C86.2287 36.8152 86.0231 36.7769 85.8171 36.7869C85.5593 36.7851 85.3016 36.8002 85.0458 36.8323C84.9202 36.8532 84.8399 36.8672 84.7841 36.8811V41.3622H83.7825V36.1552L83.9116 36.1203C84.107 36.068 84.3618 36.0087 84.6724 35.9423C85.0832 35.8662 85.5006 35.8323 85.9183 35.8411C86.1808 35.8231 86.4443 35.858 86.6931 35.9437C86.9419 36.0294 87.1709 36.1643 87.3666 36.3402L87.4364 36.2983C87.5602 36.217 87.691 36.1469 87.8273 36.0889C88.0014 36.0132 88.1826 35.9547 88.3682 35.9144C88.5974 35.864 88.8315 35.8394 89.0662 35.8411C89.4252 35.8248 89.7833 35.8904 90.1132 36.0331C90.3745 36.1468 90.5967 36.3349 90.7518 36.574C90.9054 36.8168 91.0064 37.089 91.0485 37.3732C91.0902 37.6937 91.1077 38.0168 91.1008 38.3399Z" fill="black"/>
<path d="M96.395 38.4689C96.395 37.586 96.1856 36.9159 95.7773 36.4831C95.5678 36.2619 95.3133 36.0883 95.0309 35.9739C94.7485 35.8595 94.4449 35.807 94.1405 35.8201C93.8305 35.8204 93.5236 35.8808 93.2366 35.998C92.9398 36.1181 92.6721 36.3001 92.4514 36.532C92.217 36.7916 92.0325 37.092 91.9069 37.4184C91.7656 37.8075 91.697 38.2191 91.7045 38.6329C91.7029 39.0101 91.7522 39.3858 91.8511 39.7497C91.9466 40.0807 92.1134 40.3869 92.3397 40.6466C92.5738 40.9092 92.8669 41.1125 93.1947 41.2399C93.5856 41.3886 94.0017 41.4597 94.4197 41.4493C94.7388 41.4548 95.057 41.416 95.3655 41.3341C95.5617 41.287 95.7524 41.2191 95.9343 41.1317L96.0495 41.0689L95.8506 40.179L95.6516 40.2767C95.5135 40.3388 95.3713 40.3913 95.2259 40.4337C94.9698 40.5009 94.7052 40.5303 94.4406 40.521C94.21 40.5427 93.9775 40.515 93.7584 40.4398C93.5394 40.3646 93.3389 40.2436 93.1703 40.0848C92.9149 39.7591 92.7695 39.3607 92.755 38.947H96.3496L96.3741 38.797C96.379 38.7471 96.379 38.6968 96.3741 38.6469C96.3862 38.5883 96.3933 38.5287 96.395 38.4689ZM92.7829 38.0606C92.8023 37.9251 92.835 37.7918 92.8806 37.6627C92.949 37.489 93.0471 37.3284 93.1703 37.1881C93.2891 37.0462 93.4336 36.9278 93.5961 36.8391C93.7693 36.757 93.9593 36.7164 94.151 36.7205C94.3171 36.7096 94.4834 36.7377 94.6367 36.8025C94.79 36.8674 94.926 36.9671 95.0339 37.0939C95.239 37.3689 95.3548 37.7002 95.3655 38.0431L92.7829 38.0606Z" fill="black"/>
<path d="M101.473 38.3401V41.3414H100.475V38.5495C100.478 38.2568 100.452 37.9645 100.398 37.677C100.368 37.483 100.293 37.2988 100.178 37.1395C100.084 37.0112 99.9524 36.9159 99.8011 36.8673C99.5913 36.7956 99.3701 36.7625 99.1485 36.7696C98.8894 36.7675 98.6305 36.7838 98.3737 36.8185C98.2411 36.8185 98.1504 36.8534 98.091 36.8638V41.3449H97.0929V36.1554L97.222 36.1205C97.4175 36.0681 97.6862 36.0053 98.0143 35.9425C98.4205 35.8679 98.8332 35.834 99.2462 35.8413C99.6035 35.8315 99.9592 35.892 100.293 36.0193C100.571 36.1308 100.812 36.3168 100.991 36.5567C101.171 36.7917 101.298 37.0633 101.361 37.3524C101.436 37.6763 101.473 38.0077 101.473 38.3401Z" fill="black"/>
<path d="M105.657 41.0377L105.542 41.1075C105.133 41.337 104.671 41.4572 104.202 41.4565C103.907 41.4624 103.613 41.4188 103.333 41.3274C103.1 41.24 102.894 41.0932 102.736 40.9016C102.584 40.6941 102.479 40.4559 102.429 40.2036C102.369 39.9014 102.341 39.5938 102.345 39.2858V34.4802L103.343 34.3022V35.9494H105.392V36.8359H103.329V39.3486C103.325 39.5703 103.347 39.7917 103.396 40.0082C103.424 40.1378 103.486 40.2579 103.574 40.3572C103.642 40.4302 103.731 40.4812 103.828 40.5038C103.959 40.5329 104.093 40.547 104.226 40.5457C104.429 40.5531 104.632 40.5271 104.827 40.4689C104.947 40.4225 105.063 40.3677 105.176 40.3048L105.368 40.2001L105.657 41.0377Z" fill="black"/>
<path d="M113.513 41.1039C113.241 40.4059 112.986 39.7428 112.756 39.139C112.525 38.5353 112.288 37.942 112.058 37.3941C111.827 36.8461 111.611 36.3122 111.395 35.8166C111.178 35.3211 110.937 34.8045 110.697 34.3055L110.648 34.2078H109.831L109.782 34.3055C109.535 34.808 109.297 35.3176 109.084 35.8166C108.871 36.3157 108.641 36.8461 108.414 37.3941C108.187 37.942 107.968 38.5143 107.734 39.139C107.5 39.7637 107.249 40.3989 106.983 41.1039L106.893 41.3412H107.978L108.02 41.226C108.139 40.877 108.257 40.5734 108.369 40.2698C108.481 39.9661 108.568 39.7393 108.666 39.4845H111.806C111.901 39.7393 111.998 40.001 112.096 40.2698C112.194 40.5385 112.33 40.8945 112.445 41.2295L112.487 41.3412H113.614L113.513 41.1039ZM109.004 38.5667C109.227 37.9874 109.44 37.4394 109.643 36.9334C109.831 36.4797 110.023 36.026 110.222 35.5828C110.421 36.0295 110.613 36.4832 110.801 36.9334C111.011 37.4429 111.231 37.9804 111.451 38.5667H109.004Z" fill="black"/>
<path d="M117.192 33.5519V36.117C117.104 36.0751 117 36.0332 116.881 35.9878C116.579 35.8772 116.26 35.8239 115.939 35.8308C115.571 35.8246 115.206 35.896 114.867 36.0402C114.564 36.1784 114.293 36.3808 114.075 36.6335C113.853 36.8994 113.686 37.2066 113.583 37.5374C113.474 37.8959 113.42 38.2689 113.423 38.6437C113.418 39.0416 113.483 39.4372 113.614 39.8128C113.74 40.1432 113.93 40.4455 114.173 40.7027C114.419 40.9485 114.712 41.142 115.035 41.2716C115.389 41.3973 115.762 41.4599 116.138 41.4566C116.531 41.4643 116.923 41.4339 117.31 41.3658C117.569 41.3198 117.825 41.2556 118.075 41.1739L118.193 41.1355V33.3704L117.192 33.5519ZM116.145 40.5317C115.919 40.5433 115.693 40.5073 115.482 40.4261C115.271 40.345 115.08 40.2204 114.92 40.0606C114.59 39.6649 114.425 39.1576 114.459 38.6437C114.458 38.3911 114.486 38.1393 114.543 37.8933C114.591 37.6788 114.681 37.476 114.808 37.2966C114.926 37.1308 115.081 36.9956 115.262 36.9022C115.491 36.7973 115.742 36.7472 115.995 36.7556C116.132 36.7565 116.269 36.7717 116.403 36.801C116.522 36.8253 116.638 36.8592 116.752 36.9022C116.851 36.9392 116.947 36.9847 117.038 37.0383C117.086 37.0631 117.133 37.0911 117.178 37.1221V40.4375C117.097 40.4375 116.996 40.4759 116.881 40.4933C116.638 40.5229 116.393 40.5357 116.148 40.5317H116.145Z" fill="black"/>
<path d="M123.302 35.9493L123.246 36.1657C123.124 36.6299 122.988 37.094 122.842 37.5617C122.695 38.0293 122.535 38.4621 122.371 38.8913C122.206 39.3206 122.022 39.7429 121.858 40.1407C121.693 40.5386 121.509 40.9155 121.344 41.268L121.296 41.3692H120.458L120.409 41.2715C120.238 40.9225 120.06 40.5421 119.886 40.1407C119.711 39.7394 119.537 39.3241 119.376 38.8913C119.216 38.4586 119.059 38.0119 118.912 37.5617C118.765 37.1115 118.629 36.6473 118.507 36.1657L118.451 35.9493H119.498L119.53 36.0854C119.607 36.4344 119.704 36.7834 119.819 37.1882C119.935 37.5931 120.064 37.963 120.196 38.3539C120.329 38.7448 120.476 39.1042 120.622 39.4707C120.713 39.6905 120.804 39.8964 120.891 40.0884C120.978 39.8964 121.069 39.687 121.16 39.4672C121.306 39.1182 121.446 38.7273 121.575 38.3539C121.704 37.9805 121.84 37.5756 121.952 37.1882C122.063 36.8009 122.172 36.4205 122.248 36.0854L122.28 35.9493H123.302Z" fill="black"/>
<path d="M124.716 34.5883C124.719 34.678 124.703 34.7674 124.67 34.8508C124.637 34.9343 124.587 35.0101 124.524 35.0734C124.397 35.1897 124.231 35.2534 124.06 35.2514C123.891 35.2536 123.727 35.1912 123.602 35.0769C123.537 35.0137 123.486 34.9376 123.453 34.8534C123.419 34.7692 123.403 34.6789 123.407 34.5883C123.403 34.4987 123.419 34.4093 123.452 34.3262C123.486 34.2431 123.537 34.1682 123.602 34.1067C123.727 33.9888 123.892 33.9232 124.063 33.9232C124.234 33.9232 124.399 33.9888 124.524 34.1067C124.589 34.1684 124.639 34.2434 124.672 34.3265C124.706 34.4096 124.72 34.4989 124.716 34.5883Z" fill="black"/>
<path d="M124.566 35.9388H123.568V41.3412H124.566V35.9388Z" fill="black"/>
<path d="M128.907 39.8964C128.918 40.1289 128.867 40.3601 128.761 40.5671C128.654 40.774 128.495 40.9495 128.3 41.076C127.841 41.3523 127.31 41.4848 126.775 41.4564C126.405 41.4714 126.035 41.429 125.679 41.3307C125.507 41.2857 125.339 41.2274 125.176 41.1562L125.044 41.0899L125.323 40.1511L125.518 40.2768C125.554 40.2976 125.592 40.3162 125.63 40.3326L125.881 40.4234C126.004 40.4568 126.129 40.4836 126.255 40.5036C126.427 40.5305 126.601 40.5434 126.775 40.542C127.063 40.5535 127.351 40.4998 127.616 40.385C127.703 40.3452 127.776 40.2798 127.824 40.1974C127.873 40.115 127.895 40.0197 127.888 39.9243C127.891 39.8297 127.873 39.7356 127.836 39.6486C127.802 39.5674 127.747 39.4972 127.675 39.4462C127.567 39.3648 127.45 39.2968 127.326 39.2438C127.166 39.1716 126.967 39.0879 126.729 38.9925L126.171 38.7552C125.996 38.67 125.83 38.5671 125.675 38.4481C125.531 38.3235 125.412 38.1717 125.326 38.0013C125.23 37.8063 125.182 37.5908 125.187 37.3732C125.182 37.1561 125.227 36.9409 125.32 36.7447C125.413 36.5484 125.55 36.3764 125.721 36.2424C126.132 35.9426 126.633 35.7935 127.141 35.8201C127.449 35.8136 127.756 35.8452 128.055 35.9144C128.235 35.9546 128.41 36.0106 128.579 36.0819L128.708 36.1447L128.467 37.0556L128.275 36.9648C128.149 36.9054 128.018 36.8552 127.884 36.8148C127.634 36.7456 127.373 36.7161 127.113 36.7275C126.985 36.7267 126.858 36.7407 126.733 36.7694C126.631 36.79 126.534 36.829 126.447 36.8846C126.371 36.927 126.307 36.9883 126.262 37.0625C126.215 37.1376 126.191 37.2253 126.195 37.3138C126.192 37.4069 126.213 37.4993 126.255 37.5826C126.302 37.6641 126.365 37.7353 126.44 37.7919C126.551 37.8628 126.668 37.9246 126.789 37.9769L127.305 38.1898C127.504 38.2666 127.7 38.3503 127.881 38.4376C128.073 38.5156 128.252 38.6227 128.411 38.7552C128.568 38.8814 128.698 39.0381 128.792 39.2158C128.887 39.4295 128.926 39.6635 128.907 39.8964Z" fill="black"/>
<path d="M133.985 37.5022C133.875 37.1721 133.697 36.8688 133.462 36.6123C133.241 36.3628 132.968 36.165 132.662 36.0329C132.34 35.8948 131.993 35.8236 131.642 35.8236C131.291 35.8236 130.943 35.8948 130.621 36.0329C130.316 36.1668 130.044 36.3643 129.822 36.6123C129.59 36.8715 129.412 37.1739 129.298 37.5022C129.173 37.8694 129.111 38.2554 129.117 38.6434C129.112 39.0325 129.173 39.4196 129.298 39.7881C129.414 40.1165 129.593 40.4189 129.825 40.678C130.053 40.9228 130.327 41.1197 130.631 41.2574C131.286 41.5226 132.018 41.5226 132.673 41.2574C132.975 41.1213 133.246 40.924 133.469 40.678C133.705 40.4215 133.884 40.1183 133.996 39.7881C134.247 39.0469 134.247 38.2435 133.996 37.5022H133.985ZM133.137 38.6434C133.164 39.1422 133.019 39.6352 132.725 40.0394C132.59 40.1941 132.424 40.3182 132.237 40.4032C132.05 40.4882 131.847 40.5322 131.642 40.5322C131.436 40.5322 131.233 40.4882 131.046 40.4032C130.86 40.3182 130.693 40.1941 130.558 40.0394C130.289 39.6234 130.146 39.1387 130.146 38.6434C130.146 38.1481 130.289 37.6634 130.558 37.2474C130.691 37.0901 130.857 36.9637 131.045 36.877C131.232 36.7903 131.435 36.7454 131.642 36.7454C131.848 36.7454 132.052 36.7903 132.239 36.877C132.426 36.9637 132.592 37.0901 132.725 37.2474C133.018 37.6519 133.164 38.1447 133.137 38.6434Z" fill="black"/>
<path d="M137.974 36.0611L137.761 36.9615L137.562 36.8673C137.473 36.8318 137.379 36.8106 137.283 36.8045C137.08 36.7681 136.875 36.7517 136.669 36.7556C136.455 36.7504 136.24 36.7691 136.03 36.8115L135.835 36.8603V41.3414H134.837V36.2321L134.941 36.1868C135.174 36.0923 135.415 36.0175 135.66 35.9634C136.024 35.8759 136.396 35.8348 136.77 35.8413C136.982 35.8402 137.193 35.8577 137.402 35.8936C137.552 35.914 137.699 35.9503 137.841 36.0018L137.974 36.0611Z" fill="black"/>
<path d="M142.769 35.9492L142.724 36.1621C142.511 37.1044 142.263 38.0362 141.991 38.9296C141.737 39.7689 141.438 40.5937 141.094 41.4005C140.979 41.6699 140.844 41.9301 140.689 42.1787C140.562 42.3949 140.397 42.5874 140.204 42.7476C140.021 42.9081 139.806 43.0271 139.572 43.0966C139.309 43.171 139.036 43.2062 138.763 43.2013C138.592 43.2028 138.422 43.1817 138.257 43.1385C138.156 43.1125 138.058 43.0775 137.964 43.0338L137.848 42.9291L138.072 42.0182L138.281 42.1752C138.335 42.1948 138.39 42.2111 138.445 42.2241C138.706 42.2976 138.983 42.2976 139.244 42.2241C139.372 42.1934 139.491 42.135 139.593 42.0531C139.704 41.9632 139.8 41.8559 139.876 41.7355C139.97 41.5879 140.052 41.4326 140.12 41.2714C139.911 40.8909 139.709 40.4931 139.517 40.0918C139.325 39.6904 139.122 39.2263 138.941 38.783C138.759 38.3398 138.592 37.8896 138.459 37.4534C138.327 37.0171 138.18 36.5669 138.075 36.1412L138.019 35.9248H139.066L139.098 36.0574C139.171 36.3645 139.265 36.703 139.377 37.0625C139.489 37.422 139.614 37.7919 139.754 38.1688C139.893 38.5457 140.054 38.9366 140.229 39.3449C140.347 39.6171 140.473 39.8893 140.602 40.1581C140.693 39.8998 140.776 39.6485 140.853 39.4077C140.965 39.0587 141.07 38.7097 141.16 38.3608C141.251 38.0118 141.352 37.6418 141.44 37.2719C141.527 36.902 141.628 36.4971 141.729 36.0679L141.761 35.9353L142.769 35.9492Z" fill="black"/>
<path d="M148.901 39.4743C148.917 39.7695 148.858 40.064 148.729 40.3302C148.601 40.5964 148.406 40.8254 148.165 40.9959C147.609 41.3499 146.956 41.5219 146.298 41.488C146.044 41.4894 145.791 41.4719 145.54 41.4356C145.335 41.4081 145.133 41.3673 144.933 41.3135C144.774 41.2693 144.617 41.2145 144.465 41.1494C144.364 41.1062 144.265 41.0573 144.169 41.0029L144.04 40.9296L144.389 40.0222L144.567 40.1269C144.629 40.1618 144.717 40.2072 144.821 40.256C144.926 40.3049 145.059 40.3537 145.205 40.4061C145.352 40.4584 145.512 40.4829 145.697 40.5143C145.899 40.5476 146.103 40.5639 146.308 40.5631C146.714 40.5863 147.119 40.4969 147.477 40.3049C147.603 40.2174 147.704 40.0978 147.768 39.9586C147.833 39.8193 147.859 39.6654 147.844 39.5127C147.851 39.3304 147.808 39.1496 147.721 38.9892C147.639 38.8494 147.525 38.7301 147.39 38.6402C147.232 38.5251 147.06 38.4323 146.877 38.3645L146.224 38.0992C145.956 37.9984 145.694 37.8819 145.439 37.7502C145.216 37.6386 145.009 37.499 144.821 37.3349C144.649 37.1746 144.509 36.9826 144.41 36.7696C144.315 36.5358 144.269 36.2853 144.273 36.0332C144.255 35.7519 144.305 35.4704 144.42 35.2127C144.534 34.955 144.709 34.7288 144.93 34.5535C145.443 34.2055 146.055 34.0351 146.674 34.0684C146.867 34.0685 147.059 34.0813 147.25 34.1068C147.429 34.1322 147.605 34.1707 147.777 34.2219C147.93 34.2576 148.079 34.3054 148.224 34.365C148.347 34.4127 148.464 34.4735 148.573 34.5465L148.692 34.6268L148.318 35.5132L148.144 35.398C147.941 35.2669 147.718 35.1691 147.484 35.1084C147.03 34.9797 146.551 34.9629 146.088 35.0595C145.941 35.0889 145.802 35.1496 145.68 35.2375C145.568 35.3142 145.474 35.4157 145.408 35.5341C145.346 35.6698 145.316 35.8179 145.32 35.9669C145.316 36.1204 145.35 36.2726 145.418 36.4101C145.489 36.5337 145.585 36.6407 145.701 36.7242C145.85 36.8282 146.009 36.917 146.175 36.9894L146.8 37.2512C147.079 37.3629 147.338 37.4745 147.578 37.6002C147.823 37.7067 148.052 37.8464 148.259 38.0155C148.456 38.1827 148.618 38.3881 148.734 38.6192C148.853 38.8879 148.911 39.1802 148.901 39.4743Z" fill="black"/>
<path d="M153.127 36.4831C152.918 36.2619 152.663 36.0883 152.381 35.9739C152.099 35.8595 151.795 35.807 151.491 35.8201C151.181 35.8204 150.874 35.8808 150.587 35.998C150.291 36.1181 150.024 36.3002 149.805 36.532C149.57 36.7908 149.385 37.0915 149.261 37.4184C149.118 37.8071 149.049 38.219 149.058 38.6329C149.055 39.0102 149.104 39.3861 149.205 39.7497C149.298 40.0811 149.463 40.3876 149.69 40.6466C149.925 40.9084 150.217 41.1115 150.545 41.2399C150.936 41.3879 151.352 41.459 151.77 41.4493C152.09 41.4547 152.409 41.4159 152.719 41.3341C152.914 41.2872 153.104 41.2193 153.284 41.1317L153.4 41.0689L153.204 40.179L153.005 40.2767C152.867 40.3388 152.725 40.3913 152.579 40.4337C152.322 40.5007 152.057 40.53 151.791 40.521C151.56 40.5429 151.328 40.515 151.109 40.4391C150.891 40.3632 150.691 40.2412 150.524 40.0813C150.265 39.7584 150.118 39.3604 150.105 38.947H153.703L153.724 38.797C153.727 38.747 153.727 38.6969 153.724 38.6469C153.728 38.5876 153.728 38.5282 153.724 38.4689C153.745 37.586 153.553 36.9159 153.127 36.4831ZM150.133 38.0606C150.154 37.925 150.188 37.7917 150.234 37.6627C150.3 37.4885 150.397 37.3277 150.52 37.1881C150.639 37.0459 150.784 36.9275 150.946 36.8391C151.12 36.7574 151.309 36.7168 151.501 36.7205C151.668 36.7099 151.834 36.7381 151.988 36.8029C152.142 36.8677 152.279 36.9673 152.388 37.0939C152.59 37.37 152.704 37.7009 152.716 38.0431L150.133 38.0606Z" fill="black"/>
<path d="M157.58 36.0609L157.367 36.9613L157.172 36.8671C157.082 36.833 156.988 36.8119 156.893 36.8043C156.69 36.7683 156.484 36.752 156.279 36.7554C156.063 36.7501 155.848 36.7688 155.636 36.8113L155.445 36.8601V41.3412H154.443V36.232L154.551 36.1866C155.132 35.9531 155.753 35.8346 156.38 35.8376C156.59 35.8367 156.801 35.8542 157.008 35.8899C157.158 35.9094 157.306 35.9457 157.448 35.9981L157.58 36.0609Z" fill="black"/>
<path d="M162.477 35.9493L162.421 36.1657C162.299 36.6299 162.163 37.094 162.016 37.5617C161.87 38.0293 161.709 38.4621 161.545 38.8913C161.381 39.3206 161.196 39.7429 161.032 40.1407C160.868 40.5386 160.683 40.9155 160.519 41.268L160.47 41.3692H159.632L159.584 41.2715C159.409 40.9225 159.235 40.5351 159.06 40.1407C158.886 39.7464 158.711 39.3241 158.551 38.8913C158.39 38.4586 158.233 38.0119 158.086 37.5617C157.94 37.1115 157.804 36.6473 157.682 36.1657L157.626 35.9493H158.673L158.704 36.0854C158.781 36.4344 158.879 36.7834 158.994 37.1882C159.109 37.5931 159.238 37.963 159.371 38.3539C159.503 38.7448 159.65 39.1042 159.797 39.4707C159.887 39.6905 159.975 39.8964 160.065 40.0884C160.152 39.8964 160.243 39.687 160.334 39.4672C160.477 39.1182 160.617 38.7308 160.749 38.3539C160.882 37.977 161.014 37.5756 161.126 37.1882C161.238 36.8009 161.346 36.424 161.423 36.0819L161.454 35.9493H162.477Z" fill="black"/>
<path d="M163.89 34.5883C163.893 34.678 163.878 34.7673 163.845 34.8508C163.812 34.9342 163.762 35.01 163.698 35.0734C163.572 35.1898 163.406 35.2534 163.234 35.2514C163.065 35.2537 162.902 35.1912 162.777 35.0769C162.712 35.0134 162.662 34.9372 162.628 34.8531C162.594 34.769 162.579 34.6788 162.582 34.5883C162.577 34.4984 162.593 34.4086 162.627 34.3254C162.662 34.2422 162.714 34.1675 162.78 34.1067C162.905 33.9899 163.069 33.9249 163.239 33.9249C163.41 33.9249 163.574 33.9899 163.698 34.1067C163.763 34.1684 163.814 34.2434 163.847 34.3265C163.88 34.4097 163.895 34.499 163.89 34.5883Z" fill="black"/>
<path d="M163.74 35.9388H162.742V41.3412H163.74V35.9388Z" fill="black"/>
<path d="M168.602 41.0797L168.483 41.1425C168.286 41.2362 168.079 41.3042 167.865 41.3449C167.592 41.4162 167.31 41.4514 167.028 41.4496C166.644 41.4548 166.262 41.3873 165.904 41.2507C165.586 41.126 165.3 40.9302 165.07 40.6783C164.848 40.4154 164.68 40.112 164.574 39.7849C164.346 39.0447 164.346 38.2531 164.574 37.513C164.684 37.182 164.859 36.876 165.087 36.6126C165.311 36.3593 165.589 36.16 165.9 36.0297C166.231 35.8873 166.587 35.8159 166.947 35.8203C167.22 35.8184 167.492 35.843 167.76 35.8936C167.975 35.9262 168.183 35.9909 168.378 36.0856L168.507 36.1554L168.235 37.0348L168.05 36.9441C167.919 36.8808 167.781 36.8328 167.638 36.801C167.43 36.7599 167.219 36.7412 167.007 36.7452C166.787 36.7293 166.567 36.7649 166.363 36.8491C166.159 36.9333 165.978 37.0638 165.834 37.2303C165.539 37.644 165.397 38.1474 165.433 38.6542C165.43 38.9189 165.462 39.1828 165.527 39.4394C165.581 39.6512 165.679 39.8496 165.813 40.0222C165.957 40.1808 166.133 40.3069 166.33 40.3922C166.586 40.4842 166.857 40.528 167.129 40.5213C167.347 40.528 167.565 40.501 167.774 40.441C167.909 40.4005 168.039 40.3492 168.165 40.2875L168.361 40.1862L168.602 41.0797Z" fill="black"/>
<path d="M172.674 36.4831C172.465 36.2619 172.21 36.0883 171.928 35.9739C171.646 35.8595 171.342 35.807 171.038 35.8201C170.728 35.8204 170.421 35.8808 170.134 35.998C169.837 36.1181 169.569 36.3001 169.348 36.532C169.114 36.7916 168.929 37.092 168.804 37.4184C168.663 37.8075 168.594 38.2191 168.602 38.6329C168.599 39.0104 168.65 39.3863 168.752 39.7497C168.844 40.0811 169.01 40.3876 169.237 40.6466C169.472 40.9081 169.765 41.1112 170.092 41.2399C170.483 41.3886 170.899 41.4597 171.317 41.4493C171.636 41.4548 171.954 41.416 172.262 41.3341C172.459 41.287 172.649 41.2191 172.831 41.1317L172.947 41.0689L172.751 40.179L172.549 40.2767C172.411 40.3388 172.268 40.3913 172.123 40.4337C171.867 40.5009 171.602 40.5303 171.338 40.521C171.107 40.5427 170.874 40.515 170.655 40.4398C170.436 40.3646 170.236 40.2436 170.067 40.0848C169.812 39.7591 169.666 39.3607 169.652 38.947H173.247L173.271 38.797C173.274 38.747 173.274 38.6969 173.271 38.6469C173.275 38.5876 173.275 38.5282 173.271 38.4689C173.292 37.586 173.097 36.9159 172.674 36.4831ZM169.68 38.0606C169.699 37.9251 169.732 37.7918 169.778 37.6627C169.846 37.489 169.944 37.3284 170.067 37.1881C170.186 37.0462 170.331 36.9278 170.493 36.8391C170.666 36.757 170.856 36.7164 171.048 36.7205C171.214 36.7096 171.38 36.7377 171.534 36.8025C171.687 36.8674 171.823 36.9671 171.931 37.0939C172.136 37.3689 172.252 37.7002 172.262 38.0431L169.68 38.0606Z" fill="black"/>
<path d="M177.358 39.8964C177.369 40.129 177.319 40.3605 177.212 40.5676C177.106 40.7746 176.947 40.95 176.751 41.076C176.292 41.3523 175.761 41.4848 175.226 41.4564C174.856 41.4711 174.486 41.4287 174.13 41.3307C173.958 41.2857 173.79 41.2274 173.627 41.1562L173.498 41.0899L173.774 40.1511L173.969 40.2768L174.081 40.3361L174.332 40.4233C174.455 40.4568 174.58 40.4836 174.706 40.5036C174.878 40.5305 175.052 40.5434 175.226 40.542C175.514 40.5535 175.802 40.4998 176.067 40.385C176.154 40.3456 176.227 40.2803 176.276 40.1978C176.325 40.1153 176.347 40.0198 176.339 39.9243C176.342 39.8296 176.324 39.7354 176.287 39.6486C176.253 39.5674 176.197 39.4972 176.126 39.4462C176.019 39.3641 175.902 39.2961 175.777 39.2437C175.617 39.1716 175.418 39.0879 175.18 38.9925L174.625 38.7552C174.45 38.6708 174.284 38.5679 174.13 38.448C173.979 38.3252 173.854 38.1733 173.763 38.0013C173.664 37.807 173.615 37.5912 173.62 37.3731C173.615 37.1561 173.661 36.9409 173.754 36.7446C173.846 36.5484 173.983 36.3764 174.154 36.2424C174.566 35.9441 175.067 35.7951 175.575 35.8201C175.882 35.8136 176.189 35.8452 176.489 35.9144C176.668 35.9546 176.843 36.0106 177.012 36.0819L177.142 36.1447L176.901 37.0556L176.709 36.9648C176.583 36.9058 176.454 36.8556 176.321 36.8148C176.069 36.7458 175.808 36.7164 175.547 36.7275C175.419 36.7269 175.291 36.7409 175.166 36.7694C175.065 36.7906 174.968 36.8296 174.88 36.8846C174.805 36.928 174.741 36.9891 174.695 37.0625C174.648 37.1376 174.625 37.2253 174.629 37.3138C174.626 37.4069 174.646 37.4993 174.688 37.5825C174.735 37.6641 174.798 37.7353 174.873 37.7919C174.984 37.8628 175.101 37.9246 175.222 37.9769L175.739 38.1898C175.941 38.2666 176.133 38.3503 176.318 38.4376C176.509 38.5156 176.687 38.6227 176.845 38.7552C177.002 38.8806 177.132 39.0375 177.225 39.2158C177.326 39.4279 177.372 39.662 177.358 39.8964Z" fill="black"/>
</svg>
