<svg width="172" height="40" viewBox="0 0 172 40" fill="none" xmlns="http://www.w3.org/2000/svg">
<path d="M12.2837 0.157965L0.155763 11.9586C0.0812557 12.0318 0.0306 12.1248 0.0101406 12.2258C-0.0103188 12.3269 0.000327652 12.4316 0.0407465 12.5268C0.0811654 12.622 0.14956 12.7035 0.237362 12.7611C0.325165 12.8187 0.428473 12.8498 0.534345 12.8504H12.6556C12.798 12.8496 12.9344 12.7942 13.0351 12.6962C13.1358 12.5982 13.1927 12.4656 13.1936 12.327V0.526332C13.1917 0.424619 13.1593 0.325663 13.1005 0.241563C13.0416 0.157463 12.9589 0.0918632 12.8624 0.0527849C12.7659 0.0137066 12.6597 0.00284311 12.5569 0.0215228C12.4542 0.0402024 12.3592 0.0876157 12.2837 0.157965Z" fill="#DEDEDE"/>
<path d="M12.2837 13.7357L0.155763 25.5299C0.0812557 25.6031 0.0306 25.696 0.0101406 25.7971C-0.0103188 25.8982 0.000327652 26.0029 0.0407465 26.0981C0.0811654 26.1933 0.14956 26.2748 0.237362 26.3324C0.325165 26.3899 0.428473 26.421 0.534345 26.4217H12.6556C12.7263 26.4217 12.7962 26.4082 12.8615 26.3818C12.9268 26.3555 12.9861 26.317 13.036 26.2684C13.086 26.2198 13.1256 26.1621 13.1527 26.0986C13.1797 26.035 13.1936 25.967 13.1936 25.8982V14.104C13.1917 14.0023 13.1593 13.9034 13.1005 13.8193C13.0416 13.7352 12.9589 13.6696 12.8624 13.6305C12.7659 13.5914 12.6597 13.5805 12.5569 13.5992C12.4542 13.6179 12.3592 13.6653 12.2837 13.7357Z" fill="#DEDEDE"/>
<path d="M12.2837 27.3137L0.155763 39.1014C0.0812557 39.1746 0.0306 39.2676 0.0101406 39.3686C-0.0103188 39.4697 0.000327652 39.5744 0.0407465 39.6696C0.0811654 39.7649 0.14956 39.8463 0.237362 39.9039C0.325165 39.9615 0.428473 39.9926 0.534345 39.9933H12.6556C12.798 39.9924 12.9344 39.937 13.0351 39.839C13.1358 39.741 13.1927 39.6084 13.1936 39.4698V27.6821C13.1917 27.5803 13.1593 27.4814 13.1005 27.3973C13.0416 27.3132 12.9589 27.2476 12.8624 27.2085C12.7659 27.1694 12.6597 27.1586 12.5569 27.1772C12.4542 27.1959 12.3592 27.2433 12.2837 27.3137Z" fill="#DEDEDE"/>
<path d="M26.2316 0.157871L14.1104 11.9585C14.0358 12.0317 13.9852 12.1247 13.9647 12.2257C13.9443 12.3268 13.9549 12.4315 13.9953 12.5267C14.0358 12.622 14.1042 12.7034 14.192 12.761C14.2798 12.8186 14.3831 12.8497 14.4889 12.8504H26.6102C26.6809 12.8504 26.7508 12.8368 26.8161 12.8105C26.8814 12.7842 26.9407 12.7456 26.9906 12.697C27.0406 12.6484 27.0802 12.5907 27.1073 12.5272C27.1343 12.4637 27.1482 12.3956 27.1482 12.3269V0.526237C27.1475 0.423221 27.1156 0.322702 27.0564 0.237268C26.9972 0.151835 26.9135 0.0852862 26.8156 0.0459581C26.7178 0.00662991 26.6102 -0.00372928 26.5063 0.016178C26.4024 0.0360854 26.3069 0.0853741 26.2316 0.157871Z" fill="#DEDEDE"/>
<path d="M26.2316 13.7359L14.1104 25.5301C14.0358 25.6033 13.9852 25.6962 13.9647 25.7973C13.9443 25.8984 13.9549 26.0031 13.9953 26.0983C14.0358 26.1935 14.1042 26.275 14.192 26.3326C14.2798 26.3901 14.3831 26.4212 14.4889 26.4219H26.6102C26.681 26.4223 26.7511 26.4091 26.8166 26.3829C26.8821 26.3568 26.9416 26.3182 26.9916 26.2696C27.0417 26.2209 27.0813 26.163 27.1082 26.0993C27.135 26.0356 27.1486 25.9673 27.1482 25.8984V14.1043C27.1475 14.0012 27.1156 13.9007 27.0564 13.8153C26.9972 13.7299 26.9135 13.6633 26.8156 13.624C26.7178 13.5847 26.6102 13.5743 26.5063 13.5942C26.4024 13.6141 26.3069 13.6634 26.2316 13.7359Z" fill="#DEDEDE"/>
<path d="M26.2316 27.3136L14.1104 39.1013C14.0358 39.1745 13.9852 39.2675 13.9647 39.3685C13.9443 39.4696 13.9549 39.5743 13.9953 39.6695C14.0358 39.7648 14.1042 39.8463 14.192 39.9038C14.2798 39.9614 14.3831 39.9925 14.4889 39.9932H26.6102C26.6809 39.9932 26.7508 39.9796 26.8161 39.9533C26.8814 39.927 26.9407 39.8884 26.9906 39.8398C27.0406 39.7912 27.0802 39.7335 27.1073 39.67C27.1343 39.6065 27.1482 39.5384 27.1482 39.4697V27.682C27.1475 27.5789 27.1156 27.4784 27.0564 27.393C26.9972 27.3076 26.9135 27.241 26.8156 27.2017C26.7178 27.1624 26.6102 27.152 26.5063 27.1719C26.4024 27.1918 26.3069 27.2411 26.2316 27.3136Z" fill="#DEDEDE"/>
<path d="M40.1793 0.15807L28.0646 11.9587C27.9901 12.0319 27.9395 12.1249 27.919 12.2259C27.8985 12.327 27.9092 12.4317 27.9496 12.5269C27.99 12.6222 28.0584 12.7036 28.1462 12.7612C28.234 12.8188 28.3373 12.8499 28.4432 12.8506H40.5645C40.7072 12.8506 40.844 12.7954 40.9449 12.6972C41.0458 12.5991 41.1025 12.4659 41.1025 12.3271V0.526437C41.1031 0.422085 41.0716 0.319937 41.0121 0.233109C40.9526 0.14628 40.8678 0.0787335 40.7686 0.0391407C40.6694 -0.000452142 40.5603 -0.010284 40.4552 0.0109074C40.3502 0.0320988 40.2541 0.0833462 40.1793 0.15807Z" fill="#DEDEDE"/>
<path d="M40.1793 13.7358L28.0646 25.53C27.9901 25.6032 27.9395 25.6961 27.919 25.7972C27.8985 25.8983 27.9092 26.003 27.9496 26.0982C27.99 26.1934 28.0584 26.2749 28.1462 26.3325C28.234 26.39 28.3373 26.4211 28.4432 26.4218H40.5645C40.6353 26.4222 40.7054 26.409 40.7709 26.3828C40.8364 26.3567 40.8958 26.3181 40.9459 26.2694C40.9959 26.2207 41.0355 26.1629 41.0624 26.0992C41.0893 26.0355 41.1029 25.9672 41.1025 25.8983V14.1041C41.1031 13.9998 41.0716 13.8976 41.0121 13.8108C40.9526 13.724 40.8678 13.6564 40.7686 13.6168C40.6694 13.5773 40.5603 13.5674 40.4552 13.5886C40.3502 13.6098 40.2541 13.6611 40.1793 13.7358Z" fill="#DEDEDE"/>
<path d="M53.7684 6.21328C56.704 6.21328 58.949 6.73567 60.5031 7.78045C62.0573 8.82524 62.8455 10.4603 62.8676 12.6855C62.8951 13.7181 62.6745 14.7427 62.2234 15.6777C61.8148 16.4959 61.1917 17.1948 60.4168 17.7037C59.5239 18.2527 58.536 18.6392 57.501 18.8444C56.2067 19.1043 54.8873 19.2278 53.5658 19.2127H51.7293V26.1762H48.0564V6.69797C48.9862 6.49777 49.9315 6.37347 50.8825 6.32638C51.9385 6.25313 52.9005 6.21543 53.7684 6.21328ZM54.0307 9.32178C53.1009 9.32178 52.3304 9.34763 51.7293 9.40579V16.1333H53.506C55.2771 16.1333 56.6376 15.8964 57.5874 15.4224C58.5372 14.9485 59.0143 14.0265 59.0187 12.6565C59.0369 12.0952 58.9065 11.5389 58.6401 11.0408C58.3912 10.6136 58.0273 10.2605 57.5874 10.0197C57.0895 9.7571 56.5475 9.58311 55.9867 9.50596C55.3422 9.38439 54.6872 9.32271 54.0307 9.32178Z" fill="#DEDEDE"/>
<path d="M69.7585 23.7464C70.588 23.7674 71.4177 23.71 72.2358 23.5751V19.7558C71.9598 19.6814 71.6792 19.6241 71.3957 19.5845C70.9901 19.5248 70.5804 19.4967 70.1702 19.5005C69.7702 19.5002 69.3706 19.5283 68.9747 19.5845C68.6008 19.6409 68.2373 19.7498 67.8954 19.9076C67.5898 20.0557 67.3289 20.2784 67.1383 20.5539C66.9329 20.8583 66.8307 21.2176 66.846 21.5814C66.846 22.4 67.1084 22.9698 67.6331 23.2908C68.2873 23.6237 69.021 23.781 69.7585 23.7464ZM69.4662 10.8891C70.4659 10.8626 71.4627 11.0059 72.4119 11.3124C73.1369 11.5516 73.7889 11.9638 74.3081 12.5112C74.8049 13.0448 75.1556 13.6916 75.3276 14.3918C75.5523 15.171 75.6641 15.9769 75.6597 16.7862V25.8338C75.1151 25.9501 74.2882 26.0837 73.179 26.2345C71.9536 26.4151 70.7155 26.5005 69.4762 26.4898C68.6332 26.4975 67.792 26.4119 66.9689 26.2345C66.268 26.0878 65.6041 25.8066 65.0162 25.4073C64.4797 25.0151 64.048 24.503 63.7576 23.9144C63.4428 23.2008 63.2932 22.4286 63.3192 21.6525C63.2949 20.9019 63.465 20.1574 63.814 19.4876C64.1545 18.9074 64.6357 18.4171 65.2155 18.0593C65.8256 17.6689 66.508 17.3978 67.2246 17.2612C68.0193 17.0889 68.8313 17.0033 69.6455 17.0059C70.0555 17.0079 70.4648 17.036 70.871 17.09C71.332 17.1348 71.7893 17.2115 72.2392 17.3194V16.7604C72.2416 16.3769 72.1936 15.9946 72.0964 15.623C72.0034 15.2714 71.8232 14.9475 71.5717 14.6794C71.3156 14.3843 70.9831 14.1611 70.6086 14.0332C70.1317 13.8675 69.627 13.7908 69.1208 13.807C68.3689 13.8009 67.6177 13.8582 66.8759 13.9782C66.3115 14.0628 65.7558 14.1958 65.2155 14.3757L64.7771 11.5838C65.4157 11.3851 66.0684 11.2318 66.7298 11.125C67.6328 10.9666 68.5487 10.8876 69.4662 10.8891Z" fill="#DEDEDE"/>
<path d="M78.8013 11.7455C79.6754 11.5147 80.5624 11.3334 81.458 11.2026C82.6545 11.023 83.8639 10.9365 85.0745 10.9441C86.1386 10.9131 87.1985 11.0878 88.1928 11.4579C88.976 11.7382 89.6652 12.2221 90.1854 12.857C90.7104 13.4852 91.0706 14.2282 91.2348 15.022C91.4617 15.9272 91.5732 16.8562 91.5668 17.788V26.1764H88.0168V18.3308C88.0271 17.6515 87.9681 16.9728 87.8408 16.3048C87.7753 15.8162 87.5958 15.3487 87.3161 14.938C87.0847 14.5779 86.7329 14.3063 86.3198 14.1689C85.8382 13.984 85.3231 13.8961 84.8055 13.9104C84.337 13.9117 83.869 13.9409 83.4041 13.9977C82.9192 14.0526 82.5606 14.1011 82.3281 14.1399V26.1764H78.8013V11.7455Z" fill="#DEDEDE"/>
<path d="M108.48 18.6989C108.494 19.7971 108.317 20.8897 107.956 21.9302C107.638 22.846 107.131 23.6892 106.468 24.4086C105.821 25.0986 105.028 25.6433 104.143 26.0049C102.238 26.7674 100.101 26.7674 98.1955 26.0049C97.3201 25.6387 96.5354 25.0944 95.8942 24.4086C95.2268 23.6869 94.7112 22.8449 94.3765 21.9302C94.0151 20.8897 93.8377 19.7971 93.8518 18.6989C93.8356 17.6159 94.0108 16.5382 94.3699 15.5129C94.704 14.598 95.2197 13.7559 95.8875 13.0345C96.5384 12.3557 97.331 11.8202 98.2122 11.4641C100.097 10.706 102.215 10.706 104.1 11.4641C104.986 11.8116 105.78 12.3483 106.425 13.0345C107.093 13.7525 107.604 14.5959 107.926 15.5129C108.307 16.5336 108.495 17.613 108.48 18.6989ZM104.864 18.6989C104.864 17.219 104.532 16.0504 103.868 15.193C103.565 14.7737 103.159 14.4352 102.686 14.2088C102.214 13.9823 101.691 13.8752 101.164 13.8972C100.633 13.8753 100.104 13.9819 99.6257 14.2075C99.147 14.433 98.7332 14.7705 98.4214 15.1898C97.7815 16.0514 97.4616 17.2201 97.4616 18.6957C97.4616 20.1713 97.7815 21.3561 98.4214 22.2501C98.7272 22.6787 99.1384 23.026 99.6176 23.2602C100.097 23.4944 100.629 23.6082 101.164 23.5911C101.693 23.6131 102.219 23.5043 102.693 23.2749C103.167 23.0454 103.573 22.7029 103.874 22.2792C104.536 21.396 104.866 20.2026 104.864 18.6989Z" fill="#DEDEDE"/>
<path d="M119.635 14.3658C119.235 14.2446 118.826 14.1496 118.413 14.0814C117.828 13.9598 117.231 13.9024 116.633 13.9101C116.213 13.9134 115.794 13.9512 115.381 14.0232C115.076 14.073 114.775 14.1399 114.478 14.2236V26.1761H110.948V11.9585C111.776 11.6722 112.623 11.4433 113.485 11.2734C114.604 11.0415 115.747 10.931 116.892 10.9438C117.165 10.9466 117.438 10.9661 117.709 11.002C118.022 11.0222 118.334 11.0599 118.642 11.1151C118.947 11.1532 119.248 11.2104 119.545 11.2863C119.782 11.3314 120.016 11.3885 120.246 11.4576L119.635 14.3658Z" fill="#DEDEDE"/>
<path d="M126.905 23.7464C127.734 23.7674 128.564 23.71 129.382 23.5751V19.7558C129.105 19.6812 128.823 19.624 128.538 19.5845C128.133 19.5248 127.723 19.4967 127.313 19.5005C126.913 19.5002 126.513 19.5283 126.118 19.5845C125.744 19.6409 125.38 19.7498 125.038 19.9076C124.733 20.0557 124.472 20.2784 124.281 20.5539C124.076 20.8583 123.973 21.2176 123.989 21.5814C123.989 22.4 124.251 22.9698 124.776 23.2908C125.431 23.6243 126.166 23.7816 126.905 23.7464ZM126.612 10.8891C127.612 10.8626 128.609 11.0059 129.558 11.3124C130.283 11.5516 130.935 11.9638 131.454 12.5112C131.95 13.0457 132.3 13.6921 132.474 14.3918C132.698 15.171 132.81 15.9769 132.806 16.7862V25.8338C132.261 25.9501 131.434 26.0837 130.325 26.2345C129.1 26.4151 127.862 26.5005 126.622 26.4898C125.779 26.4975 124.938 26.4119 124.115 26.2345C123.414 26.0878 122.75 25.8066 122.162 25.4073C121.625 25.0154 121.192 24.5034 120.9 23.9144C120.586 23.2008 120.436 22.4286 120.462 21.6525C120.438 20.9019 120.608 20.1574 120.957 19.4876C121.297 18.9074 121.778 18.4171 122.358 18.0593C122.968 17.6689 123.651 17.3978 124.367 17.2612C125.162 17.0889 125.974 17.0033 126.788 17.0059C127.198 17.0079 127.608 17.036 128.014 17.09C128.475 17.1348 128.932 17.2115 129.382 17.3194V16.7604C129.384 16.3769 129.336 15.9946 129.239 15.623C129.146 15.2714 128.966 14.9475 128.715 14.6794C128.458 14.3843 128.126 14.1611 127.751 14.0332C127.274 13.8677 126.77 13.791 126.264 13.807C125.512 13.8009 124.761 13.8582 124.019 13.9782C123.454 14.0628 122.899 14.1958 122.358 14.3757L121.92 11.5838C122.556 11.3821 123.207 11.2256 123.866 11.1153C124.773 10.9595 125.692 10.8838 126.612 10.8891Z" fill="#DEDEDE"/>
<path d="M144.635 18.3307C144.635 16.7711 144.431 15.6498 144.024 14.9669C143.616 14.2841 142.875 13.9275 141.799 13.8974C141.37 13.9 140.942 13.9292 140.517 13.9846C140.049 14.0396 139.7 14.088 139.468 14.1268V26.1763H135.947V11.7453C136.821 11.5145 137.708 11.3333 138.604 11.2025C139.762 11.027 140.932 10.9406 142.104 10.944C142.977 10.916 143.848 11.0521 144.668 11.3447C145.3 11.5791 145.875 11.9377 146.358 12.3981C146.619 12.2192 146.892 12.0573 147.175 11.9134C147.532 11.7333 147.903 11.581 148.285 11.4578C148.701 11.3031 149.13 11.18 149.566 11.0894C150.026 10.9933 150.495 10.9446 150.965 10.944C151.963 10.9092 152.958 11.0845 153.88 11.4578C154.61 11.7434 155.239 12.2295 155.69 12.8569C156.159 13.501 156.468 14.242 156.593 15.0219C156.776 15.9329 156.864 16.8596 156.856 17.7878V26.1763H153.326V18.3307C153.326 16.7711 153.131 15.6498 152.741 14.9669C152.352 14.2841 151.603 13.9275 150.496 13.8974C149.948 13.8955 149.404 13.9919 148.892 14.1817C148.492 14.3044 148.111 14.4771 147.757 14.6955C147.921 15.187 148.032 15.6938 148.089 16.2077C148.15 16.7755 148.18 17.3462 148.178 17.9171V26.1763H144.635V18.3307Z" fill="#DEDEDE"/>
<path d="M165.377 23.7464C166.208 23.7672 167.039 23.7099 167.858 23.5752V19.7558C167.58 19.6817 167.297 19.6245 167.011 19.5845C166.606 19.5249 166.196 19.4968 165.786 19.5005C165.386 19.5002 164.986 19.5283 164.59 19.5845C164.217 19.6405 163.855 19.7494 163.514 19.9077C163.207 20.0546 162.945 20.2775 162.754 20.5539C162.548 20.8583 162.446 21.2176 162.462 21.5815C162.462 22.4001 162.725 22.9698 163.252 23.2908C163.906 23.6243 164.64 23.7817 165.377 23.7464ZM165.088 10.8891C166.088 10.8625 167.085 11.0058 168.034 11.3124C168.759 11.5517 169.411 11.9638 169.93 12.5113C170.427 13.0448 170.778 13.6916 170.95 14.3919C171.176 15.1707 171.288 15.9769 171.282 16.7862V25.8338C170.737 25.9502 169.911 26.0837 168.804 26.2345C167.579 26.4149 166.341 26.5002 165.102 26.4898C164.259 26.4977 163.417 26.412 162.594 26.2345C161.892 26.0885 161.227 25.8072 160.638 25.4073C160.098 25.0157 159.662 24.5038 159.366 23.9145C159.052 23.2009 158.902 22.4287 158.928 21.6526C158.904 20.9019 159.074 20.1574 159.423 19.4876C159.763 18.9075 160.244 18.4172 160.824 18.0594C161.435 17.6683 162.119 17.3972 162.837 17.2612C163.63 17.0888 164.441 17.0032 165.254 17.006C165.664 17.008 166.074 17.036 166.48 17.09C166.942 17.1351 167.4 17.2117 167.851 17.3194V16.7604C167.853 16.3767 167.804 15.9945 167.705 15.623C167.612 15.2715 167.432 14.9475 167.181 14.6794C166.924 14.3843 166.592 14.1612 166.217 14.0332C165.741 13.8675 165.236 13.7908 164.73 13.807C163.978 13.8009 163.227 13.8582 162.485 13.9783C161.92 14.0632 161.365 14.1962 160.824 14.3757L160.396 11.5742C161.035 11.3755 161.687 11.2221 162.349 11.1153C163.251 10.9605 164.166 10.8848 165.082 10.8891H165.088Z" fill="#DEDEDE"/>
<path d="M55.0703 38.2774H54.074V38.1223C54.0342 37.1529 53.991 36.2158 53.9412 35.3466C53.9047 34.6681 53.8615 34.025 53.805 33.424C53.7021 33.6179 53.5859 33.8441 53.4563 34.0961C53.3268 34.3482 53.1707 34.6584 53.018 34.9718L52.573 35.8766L52.1712 36.6811C52.0616 36.9235 51.9719 37.1206 51.9088 37.2725L51.869 37.3726H51.0653L51.0221 37.2725C50.959 37.1238 50.8694 36.9267 50.7498 36.6811C50.6303 36.4356 50.5041 36.1674 50.3613 35.8766L49.9129 34.9718C49.7602 34.6487 49.6141 34.3675 49.4746 34.0961C49.3351 33.8247 49.2288 33.6179 49.1259 33.424C49.0694 34.0218 49.0196 34.6681 48.9831 35.3466C48.9366 36.2255 48.8968 37.1497 48.8569 38.1223V38.2774H47.8839V38.1061C47.9403 36.972 48.0034 35.8701 48.0732 34.8296C48.1429 33.7892 48.2425 32.7745 48.3488 31.8245V31.6824H49.1624L49.2089 31.7599C49.4015 32.0604 49.6074 32.4062 49.8233 32.8198C50.0391 33.2334 50.255 33.6244 50.4642 34.0541C50.6734 34.4839 50.886 34.8975 51.0852 35.3143C51.2214 35.5954 51.3509 35.8572 51.4671 36.1027C51.58 35.8572 51.7029 35.5954 51.8391 35.3143C52.0416 34.8975 52.2475 34.4774 52.4601 34.0541C52.6726 33.6308 52.8951 33.2043 53.1076 32.8165C53.3202 32.4288 53.5327 32.0604 53.722 31.7599L53.7951 31.6694H54.5788V31.8116C54.6851 32.781 54.7747 33.7762 54.8445 34.8167C54.9142 35.8572 54.9873 36.9526 55.0437 38.0932L55.0703 38.2774Z" fill="#DEDEDE"/>
<path d="M59.3575 34.3222C59.2947 34.1001 59.1811 33.8946 59.0254 33.7211C58.8596 33.5367 58.6481 33.3966 58.411 33.314C58.1303 33.2096 57.8315 33.1591 57.531 33.1654C57.246 33.1616 56.9614 33.1843 56.6808 33.2332C56.4979 33.2634 56.3187 33.3121 56.1462 33.3786L56.0333 33.4303L56.1728 34.264L56.362 34.1929C56.4417 34.1638 56.5679 34.1283 56.7373 34.0798C56.9884 34.0289 57.2448 34.0073 57.5011 34.0152C57.6861 34.0065 57.8705 34.0409 58.0391 34.1154C58.1615 34.1682 58.2654 34.2547 58.338 34.3642C58.4127 34.467 58.4616 34.5854 58.4808 34.7099C58.5039 34.8575 58.515 35.0066 58.514 35.1558V35.2237C58.4609 35.2237 58.3978 35.2011 58.3347 35.1914C58.236 35.1719 58.1362 35.1589 58.0358 35.1526C57.6484 35.1079 57.2559 35.1309 56.8768 35.2205C56.6236 35.2709 56.3825 35.3673 56.1661 35.5048C55.9642 35.6299 55.7975 35.802 55.6813 36.0057C55.5624 36.2314 55.5031 36.4823 55.5086 36.7359C55.5019 36.9948 55.554 37.2519 55.6613 37.4888C55.7652 37.6876 55.9126 37.8619 56.093 37.9994C56.2816 38.129 56.4933 38.2233 56.7174 38.2773C56.9673 38.337 57.2239 38.3663 57.4812 38.3645C57.6819 38.365 57.8826 38.3553 58.0823 38.3354C58.2848 38.3354 58.4708 38.3031 58.6302 38.2805L59.0586 38.2159C59.1848 38.19 59.2811 38.1674 59.3475 38.148L59.4671 38.1125V35.0427C59.4646 34.7988 59.4277 34.5563 59.3575 34.3222ZM57.7136 35.9766C57.9131 35.9726 58.1125 35.99 58.3081 36.0283C58.3944 36.0477 58.4608 36.0606 58.5073 36.0768V37.4856L58.1985 37.5244C58.0225 37.5244 57.8166 37.5244 57.5808 37.5244C57.415 37.5262 57.2494 37.5132 57.086 37.4856C56.9678 37.4568 56.8555 37.4088 56.7539 37.3434C56.6681 37.2869 56.5985 37.2102 56.5513 37.1205C56.5007 37.0018 56.4769 36.874 56.4816 36.7456C56.4728 36.609 56.5089 36.4733 56.5845 36.3579C56.6573 36.2583 56.7559 36.1792 56.8701 36.1285C56.9945 36.0627 57.1311 36.0221 57.272 36.0089C57.4182 35.9881 57.5658 35.9773 57.7136 35.9766Z" fill="#DEDEDE"/>
<path d="M64.4917 35.4986V38.2775H63.5386V35.6925C63.5431 35.4217 63.5198 35.151 63.4688 34.8847C63.4405 34.7051 63.3688 34.5345 63.2596 34.3871C63.1705 34.2682 63.0449 34.18 62.901 34.135C62.7013 34.0684 62.4909 34.0378 62.28 34.0446C62.0334 34.0426 61.7871 34.0577 61.5427 34.0898C61.4165 34.0898 61.3302 34.1221 61.2737 34.1318V38.2808H60.324V33.4759L60.4468 33.4435C60.6328 33.3951 60.8885 33.3369 61.2007 33.2788C61.5873 33.2097 61.98 33.1783 62.3729 33.185C62.7129 33.176 63.0514 33.232 63.3692 33.3498C63.6334 33.4531 63.8633 33.6253 64.0334 33.8475C64.2048 34.065 64.325 34.3165 64.3854 34.5842C64.4564 34.8841 64.4921 35.1909 64.4917 35.4986Z" fill="#DEDEDE"/>
<path d="M68.8555 34.3222C68.7913 34.1007 68.6779 33.8955 68.5234 33.7212C68.3576 33.5368 68.1461 33.3966 67.909 33.3141C67.6272 33.2092 67.3272 33.1587 67.0256 33.1654C66.7407 33.162 66.456 33.1847 66.1755 33.2333C65.9937 33.2639 65.8157 33.3127 65.6441 33.3787L65.5312 33.4304L65.6674 34.2641L65.8567 34.193C65.9364 34.1639 66.0626 34.1284 66.2353 34.0799C66.4863 34.029 66.7427 34.0073 66.9991 34.0153C67.184 34.007 67.3683 34.0413 67.5371 34.1154C67.659 34.1676 67.762 34.2543 67.8326 34.3642C67.9095 34.4659 67.9586 34.5848 67.9754 34.71C67.9995 34.8575 68.0117 35.0066 68.0119 35.1559V35.2238L67.8326 35.1914C67.734 35.172 67.6341 35.159 67.5337 35.1527C67.1463 35.1079 66.7538 35.1309 66.3747 35.2205C66.1214 35.2703 65.8801 35.3668 65.6641 35.5049C65.4606 35.6282 65.2936 35.8008 65.1792 36.0057C65.0589 36.231 64.9995 36.4823 65.0065 36.736C65.0005 36.9945 65.0515 37.2512 65.156 37.4889C65.2599 37.6877 65.4072 37.8619 65.5877 37.9994C65.7774 38.1291 65.9902 38.2234 66.2153 38.2773C66.4652 38.3371 66.7218 38.3664 66.9791 38.3646C67.1799 38.365 67.3805 38.3552 67.5802 38.3355C67.7828 38.3355 67.9688 38.3032 68.1282 38.2806L68.5532 38.2159C68.6794 38.1901 68.7757 38.1675 68.8455 38.1481L68.9617 38.1125V35.0428C68.9603 34.799 68.9246 34.5566 68.8555 34.3222ZM67.2116 35.9766C67.4111 35.9729 67.6104 35.9902 67.806 36.0283C67.8924 36.0477 67.9588 36.0607 68.0053 36.0768V37.4857L67.6931 37.5244C67.5204 37.5244 67.3146 37.5244 67.0788 37.5244C66.9128 37.5269 66.747 37.5129 66.584 37.4824C66.4658 37.4552 66.3535 37.4081 66.2519 37.3435C66.1662 37.2878 66.0974 37.2108 66.0526 37.1205C66.0023 37.0018 65.9785 36.874 65.9829 36.7457C65.9741 36.6091 66.0102 36.4733 66.0858 36.3579C66.1574 36.2585 66.2548 36.1793 66.3681 36.1285C66.4938 36.0633 66.6315 36.0226 66.7732 36.009C66.9184 35.9881 67.0649 35.9773 67.2116 35.9766Z" fill="#DEDEDE"/>
<path d="M73.8532 33.4432C73.6672 33.3883 73.4314 33.3334 73.1525 33.2785C72.7808 33.2069 72.4022 33.1754 72.0234 33.1847C71.6659 33.1797 71.3111 33.2457 70.9806 33.3786C70.6807 33.4958 70.4109 33.6756 70.1902 33.9053C69.9725 34.1325 69.8052 34.4009 69.6988 34.6938C69.5822 35.0043 69.5237 35.3326 69.5261 35.6631C69.5167 36.0422 69.582 36.4196 69.7187 36.7747C69.8342 37.0587 70.0109 37.3154 70.2367 37.5276C70.4556 37.7247 70.7164 37.8725 71.0005 37.9606C71.4492 38.0976 71.9248 38.1298 72.3887 38.0543C72.5265 38.0267 72.662 37.9889 72.7938 37.9412L73.0263 37.8475V37.8701C73.0478 38.0455 73.0291 38.2234 72.9717 38.3909C72.9143 38.5585 72.8195 38.7117 72.6942 38.8395C72.3543 39.0616 71.9463 39.1631 71.5385 39.1271C71.28 39.1259 71.0222 39.1021 70.7681 39.056C70.5688 39.0233 70.3739 38.9691 70.1869 38.8944L70.0043 38.8136L69.8017 39.6829L69.9445 39.7313C70.1615 39.8003 70.3835 39.8533 70.6087 39.8897C70.9044 39.9424 71.2047 39.9673 71.5053 39.964C72.1535 40.008 72.7976 39.8359 73.3318 39.4761C73.7503 39.1529 73.9661 38.6068 73.9661 37.8604V33.4788L73.8532 33.4432ZM73.0163 34.1315V36.9395C72.8822 37.0246 72.737 37.0919 72.5846 37.1398C72.1951 37.2749 71.7711 37.284 71.3758 37.1657C71.2135 37.108 71.0662 37.0164 70.9441 36.8975C70.809 36.76 70.704 36.5973 70.6353 36.4193C70.4816 35.9613 70.4759 35.4685 70.6186 35.0072C70.6808 34.817 70.7839 34.6419 70.9208 34.4934C71.0485 34.3526 71.2075 34.2421 71.3858 34.1703C71.5904 34.0857 71.811 34.0438 72.0333 34.0475C72.2701 34.0416 72.5068 34.0567 72.7407 34.0927C72.847 34.0992 72.9366 34.1154 73.0163 34.1315Z" fill="#DEDEDE"/>
<path d="M78.4725 33.7793C78.2731 33.5745 78.0309 33.4137 77.7622 33.3078C77.4935 33.2019 77.2046 33.1533 76.915 33.1654C76.62 33.1657 76.3279 33.2217 76.0548 33.3302C75.773 33.4406 75.5192 33.6092 75.311 33.8246C75.0862 34.0642 74.9093 34.3425 74.7896 34.6453C74.6563 35.0057 74.5922 35.3869 74.6003 35.7698C74.5972 36.1191 74.6441 36.4671 74.7398 36.8038C74.828 37.1107 74.9858 37.3944 75.2014 37.6343C75.4248 37.8766 75.7035 38.0647 76.015 38.1836C76.387 38.3209 76.7829 38.3867 77.1806 38.3774C77.4843 38.3827 77.7871 38.3468 78.0806 38.2708C78.2675 38.2277 78.449 38.1649 78.6219 38.0834L78.7315 38.0252L78.5455 37.2013L78.3562 37.2917C78.2248 37.3493 78.0894 37.3978 77.9511 37.4371C77.7062 37.4991 77.4534 37.5263 77.2006 37.5179C76.9811 37.538 76.7598 37.5124 76.5514 37.4428C76.343 37.3731 76.1522 37.261 75.9917 37.114C75.7487 36.8125 75.6103 36.4436 75.5966 36.0606H79.0337L79.0536 35.9217C79.0565 35.8754 79.0565 35.829 79.0536 35.7827C79.0569 35.7278 79.0569 35.6728 79.0536 35.6179C79.0603 34.8004 78.8643 34.18 78.4725 33.7793ZM76.9249 34.0152C77.0834 34.0054 77.2421 34.0315 77.3885 34.0915C77.5349 34.1515 77.6649 34.2437 77.7684 34.361C77.9611 34.6166 78.0699 34.923 78.0806 35.2399H75.6231C75.6428 35.1143 75.675 34.9909 75.7194 34.8715C75.7834 34.7108 75.8755 34.5621 75.9917 34.432C76.1048 34.3006 76.2423 34.191 76.3969 34.1089C76.5632 34.0388 76.7439 34.0068 76.9249 34.0152Z" fill="#DEDEDE"/>
<path d="M86.6885 35.4985V38.2774H85.7388V35.6924C85.7407 35.4332 85.7252 35.1741 85.6923 34.9169C85.6794 34.7425 85.6285 34.5729 85.5428 34.4193C85.4811 34.2994 85.3792 34.2036 85.2539 34.1478C85.0823 34.0714 84.8945 34.036 84.706 34.0444C84.543 34.043 84.3804 34.0593 84.2211 34.0929C84.0938 34.1176 83.9692 34.1544 83.8492 34.2028C83.759 34.2394 83.6723 34.2837 83.5901 34.3352L83.5403 34.3675C83.585 34.5165 83.6161 34.6689 83.6333 34.8232C83.6683 35.0369 83.685 35.253 83.6831 35.4694V38.2936H82.7334V35.7085C82.7356 35.4504 82.7201 35.1924 82.6869 34.9363C82.6745 34.7608 82.6235 34.59 82.5374 34.4354C82.4694 34.3144 82.3619 34.2189 82.2319 34.164C82.0524 34.0868 81.8568 34.0513 81.6607 34.0606C81.4154 34.0589 81.1702 34.0729 80.9268 34.1026C80.8072 34.122 80.7309 34.1349 80.6777 34.1478V38.2968H79.7246V33.4757L79.8475 33.4434C80.0335 33.3949 80.2759 33.34 80.5715 33.2786C80.9623 33.2081 81.3596 33.1767 81.757 33.1849C82.0068 33.1682 82.2575 33.2005 82.4943 33.2799C82.731 33.3592 82.949 33.4841 83.1352 33.647L83.2016 33.6082C83.3194 33.5329 83.4439 33.468 83.5735 33.4143C83.7393 33.3442 83.9117 33.2901 84.0883 33.2528C84.3064 33.2061 84.5292 33.1833 84.7525 33.1849C85.0941 33.1697 85.4348 33.2305 85.7487 33.3626C85.9974 33.4679 86.2088 33.6421 86.3565 33.8635C86.5026 34.0883 86.5987 34.3403 86.6387 34.6034C86.6785 34.9001 86.6951 35.1993 86.6885 35.4985Z" fill="#DEDEDE"/>
<path d="M91.7263 35.6179C91.7263 34.8004 91.527 34.18 91.1385 33.7793C90.9392 33.5745 90.697 33.4137 90.4283 33.3078C90.1596 33.2019 89.8706 33.1533 89.581 33.1654C89.286 33.1657 88.9939 33.2217 88.7209 33.3302C88.4385 33.4413 88.1837 33.6099 87.9737 33.8246C87.7507 34.0649 87.5751 34.3431 87.4556 34.6453C87.3212 35.0055 87.2559 35.3867 87.263 35.7698C87.2614 36.119 87.3084 36.4668 87.4025 36.8038C87.4934 37.1103 87.6521 37.3937 87.8674 37.6343C88.0902 37.8773 88.369 38.0656 88.681 38.1836C89.053 38.3212 89.4489 38.3871 89.8467 38.3774C90.1503 38.3825 90.4531 38.3466 90.7466 38.2708C90.9334 38.2272 91.1148 38.1643 91.2879 38.0834L91.3975 38.0252L91.2082 37.2013L91.0189 37.2917C90.8875 37.3493 90.7521 37.3978 90.6138 37.4371C90.3701 37.4993 90.1184 37.5265 89.8666 37.5179C89.6472 37.538 89.4259 37.5124 89.2174 37.4428C89.009 37.3731 88.8182 37.261 88.6578 37.114C88.4147 36.8125 88.2764 36.4436 88.2626 36.0606H91.6831L91.7064 35.9217C91.7111 35.8755 91.7111 35.8289 91.7064 35.7827C91.718 35.7285 91.7246 35.6733 91.7263 35.6179ZM88.2892 35.2399C88.3076 35.1144 88.3387 34.991 88.3821 34.8715C88.4472 34.7106 88.5405 34.5619 88.6578 34.432C88.7709 34.3006 88.9083 34.191 89.0629 34.1089C89.2278 34.0329 89.4086 33.9953 89.591 33.9991C89.749 33.989 89.9073 34.015 90.0532 34.075C90.1991 34.1351 90.3285 34.2275 90.4312 34.3448C90.6263 34.5994 90.7364 34.9062 90.7466 35.2237L88.2892 35.2399Z" fill="#DEDEDE"/>
<path d="M96.5581 35.4986V38.2775H95.6084V35.6925C95.6117 35.4216 95.5872 35.1509 95.5353 34.8847C95.507 34.7051 95.4352 34.5345 95.3261 34.3871C95.237 34.2682 95.1114 34.18 94.9674 34.135C94.7678 34.0686 94.5573 34.038 94.3464 34.0446C94.0999 34.0426 93.8535 34.0577 93.6092 34.0898C93.483 34.0898 93.3966 34.1221 93.3402 34.1318V38.2808H92.3904V33.4759L92.5133 33.4435C92.6993 33.3951 92.955 33.3369 93.2671 33.2788C93.6537 33.2097 94.0464 33.1783 94.4394 33.185C94.7794 33.176 95.1179 33.232 95.4357 33.3498C95.6999 33.4531 95.9297 33.6253 96.0999 33.8475C96.2713 34.065 96.3914 34.3165 96.4519 34.5842C96.5229 34.8841 96.5585 35.1909 96.5581 35.4986Z" fill="#DEDEDE"/>
<path d="M100.54 37.9964L100.43 38.061C100.041 38.2735 99.6016 38.3847 99.1551 38.3841C98.8745 38.3896 98.595 38.3492 98.3282 38.2646C98.1068 38.1836 97.911 38.0477 97.7603 37.8703C97.6158 37.6782 97.516 37.4576 97.4681 37.2241C97.4112 36.9443 97.3845 36.6595 97.3884 36.3743V31.9248L98.3381 31.76V33.2852H100.288V34.1059H98.3249V36.4324C98.3209 36.6377 98.3421 36.8427 98.388 37.0431C98.4153 37.1631 98.4736 37.2743 98.5573 37.3663C98.6226 37.4338 98.7069 37.4811 98.7997 37.502C98.924 37.529 99.051 37.542 99.1783 37.5408C99.3714 37.5476 99.5644 37.5236 99.7495 37.4697C99.8638 37.4268 99.9748 37.376 100.082 37.3178L100.264 37.2209L100.54 37.9964Z" fill="#DEDEDE"/>
<path d="M108.015 38.0576C107.756 37.4113 107.514 36.7974 107.295 36.2384C107.075 35.6794 106.85 35.1301 106.63 34.6227C106.411 34.1154 106.205 33.621 106 33.1622C105.794 32.7034 105.564 32.2251 105.335 31.7631L105.289 31.6726H104.512L104.465 31.7631C104.229 32.2284 104.004 32.7001 103.801 33.1622C103.598 33.6243 103.379 34.1154 103.163 34.6227C102.948 35.1301 102.738 35.66 102.516 36.2384C102.293 36.8168 102.054 37.4049 101.802 38.0576L101.716 38.2773H102.748L102.788 38.1707C102.901 37.8476 103.014 37.5664 103.12 37.2853C103.227 37.0042 103.31 36.7942 103.403 36.5583H106.391C106.481 36.7942 106.574 37.0365 106.667 37.2853C106.76 37.5341 106.889 37.8637 106.999 38.1739L107.039 38.2773H108.112L108.015 38.0576ZM103.725 35.7085C103.937 35.1721 104.14 34.6647 104.332 34.1962C104.512 33.7761 104.694 33.3561 104.884 32.9457C105.073 33.3593 105.256 33.7794 105.435 34.1962C105.634 34.668 105.843 35.1656 106.053 35.7085H103.725Z" fill="#DEDEDE"/>
<path d="M111.516 31.0653V33.4403C111.433 33.4015 111.333 33.3627 111.22 33.3207C110.933 33.2183 110.629 33.169 110.323 33.1753C109.973 33.1696 109.626 33.2357 109.304 33.3692C109.015 33.4972 108.758 33.6846 108.55 33.9185C108.339 34.1647 108.18 34.4491 108.082 34.7554C107.978 35.0874 107.926 35.4327 107.929 35.7797C107.925 36.1481 107.987 36.5145 108.112 36.8622C108.232 37.1681 108.412 37.4481 108.643 37.6862C108.877 37.9138 109.156 38.0929 109.463 38.2129C109.8 38.3293 110.155 38.3873 110.513 38.3841C110.887 38.3913 111.26 38.3632 111.629 38.3001C111.875 38.2575 112.118 38.1981 112.356 38.1224L112.469 38.0869V30.8973L111.516 31.0653ZM110.519 37.5279C110.305 37.5385 110.09 37.5052 109.889 37.4301C109.688 37.3549 109.506 37.2396 109.354 37.0916C109.04 36.7253 108.883 36.2556 108.915 35.7797C108.914 35.5459 108.941 35.3128 108.995 35.085C109.041 34.8864 109.127 34.6986 109.248 34.5325C109.359 34.379 109.507 34.2538 109.679 34.1673C109.898 34.0702 110.137 34.0238 110.377 34.0316C110.507 34.0325 110.637 34.0465 110.765 34.0736C110.878 34.0961 110.989 34.1275 111.097 34.1673C111.192 34.2016 111.283 34.2437 111.37 34.2933C111.416 34.3163 111.46 34.3422 111.502 34.3709V37.4406C111.426 37.4406 111.33 37.4762 111.22 37.4923C110.989 37.5197 110.756 37.5315 110.523 37.5279H110.519Z" fill="#DEDEDE"/>
<path d="M117.33 33.2851L117.277 33.4854C117.161 33.9152 117.032 34.3449 116.892 34.7779C116.753 35.2109 116.6 35.6116 116.444 36.009C116.288 36.4065 116.112 36.7975 115.956 37.1658C115.799 37.5342 115.623 37.8832 115.467 38.2095L115.421 38.3033H114.624L114.577 38.2128C114.415 37.8896 114.245 37.5374 114.079 37.1658C113.913 36.7942 113.747 36.4097 113.594 36.009C113.442 35.6084 113.292 35.1948 113.153 34.7779C113.013 34.3611 112.884 33.9313 112.768 33.4854L112.714 33.2851H113.711L113.741 33.4111C113.814 33.7342 113.907 34.0573 114.016 34.4322C114.126 34.807 114.249 35.1495 114.375 35.5114C114.501 35.8733 114.641 36.2062 114.78 36.5454C114.866 36.749 114.953 36.9397 115.036 37.1174C115.119 36.9397 115.205 36.7458 115.291 36.5422C115.431 36.2191 115.564 35.8572 115.687 35.5114C115.809 35.1657 115.939 34.7908 116.045 34.4322C116.152 34.0735 116.254 33.7213 116.328 33.4111L116.357 33.2851H117.33Z" fill="#DEDEDE"/>
<path d="M118.675 32.0249C118.678 32.1079 118.664 32.1907 118.632 32.268C118.601 32.3453 118.553 32.4154 118.493 32.474C118.372 32.5818 118.214 32.6407 118.051 32.6388C117.89 32.6409 117.735 32.5831 117.616 32.4773C117.554 32.4188 117.506 32.3483 117.474 32.2703C117.441 32.1924 117.427 32.1088 117.43 32.0249C117.426 31.9419 117.441 31.8592 117.473 31.7822C117.505 31.7053 117.554 31.636 117.616 31.579C117.734 31.4699 117.891 31.4091 118.054 31.4091C118.217 31.4091 118.374 31.4699 118.493 31.579C118.554 31.6361 118.603 31.7055 118.634 31.7825C118.666 31.8595 118.68 31.9421 118.675 32.0249Z" fill="#DEDEDE"/>
<path d="M118.533 33.2753H117.583V38.2773H118.533V33.2753Z" fill="#DEDEDE"/>
<path d="M122.664 36.9396C122.674 37.1549 122.626 37.369 122.524 37.5606C122.423 37.7522 122.272 37.9146 122.086 38.0318C121.649 38.2877 121.144 38.4103 120.635 38.384C120.283 38.3979 119.931 38.3587 119.592 38.2677C119.428 38.226 119.268 38.172 119.114 38.1061L118.987 38.0447L119.253 37.1755L119.439 37.2918C119.473 37.3111 119.509 37.3283 119.545 37.3435L119.784 37.4275C119.901 37.4585 120.02 37.4833 120.14 37.5018C120.303 37.5268 120.469 37.5387 120.635 37.5374C120.909 37.548 121.183 37.4983 121.435 37.392C121.518 37.3552 121.587 37.2946 121.633 37.2183C121.68 37.1421 121.701 37.0538 121.694 36.9654C121.697 36.8778 121.68 36.7907 121.644 36.7102C121.612 36.635 121.559 36.57 121.491 36.5228C121.389 36.4474 121.277 36.3845 121.159 36.3353C121.007 36.2686 120.817 36.191 120.591 36.1027L120.06 35.883C119.893 35.8041 119.735 35.7088 119.589 35.5986C119.451 35.4833 119.338 35.3428 119.256 35.185C119.165 35.0044 119.119 34.8049 119.124 34.6034C119.119 34.4024 119.162 34.2032 119.25 34.0215C119.339 33.8397 119.469 33.6805 119.632 33.5564C120.023 33.2788 120.5 33.1408 120.983 33.1655C121.276 33.1594 121.568 33.1887 121.853 33.2527C122.024 33.2899 122.191 33.3418 122.352 33.4078L122.474 33.466L122.245 34.3093L122.063 34.2253C121.942 34.1702 121.818 34.1238 121.691 34.0864C121.452 34.0223 121.204 33.9951 120.957 34.0056C120.835 34.0048 120.713 34.0178 120.595 34.0444C120.498 34.0634 120.406 34.0996 120.322 34.151C120.25 34.1903 120.19 34.2471 120.146 34.3158C120.102 34.3853 120.08 34.4665 120.083 34.5484C120.081 34.6347 120.1 34.7202 120.14 34.7973C120.184 34.8728 120.244 34.9387 120.316 34.9911C120.422 35.0567 120.533 35.114 120.648 35.1624L121.139 35.3595C121.329 35.4306 121.515 35.5081 121.687 35.5889C121.87 35.6612 122.04 35.7603 122.192 35.883C122.341 35.9998 122.464 36.145 122.554 36.3095C122.644 36.5073 122.682 36.7239 122.664 36.9396Z" fill="#DEDEDE"/>
<path d="M127.496 34.7229C127.391 34.4172 127.221 34.1364 126.998 33.8989C126.788 33.6679 126.528 33.4847 126.237 33.3625C125.93 33.2346 125.6 33.1686 125.266 33.1686C124.932 33.1686 124.602 33.2346 124.295 33.3625C124.005 33.4864 123.745 33.6693 123.534 33.8989C123.314 34.1389 123.144 34.4189 123.036 34.7229C122.917 35.0629 122.858 35.4203 122.863 35.7795C122.858 36.1398 122.917 36.4982 123.036 36.8394C123.146 37.1434 123.316 37.4234 123.537 37.6633C123.754 37.8899 124.015 38.0723 124.304 38.1997C124.927 38.4453 125.624 38.4453 126.247 38.1997C126.535 38.0737 126.793 37.8911 127.004 37.6633C127.229 37.4258 127.4 37.1451 127.506 36.8394C127.745 36.153 127.745 35.4092 127.506 34.7229H127.496ZM126.689 35.7795C126.715 36.2413 126.576 36.6978 126.297 37.072C126.169 37.2153 126.01 37.3301 125.832 37.4088C125.654 37.4875 125.461 37.5283 125.266 37.5283C125.071 37.5283 124.877 37.4875 124.7 37.4088C124.522 37.3301 124.363 37.2153 124.235 37.072C123.979 36.6869 123.843 36.2381 123.843 35.7795C123.843 35.3209 123.979 34.8721 124.235 34.487C124.362 34.3413 124.52 34.2243 124.698 34.144C124.876 34.0637 125.07 34.0221 125.266 34.0221C125.462 34.0221 125.656 34.0637 125.834 34.144C126.012 34.2243 126.17 34.3413 126.297 34.487C126.576 34.8615 126.714 35.3177 126.689 35.7795Z" fill="#DEDEDE"/>
<path d="M131.292 33.3886L131.089 34.2222L130.9 34.135C130.815 34.1021 130.725 34.0825 130.634 34.0768C130.441 34.0432 130.245 34.028 130.05 34.0316C129.846 34.0268 129.642 34.0441 129.442 34.0833L129.256 34.1285V38.2775H128.306V33.5469L128.406 33.5049C128.627 33.4174 128.856 33.3482 129.09 33.2981C129.436 33.2171 129.79 33.1791 130.146 33.185C130.347 33.184 130.548 33.2002 130.747 33.2335C130.89 33.2524 131.03 33.286 131.165 33.3336L131.292 33.3886Z" fill="#DEDEDE"/>
<path d="M135.854 33.285L135.811 33.4821C135.609 34.3545 135.373 35.2173 135.114 36.0445C134.872 36.8215 134.587 37.5852 134.26 38.3322C134.151 38.5817 134.022 38.8226 133.875 39.0528C133.754 39.253 133.598 39.4312 133.414 39.5795C133.239 39.7281 133.034 39.8383 132.812 39.9026C132.562 39.9715 132.302 40.0042 132.042 39.9996C131.88 40.001 131.718 39.9814 131.561 39.9414C131.465 39.9174 131.371 39.8849 131.282 39.8445L131.172 39.7475L131.385 38.9042L131.584 39.0496C131.635 39.0677 131.687 39.0828 131.74 39.0948C131.989 39.1629 132.252 39.1629 132.5 39.0948C132.622 39.0664 132.735 39.0123 132.832 38.9365C132.938 38.8532 133.029 38.7539 133.101 38.6424C133.191 38.5057 133.269 38.362 133.334 38.2127C133.135 37.8605 132.942 37.4921 132.759 37.1205C132.577 36.7489 132.384 36.3191 132.211 35.9088C132.039 35.4984 131.879 35.0816 131.753 34.6777C131.627 34.2737 131.487 33.8569 131.388 33.4627L131.335 33.2623H132.331L132.361 33.3851C132.431 33.6695 132.52 33.9829 132.627 34.3157C132.733 34.6486 132.852 34.9911 132.985 35.3401C133.118 35.689 133.271 36.0509 133.437 36.429C133.55 36.681 133.669 36.9331 133.792 37.1819C133.879 36.9428 133.958 36.7101 134.031 36.4872C134.138 36.164 134.237 35.8409 134.324 35.5178C134.41 35.1947 134.506 34.8521 134.589 34.5096C134.672 34.1671 134.769 33.7923 134.865 33.3948L134.895 33.272L135.854 33.285Z" fill="#DEDEDE"/>
<path d="M141.689 36.5488C141.705 36.8221 141.649 37.0948 141.526 37.3413C141.403 37.5877 141.219 37.7998 140.989 37.9576C140.459 38.2854 139.838 38.4447 139.212 38.4132C138.971 38.4145 138.73 38.3983 138.491 38.3648C138.296 38.3393 138.103 38.3015 137.913 38.2517C137.762 38.2108 137.613 38.16 137.468 38.0998C137.372 38.0598 137.278 38.0144 137.186 37.9641L137.063 37.8962L137.395 37.0561L137.565 37.153C137.625 37.1853 137.708 37.2273 137.807 37.2726C137.907 37.3178 138.033 37.3631 138.173 37.4115C138.312 37.46 138.465 37.4826 138.641 37.5117C138.833 37.5425 139.027 37.5576 139.222 37.5569C139.608 37.5784 139.993 37.4957 140.334 37.3178C140.454 37.2368 140.55 37.1261 140.611 36.9972C140.673 36.8682 140.697 36.7257 140.683 36.5843C140.69 36.4156 140.65 36.2482 140.567 36.0996C140.488 35.9702 140.38 35.8598 140.251 35.7765C140.102 35.6699 139.937 35.584 139.763 35.5212L139.142 35.2757C138.887 35.1823 138.637 35.0744 138.395 34.9525C138.183 34.8491 137.986 34.7199 137.807 34.568C137.643 34.4195 137.51 34.2418 137.415 34.0445C137.325 33.8281 137.281 33.5962 137.286 33.3627C137.268 33.1023 137.316 32.8416 137.425 32.603C137.534 32.3644 137.7 32.155 137.91 31.9927C138.398 31.6705 138.982 31.5127 139.571 31.5435C139.754 31.5437 139.937 31.5555 140.119 31.5791C140.288 31.6026 140.456 31.6382 140.62 31.6857C140.765 31.7187 140.907 31.763 141.045 31.8182C141.162 31.8623 141.273 31.9186 141.377 31.9862L141.49 32.0605L141.135 32.8813L140.969 32.7746C140.776 32.6532 140.564 32.5626 140.341 32.5064C139.909 32.3873 139.453 32.3718 139.013 32.4612C138.873 32.4884 138.74 32.5446 138.624 32.626C138.517 32.697 138.429 32.791 138.365 32.9007C138.306 33.0263 138.278 33.1634 138.282 33.3013C138.278 33.4435 138.31 33.5844 138.375 33.7117C138.443 33.8261 138.534 33.9252 138.644 34.0025C138.786 34.0988 138.937 34.181 139.096 34.2481L139.69 34.4905C139.956 34.5939 140.202 34.6973 140.431 34.8136C140.664 34.9122 140.882 35.0416 141.078 35.1981C141.266 35.3529 141.42 35.5431 141.53 35.7571C141.644 36.0058 141.699 36.2765 141.689 36.5488Z" fill="#DEDEDE"/>
<path d="M145.711 33.7793C145.512 33.5745 145.269 33.4137 145.001 33.3078C144.732 33.2019 144.443 33.1533 144.153 33.1654C143.859 33.1657 143.566 33.2217 143.293 33.3302C143.012 33.4414 142.758 33.6099 142.549 33.8246C142.325 34.0642 142.15 34.3426 142.031 34.6453C141.896 35.0052 141.83 35.3866 141.839 35.7698C141.836 36.1191 141.883 36.4671 141.978 36.8038C142.067 37.1107 142.224 37.3944 142.44 37.6343C142.663 37.8766 142.942 38.0647 143.254 38.1836C143.626 38.3206 144.021 38.3864 144.419 38.3774C144.724 38.3824 145.028 38.3465 145.322 38.2708C145.508 38.2273 145.689 38.1645 145.86 38.0834L145.97 38.0252L145.784 37.2013L145.595 37.2917C145.463 37.3493 145.328 37.3978 145.19 37.4371C144.945 37.4991 144.692 37.5263 144.439 37.5179C144.22 37.5382 143.999 37.5123 143.791 37.4421C143.583 37.3718 143.393 37.2588 143.234 37.1108C142.988 36.8119 142.848 36.4434 142.835 36.0606H146.259L146.279 35.9217C146.282 35.8754 146.282 35.829 146.279 35.7827C146.282 35.7278 146.282 35.6728 146.279 35.6179C146.299 34.8004 146.116 34.18 145.711 33.7793ZM142.862 35.2399C142.881 35.1143 142.914 34.9909 142.958 34.8715C143.021 34.7102 143.113 34.5613 143.23 34.432C143.343 34.3004 143.481 34.1908 143.635 34.1089C143.8 34.0333 143.981 33.9957 144.163 33.9991C144.322 33.9892 144.481 34.0154 144.627 34.0754C144.773 34.1353 144.903 34.2276 145.007 34.3448C145.2 34.6005 145.308 34.9068 145.319 35.2237L142.862 35.2399Z" fill="#DEDEDE"/>
<path d="M149.948 33.3884L149.746 34.2221L149.56 34.1348C149.474 34.1033 149.385 34.0837 149.294 34.0767C149.101 34.0434 148.905 34.0282 148.71 34.0314C148.505 34.0265 148.3 34.0438 148.099 34.0831L147.916 34.1284V38.2774H146.963V33.5468L147.066 33.5047C147.619 33.2886 148.21 33.1788 148.806 33.1816C149.006 33.1807 149.206 33.197 149.404 33.2301C149.547 33.2481 149.687 33.2817 149.822 33.3303L149.948 33.3884Z" fill="#DEDEDE"/>
<path d="M154.608 33.2851L154.554 33.4854C154.438 33.9152 154.309 34.3449 154.169 34.7779C154.03 35.2109 153.877 35.6116 153.721 36.009C153.565 36.4065 153.389 36.7975 153.233 37.1658C153.077 37.5342 152.901 37.8832 152.745 38.2095L152.698 38.3033H151.901L151.855 38.2128C151.688 37.8896 151.522 37.531 151.356 37.1658C151.19 36.8007 151.024 36.4097 150.872 36.009C150.719 35.6084 150.569 35.1948 150.43 34.7779C150.29 34.3611 150.161 33.9313 150.045 33.4854L149.991 33.2851H150.988L151.018 33.4111C151.091 33.7342 151.184 34.0573 151.293 34.4322C151.403 34.807 151.526 35.1495 151.652 35.5114C151.778 35.8733 151.918 36.2062 152.057 36.5454C152.143 36.749 152.226 36.9397 152.313 37.1174C152.396 36.9397 152.482 36.7458 152.568 36.5422C152.705 36.2191 152.837 35.8604 152.964 35.5114C153.09 35.1624 153.216 34.7908 153.322 34.4322C153.429 34.0735 153.532 33.7245 153.605 33.4079L153.635 33.2851H154.608Z" fill="#DEDEDE"/>
<path d="M155.953 32.0249C155.955 32.108 155.941 32.1907 155.909 32.2679C155.878 32.3452 155.83 32.4154 155.77 32.4741C155.65 32.5818 155.492 32.6408 155.328 32.6389C155.167 32.641 155.012 32.5832 154.893 32.4773C154.832 32.4185 154.784 32.3479 154.752 32.2701C154.72 32.1922 154.704 32.1087 154.707 32.0249C154.703 31.9417 154.718 31.8585 154.751 31.7815C154.784 31.7044 154.833 31.6353 154.897 31.579C155.015 31.4709 155.171 31.4107 155.333 31.4107C155.495 31.4107 155.652 31.4709 155.77 31.579C155.832 31.6362 155.88 31.7056 155.911 31.7826C155.943 31.8595 155.957 31.9422 155.953 32.0249Z" fill="#DEDEDE"/>
<path d="M155.81 33.2753H154.86V38.2773H155.81V33.2753Z" fill="#DEDEDE"/>
<path d="M160.436 38.0352L160.323 38.0934C160.136 38.1801 159.938 38.2431 159.735 38.2808C159.475 38.3468 159.207 38.3794 158.938 38.3777C158.573 38.3825 158.21 38.32 157.869 38.1935C157.566 38.0781 157.294 37.8968 157.075 37.6636C156.864 37.4202 156.704 37.1392 156.603 36.8364C156.386 36.1511 156.386 35.4181 156.603 34.7328C156.708 34.4264 156.874 34.1431 157.091 33.8992C157.304 33.6647 157.569 33.4802 157.865 33.3595C158.18 33.2276 158.519 33.1616 158.862 33.1656C159.121 33.1639 159.38 33.1866 159.635 33.2335C159.839 33.2637 160.037 33.3236 160.223 33.4112L160.346 33.4759L160.087 34.2901L159.911 34.2061C159.786 34.1475 159.654 34.103 159.519 34.0736C159.321 34.0356 159.12 34.0182 158.918 34.0219C158.709 34.0073 158.499 34.0402 158.306 34.1182C158.112 34.1961 157.939 34.317 157.802 34.4711C157.522 34.8542 157.387 35.3202 157.42 35.7895C157.418 36.0345 157.448 36.2789 157.51 36.5165C157.562 36.7126 157.654 36.8963 157.782 37.0561C157.919 37.203 158.087 37.3197 158.274 37.3986C158.517 37.4839 158.775 37.5244 159.034 37.5182C159.242 37.5245 159.449 37.4994 159.649 37.4439C159.776 37.4064 159.901 37.3588 160.021 37.3017L160.206 37.208L160.436 38.0352Z" fill="#DEDEDE"/>
<path d="M164.311 33.7793C164.112 33.5745 163.87 33.4137 163.601 33.3078C163.332 33.2019 163.043 33.1533 162.754 33.1654C162.459 33.1657 162.167 33.2217 161.894 33.3302C161.611 33.4413 161.356 33.6099 161.146 33.8246C160.923 34.0649 160.748 34.3431 160.628 34.6453C160.494 35.0055 160.429 35.3867 160.436 35.7698C160.434 36.1193 160.482 36.4673 160.578 36.8038C160.667 37.1107 160.824 37.3944 161.04 37.6343C161.264 37.8763 161.542 38.0644 161.854 38.1836C162.226 38.3212 162.622 38.3871 163.019 38.3774C163.323 38.3825 163.626 38.3466 163.919 38.2708C164.106 38.2272 164.287 38.1643 164.461 38.0834L164.57 38.0252L164.384 37.2013L164.192 37.2917C164.06 37.3493 163.925 37.3978 163.786 37.4371C163.543 37.4993 163.291 37.5265 163.039 37.5179C162.82 37.538 162.599 37.5124 162.39 37.4428C162.182 37.3731 161.991 37.261 161.83 37.114C161.587 36.8125 161.449 36.4436 161.435 36.0606H164.856L164.879 35.9217C164.882 35.8754 164.882 35.829 164.879 35.7827C164.882 35.7278 164.882 35.6728 164.879 35.6179C164.899 34.8004 164.713 34.18 164.311 33.7793ZM161.462 35.2399C161.48 35.1144 161.511 34.991 161.555 34.8715C161.62 34.7106 161.713 34.5619 161.83 34.432C161.944 34.3006 162.081 34.191 162.236 34.1089C162.4 34.0329 162.581 33.9953 162.764 33.9991C162.922 33.989 163.08 34.015 163.226 34.075C163.372 34.1351 163.501 34.2275 163.604 34.3448C163.799 34.5994 163.909 34.9062 163.919 35.2237L161.462 35.2399Z" fill="#DEDEDE"/>
<path d="M168.768 36.9396C168.779 37.155 168.731 37.3693 168.63 37.561C168.528 37.7528 168.377 37.9151 168.19 38.0318C167.753 38.2876 167.248 38.4103 166.739 38.384C166.387 38.3976 166.036 38.3584 165.696 38.2676C165.533 38.226 165.373 38.172 165.218 38.1061L165.095 38.0447L165.357 37.1755L165.543 37.2918L165.65 37.3467L165.889 37.4275C166.006 37.4585 166.124 37.4833 166.244 37.5018C166.408 37.5268 166.573 37.5386 166.739 37.5374C167.014 37.548 167.287 37.4983 167.539 37.392C167.622 37.3556 167.692 37.295 167.738 37.2187C167.785 37.1423 167.806 37.0539 167.798 36.9654C167.801 36.8778 167.784 36.7906 167.749 36.7102C167.717 36.635 167.664 36.57 167.596 36.5228C167.494 36.4468 167.382 36.3838 167.264 36.3353C167.111 36.2686 166.922 36.191 166.696 36.1027L166.168 35.883C166.001 35.8049 165.842 35.7095 165.696 35.5986C165.553 35.4849 165.434 35.3442 165.347 35.185C165.253 35.0051 165.206 34.8052 165.211 34.6034C165.207 34.4024 165.25 34.2032 165.338 34.0215C165.426 33.8397 165.557 33.6805 165.719 33.5564C166.111 33.2802 166.588 33.1423 167.071 33.1654C167.364 33.1594 167.656 33.1887 167.941 33.2527C168.112 33.2899 168.278 33.3418 168.439 33.4078L168.562 33.466L168.333 34.3093L168.15 34.2253C168.031 34.1706 167.908 34.1242 167.782 34.0864C167.542 34.0225 167.293 33.9953 167.044 34.0056C166.923 34.005 166.801 34.018 166.682 34.0444C166.586 34.064 166.494 34.1001 166.41 34.151C166.339 34.1912 166.278 34.2477 166.234 34.3158C166.189 34.3853 166.167 34.4665 166.171 34.5484C166.168 34.6347 166.188 34.7202 166.228 34.7972C166.272 34.8728 166.332 34.9387 166.404 34.9911C166.509 35.0567 166.62 35.114 166.736 35.1624L167.227 35.3595C167.42 35.4306 167.602 35.5081 167.778 35.5889C167.96 35.6612 168.129 35.7604 168.28 35.883C168.43 35.9991 168.553 36.1444 168.642 36.3095C168.738 36.5059 168.781 36.7226 168.768 36.9396Z" fill="#DEDEDE"/>
</svg>
