<svg width="200" height="200" viewBox="0 0 200 200" fill="none" xmlns="http://www.w3.org/2000/svg">
<path fill-rule="evenodd" clip-rule="evenodd" d="M136.342 156.467C136.606 155.959 136.859 155.51 137.075 155.046C137.211 154.749 137.42 154.69 137.715 154.698C139.486 154.748 141.256 154.803 143.028 154.82C144.533 154.835 146.04 154.807 147.547 154.79C149.244 154.77 150.94 154.681 152.636 154.729C154.894 154.795 157.094 155.237 159.136 156.242C161.575 157.443 163.42 159.273 164.678 161.684C165.481 163.223 165.947 164.856 166.133 166.59C166.401 169.103 166.225 171.557 165.428 173.96C164.44 176.939 162.565 179.218 159.961 180.926C157.956 182.24 155.758 183.017 153.401 183.46C150.908 183.931 148.406 183.779 145.905 183.787C143.161 183.798 140.419 183.739 137.675 183.707C137.195 183.703 137.126 183.612 137.253 183.154L137.37 182.732C137.637 181.892 137.781 181.854 138.634 181.714C139.225 181.618 139.837 181.396 140.333 181.068C140.62 180.878 140.739 180.381 140.851 179.998C140.948 179.664 140.953 179.296 140.956 178.943C140.995 173.592 141.036 168.242 141.058 162.893C141.062 161.542 141.031 160.187 140.956 158.837C140.903 157.892 140.398 157.245 139.273 157.021C138.398 156.848 137.517 156.714 136.637 156.559L136.342 156.467ZM161.461 169.424C161.342 168.359 161.284 167.284 161.094 166.234C160.637 163.714 159.534 161.518 157.597 159.798C154.464 157.018 150.692 156.59 146.739 156.921C145.839 156.996 145.645 157.304 145.631 158.229C145.609 159.542 145.587 160.854 145.586 162.167C145.58 166.329 145.58 170.492 145.586 174.654C145.587 175.839 145.6 177.023 145.634 178.204C145.672 179.414 146.111 180.437 147.295 180.906C149.162 181.645 151.126 181.732 153.086 181.431C156.215 180.951 158.405 179.128 159.873 176.395C161.036 174.226 161.364 171.859 161.461 169.424ZM169.069 183.598C169.031 182.949 169.297 182.414 169.625 181.921C169.714 181.789 170.02 181.795 170.231 181.753L172.022 181.398C172.655 181.264 172.987 180.839 173.076 180.218C173.136 179.809 173.192 179.395 173.197 178.981C173.236 175.704 173.273 172.428 173.289 169.151C173.305 165.87 173.292 162.589 173.292 159.307L173.278 158.681C173.214 157.626 172.705 157.079 171.658 156.924L169.387 156.579C169.108 156.542 169.006 156.407 169.108 156.159C169.283 155.735 169.45 155.296 169.697 154.915C169.789 154.774 170.1 154.72 170.309 154.724C171.394 154.74 172.478 154.821 173.562 154.82L183.001 154.764C184.82 154.762 186.576 155.079 188.208 155.949C190.003 156.906 191.008 158.385 191.295 160.401C191.595 162.518 190.953 164.303 189.406 165.72C188.77 166.304 187.947 166.685 187.209 167.16L186.969 167.31C187.653 167.562 188.305 167.779 188.939 168.039C190.795 168.799 192.272 169.989 193.053 171.887C193.67 173.385 193.67 174.948 193.305 176.501C192.736 178.932 191.134 180.549 189.051 181.773C187.097 182.921 184.981 183.59 182.728 183.703C180.65 183.807 178.562 183.768 176.48 183.792L175.273 183.798C173.267 183.753 171.259 183.701 169.251 183.648L169.069 183.598ZM177.72 174.084H177.74C177.74 175.112 177.726 176.14 177.745 177.168C177.758 177.834 177.734 178.518 177.878 179.159C178.094 180.117 178.531 180.981 179.606 181.256C181.058 181.629 182.54 181.704 184.009 181.449C185.848 181.129 187.315 180.207 188.12 178.456C188.717 177.154 188.806 175.774 188.601 174.365C188.33 172.509 187.344 171.162 185.705 170.279C184.63 169.699 183.483 169.345 182.261 169.298C180.892 169.246 179.522 169.243 178.153 169.201C177.769 169.19 177.715 169.385 177.717 169.701C177.725 171.16 177.72 172.621 177.72 174.084ZM180.634 167.092C181.383 167.054 182.23 167.043 183.072 166.959C184.684 166.798 185.82 165.987 186.412 164.445C186.714 163.662 186.701 162.856 186.709 162.042C186.733 159.921 185.495 158.184 183.481 157.465C181.926 156.91 180.323 156.901 178.711 156.945C178.058 156.962 177.765 157.248 177.756 157.906L177.659 166.482C177.655 166.823 177.801 166.97 178.133 166.981L180.634 167.092Z" fill="#94795D"/>
<path fill-rule="evenodd" clip-rule="evenodd" d="M16.4733 181.95L16.3593 183.425C15.2968 183.425 14.3171 183.417 13.3374 183.428C11.4921 183.447 9.64676 183.477 7.79989 183.503L7.62176 183.514C7.3577 183.483 6.87801 183.483 6.86551 183.405C6.78739 182.966 6.81239 182.505 6.8327 182.05C6.83426 181.998 7.01395 181.933 7.11864 181.908L8.55457 181.588C9.44989 181.355 9.76551 180.969 9.8077 180.044C9.85614 179.002 9.90457 177.958 9.90926 176.916C9.92332 174.35 9.9077 171.787 9.91864 169.222C9.9202 168.622 9.71239 168.175 9.15301 167.931C8.48739 167.637 7.81864 167.35 7.1452 167.078C6.82645 166.95 6.41239 166.88 6.44989 166.452C6.48739 166.016 6.88895 165.902 7.26707 165.816C8.8327 165.458 10.3999 165.109 11.9608 164.728C12.4639 164.605 12.9452 164.397 13.5468 164.188C13.578 164.513 13.6358 164.822 13.6296 165.131L13.5374 166.602C13.5358 166.767 13.6218 166.989 13.7452 167.081C13.8202 167.139 14.0718 167.034 14.1968 166.937C15.5311 165.922 16.9436 165.045 18.5546 164.534C21.0499 163.742 23.1921 164.477 24.6921 166.628C25.2202 167.386 25.2218 167.386 25.9546 166.856C27.2124 165.942 28.528 165.136 29.9999 164.605C33.2311 163.437 36.3358 164.919 37.4593 168.173C37.8686 169.355 38.0249 170.575 38.0218 171.822L37.9921 180.1C37.9905 180.783 38.2171 181.172 38.8671 181.384C39.5968 181.623 40.353 181.788 41.1749 182.003L40.9843 183.427C40.0499 183.427 39.1905 183.42 38.3311 183.428C36.2311 183.447 34.1311 183.458 32.0327 183.506C31.6671 183.516 31.5718 183.425 31.553 183.083C31.4921 181.987 31.4827 181.989 32.5139 181.742L32.8608 181.653C33.8686 181.378 34.2046 181.069 34.2124 180.047C34.2358 177.113 34.2968 174.17 34.1483 171.242C33.9936 168.205 31.5827 166.587 28.6389 167.366C27.678 167.619 26.8077 168.062 25.9983 168.637C25.7249 168.833 25.6733 169.058 25.6952 169.4C25.778 170.694 25.8296 171.989 25.8405 173.284C25.8593 175.552 25.8311 177.819 25.8405 180.087C25.8436 181.006 26.1577 181.358 27.0655 181.57L28.4139 181.881L28.6639 181.938C28.6827 182.369 28.6999 182.8 28.6796 183.231C28.6671 183.502 28.4577 183.525 28.2233 183.52C26.9124 183.488 25.5999 183.444 24.2889 183.447C22.6936 183.45 21.0999 183.495 19.5061 183.523H19.1311C19.1311 183.066 19.1093 182.628 19.1468 182.192C19.1546 182.087 19.3389 181.941 19.4655 181.908L21.0374 181.575C21.7046 181.411 22.0233 181.069 22.0608 180.391C22.2389 177.25 22.3671 174.108 22.0718 170.969C22.0139 170.359 21.8155 169.741 21.5624 169.18C20.7577 167.402 18.9468 166.659 16.8577 167.194C15.8655 167.447 14.9702 167.902 14.1233 168.475C13.7233 168.747 13.5327 169.106 13.5327 169.561C13.5327 172.694 13.5436 175.827 13.553 178.958L13.5702 180.166C13.5889 181.008 13.9468 181.452 14.7827 181.633C15.3202 181.755 15.8639 181.837 16.4733 181.95Z" fill="#50382B"/>
<path fill-rule="evenodd" clip-rule="evenodd" d="M110.939 164.508C111.181 165.687 111.176 166.746 110.311 167.549C109.451 168.347 108.364 168.079 107.303 167.901C107.401 168.46 107.511 168.935 107.564 169.416C107.95 172.993 106.411 175.647 103.094 177.165C101.84 177.737 100.511 177.949 99.1529 178.058C98.4779 178.112 97.8873 178.627 97.8232 179.182C97.7576 179.744 98.1107 180.322 98.817 180.491C99.6498 180.69 100.519 180.746 101.373 180.844C103.208 181.054 105.062 181.149 106.875 181.477C109.615 181.971 111.145 184.363 110.662 187.116C110.233 189.566 108.814 191.349 106.836 192.716C103.503 195.026 99.8467 195.701 95.9529 194.522C93.7264 193.847 92.156 192.383 91.6139 190.015C91.342 188.829 91.6311 187.755 92.5232 186.951C93.5842 185.997 94.7389 185.147 95.8498 184.247L96.2092 183.887L95.7967 183.597C94.6639 183.06 93.7576 182.324 93.406 181.046C93.2857 180.613 93.4107 180.329 93.7779 180.107C94.4029 179.73 95.0248 179.347 95.642 178.958C95.9326 178.777 96.2201 178.59 96.4904 178.38C96.8592 178.099 96.8264 177.89 96.3857 177.727C95.3607 177.349 94.4498 176.801 93.7435 175.957C92.5639 174.549 92.2295 172.872 92.3264 171.102C92.4779 168.337 93.9795 166.515 96.4201 165.343C99.3217 163.951 102.233 163.863 105.19 165.132C106.284 165.601 107.437 165.701 108.611 165.619C109.487 165.557 110.253 165.226 110.939 164.508ZM100.247 184.322C98.0685 184.304 97.3857 184.572 96.1076 185.874C94.6764 187.333 94.6842 189.357 96.1123 190.822C97.1967 191.933 98.5498 192.454 100.054 192.61C101.812 192.791 103.544 192.718 105.14 191.838C106.844 190.896 107.69 189.146 107.308 187.383C106.99 185.929 105.919 185.263 104.614 184.88C103.129 184.446 101.595 184.363 100.247 184.322ZM95.9685 170.404C96.0482 171.008 96.081 171.621 96.2154 172.213C96.5639 173.747 97.2311 175.096 98.7576 175.779C100.55 176.583 102.839 176.238 103.623 173.722C104.161 171.999 104.095 170.288 103.447 168.607C103.158 167.857 102.692 167.222 102.025 166.757C100.469 165.671 97.6607 165.527 96.517 167.927C96.1451 168.707 95.9998 169.537 95.9685 170.404Z" fill="#4F382B"/>
<path fill-rule="evenodd" clip-rule="evenodd" d="M73.9842 164.123C74.042 164.39 74.1576 164.693 74.1608 164.998C74.1655 165.578 74.1029 166.157 74.0701 166.737V167.24L74.5608 166.865C75.9045 165.759 77.3483 164.817 79.0295 164.309C82.0639 163.395 85.0951 165.056 86.0842 168.146C86.4592 169.321 86.6076 170.529 86.6217 171.757C86.6529 174.485 86.6717 177.213 86.6998 179.942C86.7092 180.921 86.8217 181.096 87.7483 181.379C88.2733 181.54 88.8154 181.653 89.3576 181.737C89.6561 181.784 89.7842 181.901 89.7686 182.193L89.7717 182.462C89.7608 183.592 89.6826 183.643 88.5873 183.64C85.9654 183.635 83.3451 183.651 80.7233 183.673C79.942 183.679 79.9404 183.703 79.8623 182.931L79.8467 182.487C79.8951 181.821 79.9108 181.828 80.5654 181.731C81.0061 181.665 81.4436 181.563 81.8733 181.451C82.3154 181.337 82.5279 181.01 82.5873 180.573C82.617 180.351 82.6561 180.129 82.6545 179.907C82.617 176.926 82.6654 173.942 82.5029 170.965C82.3717 168.557 80.5342 167.123 78.117 167.287C76.9311 167.37 75.8592 167.765 74.8811 168.448C74.2358 168.899 74.1061 169.551 74.1092 170.253C74.1217 173.04 74.1483 175.828 74.1779 178.617C74.1842 179.228 74.2014 179.838 74.2592 180.445C74.3201 181.107 74.553 181.374 75.203 181.518C75.8248 181.656 76.4592 181.735 77.1233 181.846L77.1795 182.359C77.2014 183.554 77.0764 183.643 75.9154 183.638C73.2045 183.628 70.4936 183.645 67.7842 183.674C67.3576 183.681 67.1764 183.546 67.1873 183.131L67.1811 182.953C67.1108 181.876 67.142 181.835 68.1608 181.66L68.642 181.563C69.7451 181.315 70.0279 181.021 70.0436 179.901C70.0951 176.353 70.1139 172.806 70.1498 169.257C70.1545 168.748 69.9623 168.353 69.4873 168.142C68.8217 167.848 68.1498 167.568 67.4764 167.292C67.1045 167.138 66.6795 167.042 66.6654 166.528C66.6561 166.165 67.0436 165.845 67.5733 165.737C68.6373 165.521 69.7108 165.342 70.7623 165.078C71.8092 164.817 72.8373 164.467 73.9842 164.123Z" fill="#4F372B"/>
<path fill-rule="evenodd" clip-rule="evenodd" d="M132.601 173.391C132.551 176.706 131.691 179.385 129.347 181.396C126.378 183.948 121.747 184.815 117.961 182.907C116.345 182.093 115.158 180.845 114.384 179.224C113.198 176.732 112.901 174.112 113.52 171.427C114.133 168.773 115.741 166.849 118.147 165.604C120.622 164.324 123.228 163.824 125.976 164.496C129.453 165.345 131.951 168.179 132.448 171.788C132.537 172.421 132.572 173.062 132.601 173.391ZM128.575 175.187L128.441 175.171C128.441 174.859 128.458 174.546 128.437 174.234C128.323 172.287 127.886 170.432 126.758 168.802C125.687 167.259 124.23 166.348 122.333 166.215C120.209 166.065 118.425 167.252 117.798 169.421C116.858 172.677 117.176 175.851 118.83 178.834C119.55 180.134 120.617 181.093 122.047 181.598C124.848 182.584 127.333 181.307 128.062 178.438C128.331 177.379 128.409 176.271 128.575 175.187Z" fill="#4F382B"/>
<path fill-rule="evenodd" clip-rule="evenodd" d="M63.7796 173.648C63.7218 176.026 63.1608 178.224 61.6921 180.135C60.1186 182.182 57.9561 183.276 55.4968 183.737C52.589 184.281 49.8577 183.787 47.5218 181.835C46.4124 180.907 45.6546 179.718 45.1546 178.365C44.3343 176.146 44.1296 173.873 44.6343 171.556C45.1733 169.076 46.5733 167.181 48.7436 165.909C51.253 164.441 53.9608 163.787 56.853 164.446C60.5718 165.296 62.7186 167.72 63.5124 171.388C63.6718 172.129 63.6936 172.895 63.7796 173.648ZM59.7077 175.216L59.5999 175.201V174.754C59.539 172.573 59.1124 170.495 57.8108 168.682C56.8468 167.337 55.5561 166.493 53.9015 166.257C51.2046 165.873 49.4421 167.473 48.8577 169.646C48.0952 172.485 48.3343 175.29 49.514 177.982C50.2499 179.66 51.4124 180.968 53.1983 181.602C55.9827 182.591 58.5046 181.282 59.2093 178.424C59.4686 177.379 59.5468 176.288 59.7077 175.216Z" fill="#4F372B"/>
<path fill-rule="evenodd" clip-rule="evenodd" d="M128.69 52.4121C130.608 57.9543 131.986 63.6121 132.44 69.4746C133.003 76.7496 132.747 83.9746 131.212 91.1293L131.015 91.7012C130.534 91.7027 130.044 91.6418 129.573 91.7152C125.6 92.3402 121.631 92.9871 117.661 93.6309C113.556 94.2965 109.448 94.9356 105.351 95.6449C103.9 95.8949 102.103 95.5965 101.517 97.6027L101.236 97.6981L101.434 85.7012L101.233 56.7543L103.145 56.4262C106.272 55.9152 109.398 55.3949 112.53 54.8965C116.264 54.3043 120.001 53.7262 123.739 53.148C125.389 52.8949 127.04 52.659 128.69 52.4121Z" fill="#439934"/>
<path fill-rule="evenodd" clip-rule="evenodd" d="M97.2888 132.674C95.2717 130.94 93.1842 129.282 91.2513 127.457C80.8482 117.645 73.2373 106.093 69.4888 92.1664C68.456 88.3352 67.7685 84.4398 67.5467 80.4805C67.3904 77.7086 67.167 74.9133 67.3638 72.1555C67.8842 64.8227 68.9451 57.5602 71.0951 50.4961L71.2138 50.332C71.4232 50.6102 71.7232 50.857 71.8295 51.1711C73.9295 57.3523 76.0123 63.5398 78.0857 69.732C84.5998 89.1867 91.106 108.646 97.631 128.098C97.7592 128.477 98.0888 128.788 98.3263 129.13L97.2888 132.674Z" fill="#45A538"/>
<path fill-rule="evenodd" clip-rule="evenodd" d="M128.691 52.4125C127.039 52.6578 125.387 52.8953 123.739 53.1484C120.002 53.7266 116.264 54.3047 112.53 54.8969C109.4 55.3937 106.273 55.9141 103.145 56.4266L101.233 56.7547L101.217 55.5078C101.153 54.4828 101.047 53.4578 101.033 52.4328L100.819 32.8172C100.769 28.725 100.694 24.6328 100.611 20.5422C100.559 18 100.505 15.4563 100.391 12.9172C100.328 11.5531 100.108 10.1953 100.02 8.83125C99.9687 8.04688 100.038 7.25625 100.055 6.46875C101.03 8.35781 101.984 10.2609 102.986 12.1359C104.569 15.1 107.092 17.2844 109.366 19.6672C118.344 29.0906 124.717 40.0406 128.691 52.4125Z" fill="#46A037"/>
<path fill-rule="evenodd" clip-rule="evenodd" d="M101.237 97.6988L101.519 97.6035C102.104 95.5972 103.901 95.8957 105.353 95.6457C109.45 94.9363 113.558 94.2972 117.662 93.6316C121.633 92.9894 125.601 92.3426 129.575 91.716C130.045 91.6426 130.536 91.7035 131.017 91.7019C130.275 94.3519 129.69 97.0597 128.748 99.6363C127.678 102.558 126.384 105.411 125.011 108.208C122.958 112.388 120.4 116.288 117.428 119.861C115.137 122.614 112.584 125.163 110.026 127.677C108.611 129.066 106.945 130.199 105.392 131.449L104.989 131.174L103.54 129.936L102.042 126.649C101.009 122.802 100.469 118.886 100.378 114.905L100.406 114.236L100.611 111.339C100.678 110.35 100.769 109.363 100.811 108.374C100.961 104.818 101.095 101.258 101.237 97.6988Z" fill="#409433"/>
<path fill-rule="evenodd" clip-rule="evenodd" d="M101.237 97.6988C101.097 101.258 100.962 104.819 100.811 108.379C100.769 109.369 100.679 110.357 100.611 111.344L99.6982 111.689C97.6701 105.719 95.6404 99.8113 93.6561 93.8895C90.3732 84.091 87.1311 74.2785 83.8529 64.477C81.2076 56.5676 78.5389 48.6629 75.8561 40.7645C75.7295 40.3957 75.3701 40.1051 75.1201 39.7785L80.9639 29.0332C81.1654 29.3816 81.4295 29.7082 81.5561 30.0832C84.2592 38.0832 86.9576 46.0848 89.6326 54.0941C93.1139 64.516 96.5717 74.9426 100.05 85.366C100.189 85.7816 100.417 86.166 100.636 86.6332L101.436 85.702C101.369 89.702 101.303 93.6988 101.237 97.6988Z" fill="#4FAA41"/>
<path fill-rule="evenodd" clip-rule="evenodd" d="M75.1187 39.7793C75.3702 40.1059 75.7296 40.3965 75.8546 40.7652C78.5374 48.6637 81.2062 56.5668 83.8515 64.4777C87.1296 74.2793 90.3718 84.0918 93.6546 93.8902C95.639 99.8121 97.6687 105.718 99.6968 111.69L100.609 111.345L100.405 114.242L100.219 114.909C99.9015 118.079 99.6343 121.256 99.2468 124.42C99.053 126.006 98.639 127.562 98.3249 129.131C98.089 128.789 97.7577 128.478 97.6296 128.098C91.103 108.646 84.5983 89.1871 78.0843 69.7324C76.0108 63.5402 73.9265 57.3527 71.828 51.1715C71.7218 50.8574 71.4218 50.6105 71.2124 50.3324L75.1187 39.7793Z" fill="#4AA73C"/>
<path fill-rule="evenodd" clip-rule="evenodd" d="M101.434 85.7023L100.634 86.6336C100.416 86.1664 100.187 85.782 100.048 85.3664C96.5702 74.943 93.1124 64.5164 89.6311 54.0945C86.9561 46.0852 84.2577 38.0836 81.5546 30.0836C81.428 29.7086 81.164 29.382 80.9624 29.0336L88.189 19.5273C88.4171 19.8305 88.7421 20.1008 88.8593 20.443C90.8655 26.318 92.853 32.1977 94.8312 38.082C96.678 43.5789 98.4968 49.082 100.366 54.5695C100.491 54.9367 100.926 55.1961 101.217 55.5086L101.233 56.7555L101.434 85.7023Z" fill="#57AE47"/>
<path fill-rule="evenodd" clip-rule="evenodd" d="M101.217 55.5082C100.925 55.1973 100.491 54.9379 100.366 54.5691C98.4983 49.0816 96.678 43.5785 94.8312 38.0816C92.853 32.1973 90.8655 26.3176 88.8593 20.4426C88.7421 20.1004 88.4171 19.8301 88.189 19.527C90.539 17.2254 92.8155 14.841 95.2608 12.6457C97.4343 10.6957 99.1811 8.60508 99.2624 5.52227L99.4343 4.9082L100.053 6.46758C100.037 7.25508 99.9671 8.0457 100.019 8.83008C100.108 10.1941 100.328 11.552 100.389 12.916C100.503 15.4551 100.558 17.9988 100.609 20.541C100.692 24.6316 100.767 28.7238 100.817 32.816L101.031 52.4316C101.047 53.4582 101.155 54.4832 101.217 55.5082Z" fill="#60B24F"/>
<path fill-rule="evenodd" clip-rule="evenodd" d="M98.3264 129.129C98.6405 127.56 99.0545 126.004 99.2483 124.418C99.6358 121.255 99.903 118.077 100.22 114.907L100.3 114.895L100.378 114.909C100.469 118.89 101.009 122.805 102.042 126.652C101.831 126.93 101.536 127.176 101.423 127.488C100.556 129.935 99.7374 132.402 98.8655 134.848C98.7467 135.182 98.4124 135.443 98.1795 135.735L97.2874 132.673L98.3264 129.129Z" fill="#A9AA88"/>
<path fill-rule="evenodd" clip-rule="evenodd" d="M98.1797 135.737C98.4125 135.443 98.7469 135.184 98.8656 134.85C99.7375 132.404 100.556 129.937 101.423 127.49C101.534 127.178 101.831 126.932 102.042 126.654L103.541 129.942C103.245 130.361 102.836 130.74 102.672 131.207L99.8031 139.632C99.6844 139.971 99.2828 140.209 99.0109 140.495L98.1797 135.737Z" fill="#B6B598"/>
<path fill-rule="evenodd" clip-rule="evenodd" d="M99.0107 140.493C99.2811 140.207 99.6842 139.969 99.8029 139.63L102.672 131.205C102.834 130.738 103.245 130.358 103.54 129.939L104.99 131.175C104.29 131.868 103.901 132.668 104.136 133.679L103.695 135.121C103.495 135.368 103.204 135.583 103.106 135.866C102.104 138.735 101.15 141.619 100.14 144.486C100.012 144.849 99.6576 145.135 99.4092 145.457L99.0107 140.493Z" fill="#C2C1A7"/>
<path fill-rule="evenodd" clip-rule="evenodd" d="M99.4076 145.455C99.6576 145.133 100.012 144.847 100.139 144.485C101.148 141.618 102.104 138.733 103.104 135.864C103.203 135.582 103.494 135.368 103.694 135.119L103.086 141.738C102.923 141.925 102.689 142.089 102.611 142.307L100.589 148.1C100.447 148.496 100.175 148.849 99.9623 149.219C99.7732 148.972 99.4357 148.733 99.4201 148.477C99.3607 147.474 99.4029 146.463 99.4076 145.455Z" fill="#CECDB7"/>
<path fill-rule="evenodd" clip-rule="evenodd" d="M99.9639 149.221C100.176 148.851 100.448 148.498 100.59 148.103L102.612 142.309C102.69 142.09 102.926 141.928 103.087 141.74L103.103 146.084L101.648 149.814L99.9639 149.221Z" fill="#DBDAC7"/>
<path fill-rule="evenodd" clip-rule="evenodd" d="M101.648 149.814L103.103 146.084L103.403 150.496L101.648 149.814Z" fill="#EBE9DC"/>
<path fill-rule="evenodd" clip-rule="evenodd" d="M104.134 133.679C103.902 132.67 104.289 131.87 104.989 131.176L105.392 131.451L104.134 133.679Z" fill="#CECDB7"/>
<path fill-rule="evenodd" clip-rule="evenodd" d="M100.378 114.909L100.3 114.895L100.22 114.907L100.406 114.24L100.378 114.909Z" fill="#4FAA41"/>
</svg>
