<svg width="200" height="123" viewBox="0 0 200 123" fill="none" xmlns="http://www.w3.org/2000/svg">
<g clip-path="url(#clip0_4207_631)">
<path d="M98.8713 122.302C98.1941 122.302 97.562 122.122 96.9751 121.806L90.9706 118.239C90.0677 117.743 90.5192 117.562 90.79 117.472C92.009 117.065 92.2347 116.975 93.4988 116.253C93.6343 116.162 93.8149 116.208 93.9503 116.298L98.5553 119.052C98.7359 119.142 98.9616 119.142 99.097 119.052L117.111 108.623C117.291 108.533 117.381 108.352 117.381 108.126V87.3137C117.381 87.0879 117.291 86.9073 117.111 86.817L99.097 76.4333C98.9164 76.343 98.6907 76.343 98.5553 76.4333L80.5417 86.817C80.3611 86.9073 80.2708 87.1331 80.2708 87.3137V108.126C80.2708 108.307 80.3611 108.533 80.5417 108.623L85.4627 111.467C88.1264 112.822 89.7968 111.241 89.7968 109.661V89.1195C89.7968 88.8486 90.0225 88.5778 90.3386 88.5778H92.6411C92.9119 88.5778 93.1828 88.8035 93.1828 89.1195V109.661C93.1828 113.228 91.2415 115.305 87.8555 115.305C86.8171 115.305 86.0045 115.305 83.702 114.176L78.9616 111.467C77.7878 110.79 77.0654 109.526 77.0654 108.171V87.3588C77.0654 86.0044 77.7878 84.7403 78.9616 84.0631L96.9751 73.6342C98.1038 73.0021 99.6388 73.0021 100.767 73.6342L118.781 84.0631C119.955 84.7403 120.677 86.0044 120.677 87.3588V108.171C120.677 109.526 119.955 110.79 118.781 111.467L100.767 121.896C100.181 122.167 99.5034 122.302 98.8713 122.302ZM104.424 107.991C96.5237 107.991 94.8984 104.379 94.8984 101.309C94.8984 101.038 95.1241 100.767 95.4401 100.767H97.7878C98.0587 100.767 98.2844 100.948 98.2844 101.219C98.6456 103.612 99.6839 104.785 104.469 104.785C108.262 104.785 109.887 103.928 109.887 101.896C109.887 100.722 109.436 99.8645 103.521 99.2775C98.6004 98.7809 95.5304 97.6974 95.5304 93.7696C95.5304 90.1128 98.6004 87.9457 103.747 87.9457C109.526 87.9457 112.37 89.9322 112.731 94.2663C112.731 94.4017 112.686 94.5371 112.596 94.6726C112.506 94.7629 112.37 94.8532 112.235 94.8532H109.887C109.661 94.8532 109.436 94.6726 109.39 94.4468C108.849 91.9638 107.449 91.1511 103.747 91.1511C99.5936 91.1511 99.097 92.5958 99.097 93.6793C99.097 94.9886 99.6839 95.3949 105.282 96.1173C110.835 96.8396 113.454 97.878 113.454 101.761C113.409 105.734 110.158 107.991 104.424 107.991Z" fill="#539E43"/>
<path d="M42.9797 40.9023C42.9797 40.0896 42.5283 39.3221 41.8059 38.9158L22.6637 27.9C22.3477 27.7194 21.9865 27.6291 21.6253 27.584H21.4447C21.0836 27.584 20.7224 27.7194 20.4064 27.9L1.26415 38.9158C0.541799 39.3221 0.090332 40.0896 0.090332 40.9023L0.135479 70.5185C0.135479 70.9248 0.361212 71.3312 0.722386 71.5117C1.08356 71.7375 1.53503 71.7375 1.85105 71.5117L13.228 65.0106C13.9504 64.6043 14.4018 63.8368 14.4018 63.0242V49.1641C14.4018 48.3515 14.8533 47.584 15.5757 47.1777L20.4064 44.3786C20.7675 44.1528 21.1739 44.0625 21.5802 44.0625C21.9865 44.0625 22.3928 44.1528 22.7088 44.3786L27.5395 47.1777C28.2619 47.584 28.7134 48.3515 28.7134 49.1641V63.0242C28.7134 63.8368 29.1648 64.6043 29.8872 65.0106L41.2641 71.5117C41.6253 71.7375 42.0768 71.7375 42.438 71.5117C42.7991 71.3312 43.0249 70.9248 43.0249 70.5185L42.9797 40.9023Z" fill="#333333"/>
<path d="M134.989 0.13544C134.628 -0.0451467 134.176 -0.0451467 133.86 0.13544C133.499 0.361174 133.273 0.722348 133.273 1.12867V30.474C133.273 30.7449 133.138 31.0158 132.867 31.1964C132.596 31.3318 132.325 31.3318 132.054 31.1964L127.269 28.4424C126.546 28.0361 125.689 28.0361 124.966 28.4424L105.824 39.5034C105.102 39.9097 104.65 40.6772 104.65 41.4898V63.5666C104.65 64.3792 105.102 65.1467 105.824 65.553L124.966 76.614C125.689 77.0203 126.546 77.0203 127.269 76.614L146.411 65.553C147.133 65.1467 147.585 64.3792 147.585 63.5666V8.53273C147.585 7.67494 147.133 6.90745 146.411 6.50113L134.989 0.13544ZM133.228 56.298C133.228 56.5237 133.138 56.7043 132.957 56.7946L126.411 60.5869C126.23 60.6772 126.005 60.6772 125.824 60.5869L119.278 56.7946C119.097 56.7043 119.007 56.4786 119.007 56.298V48.7133C119.007 48.4876 119.097 48.307 119.278 48.2167L125.824 44.4244C126.005 44.3341 126.23 44.3341 126.411 44.4244L132.957 48.2167C133.138 48.307 133.228 48.5327 133.228 48.7133V56.298Z" fill="#333333"/>
<path d="M198.691 48.5331C199.413 48.1268 199.819 47.3593 199.819 46.5466V41.1742C199.819 40.3615 199.368 39.594 198.691 39.1877L179.684 28.1719C178.962 27.7656 178.104 27.7656 177.381 28.1719L158.239 39.2329C157.517 39.6392 157.065 40.4067 157.065 41.2193V63.2961C157.065 64.1087 157.517 64.8762 158.239 65.2825L177.246 76.1178C177.968 76.5241 178.826 76.5241 179.503 76.1178L191.016 69.7069C191.377 69.5263 191.603 69.12 191.603 68.7137C191.603 68.3074 191.377 67.9011 191.016 67.7205L171.783 56.6595C171.422 56.4338 171.196 56.0726 171.196 55.6663V48.7588C171.196 48.3525 171.422 47.9462 171.783 47.7656L177.788 44.3345C178.149 44.1087 178.6 44.1087 178.962 44.3345L184.966 47.7656C185.327 47.9913 185.553 48.3525 185.553 48.7588V54.1764C185.553 54.5828 185.779 54.9891 186.14 55.1697C186.501 55.3954 186.953 55.3954 187.314 55.1697L198.691 48.5331Z" fill="#333333"/>
<path d="M178.239 47.4955C178.375 47.4052 178.555 47.4052 178.691 47.4955L182.348 49.6174C182.483 49.7076 182.573 49.8431 182.573 50.0237V54.2675C182.573 54.4481 182.483 54.5835 182.348 54.6738L178.691 56.7957C178.555 56.886 178.375 56.886 178.239 56.7957L174.582 54.6738C174.447 54.5835 174.357 54.4481 174.357 54.2675V50.0237C174.357 49.8431 174.447 49.7076 174.582 49.6174L178.239 47.4955Z" fill="#539E43"/>
<path d="M74.9887 28.2618C74.2664 27.8555 73.4086 27.8555 72.6862 28.2618L53.6794 39.2324C52.9571 39.6387 52.5508 40.4062 52.5508 41.2189V63.2053C52.5508 64.018 53.0022 64.7855 53.6794 65.1918L72.6862 76.1624C73.4086 76.5688 74.2664 76.5688 74.9887 76.1624L93.9955 65.1918C94.7178 64.7855 95.1241 64.018 95.1241 63.2053V41.2189C95.1241 40.4062 94.6727 39.6387 93.9955 39.2324L74.9887 28.2618Z" fill="url(#paint0_linear_4207_631)"/>
<mask id="mask0_4207_631" style="mask-type:luminance" maskUnits="userSpaceOnUse" x="52" y="27" width="44" height="50">
<path d="M74.9887 28.2618C74.2664 27.8555 73.4086 27.8555 72.6862 28.2618L53.6794 39.2324C52.9571 39.6387 52.5508 40.4062 52.5508 41.2189V63.2053C52.5508 64.018 53.0022 64.7855 53.6794 65.1918L72.6862 76.1624C73.4086 76.5688 74.2664 76.5688 74.9887 76.1624L93.9955 65.1918C94.7178 64.7855 95.1241 64.018 95.1241 63.2053V41.2189C95.1241 40.4062 94.6727 39.6387 93.9955 39.2324L74.9887 28.2618Z" fill="white"/>
</mask>
<g mask="url(#mask0_4207_631)">
<path d="M94.0406 39.2315L74.9435 28.2609C74.7629 28.1706 74.5372 28.0803 74.3566 28.0352L52.957 64.6943C53.1376 64.92 53.3634 65.1006 53.5891 65.2361L72.6862 76.2067C73.2279 76.5227 73.86 76.613 74.4469 76.4324L94.5372 39.683C94.4017 39.5024 94.2211 39.367 94.0406 39.2315Z" fill="url(#paint1_linear_4207_631)"/>
</g>
<mask id="mask1_4207_631" style="mask-type:luminance" maskUnits="userSpaceOnUse" x="52" y="27" width="44" height="50">
<path d="M74.9887 28.2618C74.2664 27.8555 73.4086 27.8555 72.6862 28.2618L53.6794 39.2324C52.9571 39.6387 52.5508 40.4062 52.5508 41.2189V63.2053C52.5508 64.018 53.0022 64.7855 53.6794 65.1918L72.6862 76.1624C73.4086 76.5688 74.2664 76.5688 74.9887 76.1624L93.9955 65.1918C94.7178 64.7855 95.1241 64.018 95.1241 63.2053V41.2189C95.1241 40.4062 94.6727 39.6387 93.9955 39.2324L74.9887 28.2618Z" fill="white"/>
</mask>
<g mask="url(#mask1_4207_631)">
<path fill-rule="evenodd" clip-rule="evenodd" d="M94.0858 65.1932C94.6275 64.8771 95.0338 64.3354 95.2144 63.7485L74.2663 27.9923C73.7246 27.902 73.1377 27.9471 72.6411 28.2631L53.6794 39.1886L74.1309 76.4798C74.4018 76.4347 74.7178 76.3444 74.9887 76.209L94.0858 65.1932Z" fill="url(#paint2_linear_4207_631)"/>
<path fill-rule="evenodd" clip-rule="evenodd" d="M94.0857 65.193L75.0338 76.1636C74.7629 76.2991 74.4921 76.3894 74.176 76.4345L74.5372 77.1117L95.6659 64.8769V64.6061L95.1241 63.7031C95.0338 64.3352 94.6275 64.8769 94.0857 65.193Z" fill="url(#paint3_linear_4207_631)"/>
<path fill-rule="evenodd" clip-rule="evenodd" d="M94.0857 65.193L75.0338 76.1636C74.7629 76.2991 74.4921 76.3894 74.176 76.4345L74.5372 77.1117L95.6659 64.8769V64.6061L95.1241 63.7031C95.0338 64.3352 94.6275 64.8769 94.0857 65.193Z" fill="url(#paint4_linear_4207_631)"/>
</g>
</g>
<defs>
<linearGradient id="paint0_linear_4207_631" x1="2955.56" y1="876.246" x2="872.158" y2="4149.76" gradientUnits="userSpaceOnUse">
<stop stop-color="#41873F"/>
<stop offset="0.3288" stop-color="#418B3D"/>
<stop offset="0.6352" stop-color="#419637"/>
<stop offset="0.9319" stop-color="#3FA92D"/>
<stop offset="1" stop-color="#3FAE2A"/>
</linearGradient>
<linearGradient id="paint1_linear_4207_631" x1="1852.4" y1="2703.13" x2="7069.95" y2="-131.552" gradientUnits="userSpaceOnUse">
<stop offset="0.1376" stop-color="#41873F"/>
<stop offset="0.4032" stop-color="#54A044"/>
<stop offset="0.7136" stop-color="#66B848"/>
<stop offset="0.9081" stop-color="#6CC04A"/>
</linearGradient>
<linearGradient id="paint2_linear_4207_631" x1="-128.609" y1="2454.25" x2="4269.45" y2="2454.25" gradientUnits="userSpaceOnUse">
<stop offset="0.0919165" stop-color="#6CC04A"/>
<stop offset="0.2864" stop-color="#66B848"/>
<stop offset="0.5968" stop-color="#54A044"/>
<stop offset="0.8624" stop-color="#41873F"/>
</linearGradient>
<linearGradient id="paint3_linear_4207_631" x1="-2157.77" y1="737.825" x2="2240.28" y2="737.825" gradientUnits="userSpaceOnUse">
<stop offset="0.0919165" stop-color="#6CC04A"/>
<stop offset="0.2864" stop-color="#66B848"/>
<stop offset="0.5968" stop-color="#54A044"/>
<stop offset="0.8624" stop-color="#41873F"/>
</linearGradient>
<linearGradient id="paint4_linear_4207_631" x1="2881.03" y1="-2766.44" x2="1766.83" y2="3071.95" gradientUnits="userSpaceOnUse">
<stop stop-color="#41873F"/>
<stop offset="0.3288" stop-color="#418B3D"/>
<stop offset="0.6352" stop-color="#419637"/>
<stop offset="0.9319" stop-color="#3FA92D"/>
<stop offset="1" stop-color="#3FAE2A"/>
</linearGradient>
<clipPath id="clip0_4207_631">
<rect width="200" height="122.656" fill="white"/>
</clipPath>
</defs>
</svg>
