<svg width="84" height="84" viewBox="0 0 84 84" fill="none" xmlns="http://www.w3.org/2000/svg">
<path d="M75 25H8.33333V16.6667H75V25ZM66.6667 0H16.6667V8.33333H66.6667V0ZM83.3333 41.6667V75C83.3333 77.2101 82.4554 79.3298 80.8926 80.8926C79.3298 82.4554 77.2101 83.3333 75 83.3333H8.33333C6.12519 83.3268 4.00935 82.4468 2.44795 80.8854C0.886556 79.324 0.0064963 77.2081 0 75V41.6667C0.00645256 39.4585 0.886499 37.3426 2.44791 35.7812C4.00931 34.2198 6.12518 33.3398 8.33333 33.3333H75C77.2082 33.3398 79.324 34.2198 80.8854 35.7812C82.4468 37.3426 83.3269 39.4585 83.3333 41.6667ZM49.6974 62.675L59.375 54.3989L46.6298 53.3325L41.6667 41.6667L36.7035 53.3325L23.9583 54.3989L33.636 62.675L30.7223 75L41.6667 68.4492L52.611 75L49.6974 62.675Z" fill="black"/>
</svg>
