<svg width="100" height="80" viewBox="0 0 100 80" fill="none" xmlns="http://www.w3.org/2000/svg">
<g clip-path="url(#clip0_4222_4064)">
<path d="M39.8484 40.8828C40.825 41.8594 42.4078 41.8594 43.3844 40.8828L45.1516 39.1156C46.1281 38.1391 46.1281 36.5563 45.1516 35.5797L39.5703 30L45.15 24.4188C46.1266 23.4422 46.1266 21.8594 45.15 20.8828L43.3828 19.1156C42.4062 18.1391 40.8234 18.1391 39.8469 19.1156L30.7312 28.2312C29.7547 29.2078 29.7547 30.7906 30.7312 31.7672L39.8484 40.8828ZM54.85 39.1172L56.6172 40.8844C57.5938 41.8609 59.1766 41.8609 60.1531 40.8844L69.2688 31.7688C70.2453 30.7922 70.2453 29.2094 69.2688 28.2328L60.1531 19.1172C59.1766 18.1406 57.5938 18.1406 56.6172 19.1172L54.85 20.8844C53.8734 21.8609 53.8734 23.4437 54.85 24.4203L60.4297 30L54.85 35.5812C53.8734 36.5578 53.8734 38.1406 54.85 39.1172ZM97.5 65H59.6156C59.5 68.0953 57.3172 70 54.5 70H45C42.0797 70 39.8406 67.2703 39.8797 65H2.5C1.125 65 0 66.125 0 67.5V70C0 75.5 4.5 80 10 80H90C95.5 80 100 75.5 100 70V67.5C100 66.125 98.875 65 97.5 65ZM90 7.5C90 3.375 86.625 0 82.5 0H17.5C13.375 0 10 3.375 10 7.5V60H90V7.5ZM80 50H20V10H80V50Z" fill="black"/>
</g>
<defs>
<clipPath id="clip0_4222_4064">
<rect width="100" height="80" fill="white"/>
</clipPath>
</defs>
</svg>
