<svg width="24" height="25" viewBox="0 0 24 25" fill="none" xmlns="http://www.w3.org/2000/svg">
<g clip-path="url(#clip0_1223_28892)">
<path d="M12 21.7178C16.9706 21.7178 21 17.6883 21 12.7178C21 7.74721 16.9706 3.71777 12 3.71777C7.02944 3.71777 3 7.74721 3 12.7178C3 17.6883 7.02944 21.7178 12 21.7178Z" stroke="#BFBFBF" stroke-width="1.5" stroke-linecap="round" stroke-linejoin="round"/>
<path d="M12 17.7178V17.7278" stroke="#BFBFBF" stroke-width="1.5" stroke-linecap="round" stroke-linejoin="round"/>
<path d="M12 14.2179C11.9816 13.8933 12.0692 13.5715 12.2495 13.301C12.4299 13.0304 12.6933 12.8258 13 12.7179C13.3759 12.5742 13.7132 12.3452 13.9856 12.0489C14.2579 11.7526 14.4577 11.3972 14.5693 11.0105C14.6809 10.6239 14.7013 10.2166 14.6287 9.8208C14.5562 9.42498 14.3928 9.05139 14.1513 8.72945C13.9099 8.40752 13.597 8.14602 13.2373 7.96556C12.8776 7.78509 12.4809 7.69058 12.0785 7.68946C11.6761 7.68835 11.2789 7.78066 10.9182 7.95913C10.5576 8.13759 10.2432 8.39735 10 8.71794" stroke="#BFBFBF" stroke-width="1.5" stroke-linecap="round" stroke-linejoin="round"/>
</g>
<defs>
<clipPath id="clip0_1223_28892">
<rect width="24" height="24" fill="white" transform="translate(0 0.717773)"/>
</clipPath>
</defs>
</svg>
