<svg width="100" height="100" viewBox="0 0 100 100" fill="none" xmlns="http://www.w3.org/2000/svg">
<g clip-path="url(#clip0_865_4495)">
<path d="M33.3332 62.5003C33.3332 57.898 29.6022 54.167 24.9998 54.167C20.3975 54.167 16.6665 57.898 16.6665 62.5003V70.8337C16.6665 75.436 20.3975 79.167 24.9998 79.167C29.6022 79.167 33.3332 75.436 33.3332 70.8337V62.5003Z" stroke="#2461FF" stroke-width="2.5" stroke-linecap="round" stroke-linejoin="round"/>
<path d="M83.3332 62.5003C83.3332 57.898 79.6022 54.167 74.9998 54.167C70.3975 54.167 66.6665 57.898 66.6665 62.5003V70.8337C66.6665 75.436 70.3975 79.167 74.9998 79.167C79.6022 79.167 83.3332 75.436 83.3332 70.8337V62.5003Z" stroke="#2461FF" stroke-width="2.5" stroke-linecap="round" stroke-linejoin="round"/>
<path d="M16.6665 62.5003V50.0003C16.6665 41.1598 20.1784 32.6813 26.4296 26.4301C32.6808 20.1789 41.1593 16.667 49.9998 16.667C58.8404 16.667 67.3189 20.1789 73.5701 26.4301C79.8213 32.6813 83.3332 41.1598 83.3332 50.0003V62.5003" stroke="#2461FF" stroke-width="2.5" stroke-linecap="round" stroke-linejoin="round"/>
<path d="M75 79.167C75 82.4822 72.3661 85.6616 67.6777 88.0058C62.9893 90.35 56.6304 91.667 50 91.667" stroke="#2461FF" stroke-width="2.5" stroke-linecap="round" stroke-linejoin="round"/>
</g>
<defs>
<clipPath id="clip0_865_4495">
<rect width="100" height="100" fill="white"/>
</clipPath>
</defs>
</svg>
