<svg width="200" height="51" viewBox="0 0 200 51" fill="none" xmlns="http://www.w3.org/2000/svg">
<g clip-path="url(#clip0_4207_594)">
<path d="M64.58 19.6709C64.58 16.0831 61.0912 12.2727 55.0538 12.2727C48.2742 12.2727 40.8264 17.2461 39.6882 27.1681C38.5253 37.1892 44.7606 41.643 51.0454 41.643C57.3302 41.643 60.6211 39.1934 63.9861 35.9273C61.0912 32.29 57.3549 33.9725 56.6374 34.3437C55.8456 34.7396 54.8311 35.2839 52.7527 35.2839C50.3279 35.2839 47.8535 34.1952 47.8535 29.6672C63.3923 28.1331 64.58 23.2587 64.58 19.6709ZM56.8848 20.2648C56.7858 21.3782 56.3405 23.2834 48.4721 24.3474C50.1299 18.4585 53.297 18.0131 54.7569 18.0131C56.1178 18.0131 56.9838 19.0771 56.8848 20.2648ZM30.558 21.2297C30.558 21.2297 27.2176 31.7209 26.9454 32.5869C26.8465 31.6962 24.3969 12.8665 24.3969 12.8665C18.7059 12.8665 15.6625 16.9244 14.0542 21.205C14.0542 21.205 9.99629 31.7209 9.64988 32.6117C9.62514 31.7951 9.0313 21.3287 9.0313 21.3287C8.68489 16.0831 3.8847 12.8913 0 12.8913L4.70122 41.4203C10.6644 41.3955 13.881 37.3624 15.5635 33.0818C15.5635 33.0818 19.1513 23.803 19.2998 23.3824C19.3245 23.7783 21.8731 41.4203 21.8731 41.4203C27.8609 41.4203 31.0776 37.6345 32.8096 33.5024L41.1976 12.8913C35.2839 12.8913 32.1663 16.9244 30.558 21.2297ZM86.552 12.2232C82.8653 12.2232 80.0445 14.2274 77.6692 17.1718V17.1471L79.7971 0C74.8979 0 70.9143 4.25585 70.1472 10.5901L66.4357 41.1976C69.2565 41.1976 72.2504 40.381 73.8587 38.3026C75.2938 40.1584 77.4465 41.643 80.6384 41.643C88.9026 41.643 94.5688 32.0426 94.5688 23.036C94.5194 14.8212 90.5357 12.2232 86.552 12.2232ZM85.785 26.9454C84.919 31.9683 82.123 35.3829 79.426 35.3829C76.7042 35.3829 75.5413 34.1705 75.5413 34.1705C76.0609 29.7662 76.3825 27.0692 77.3723 24.7433C78.362 22.4174 80.7126 18.7059 83.1622 18.7059C85.5623 18.7059 86.651 21.8978 85.785 26.9454ZM115.205 12.8913H109.44L109.464 12.5943C109.86 8.83335 110.751 6.85389 113.695 6.53223C115.7 6.33428 116.59 5.29506 116.813 4.15687C116.986 3.26611 117.531 0.173203 117.531 0.173203C105.951 0.0989732 102.313 5.09712 101.373 12.7181L101.349 12.8913H101.225C99.3443 12.8913 97.2659 15.0192 96.9195 17.7162L96.7957 18.7059H100.656L97.4143 45.4782L96.4246 50.2784C96.5483 50.2784 96.6968 50.3031 96.8205 50.3031C102.239 50.1052 105.703 45.8246 106.47 39.614L108.994 18.7059H110.8C112.582 18.7059 114.66 16.9244 115.032 13.9552L115.205 12.8913ZM145.194 12.3964C138.538 12.3964 132.253 17.2956 130.323 24.9907C128.393 32.6859 131.313 41.7914 141.111 41.7914C150.885 41.7914 156.526 32.3147 156.526 24.4216C156.526 16.578 151.206 12.3964 145.194 12.3964ZM147.891 26.698C147.544 30.1868 146.01 35.4819 141.804 35.4819C137.573 35.4819 138.167 29.2961 138.587 26.3516C139.033 23.2092 140.789 18.7307 144.575 18.7307C147.965 18.7307 148.287 22.7638 147.891 26.698ZM189.41 21.2297C189.41 21.2297 186.07 31.7209 185.797 32.5869C185.698 31.6962 183.249 12.8665 183.249 12.8665C177.558 12.8665 174.514 16.9244 172.906 21.205C172.906 21.205 168.848 31.7209 168.502 32.6117C168.477 31.7951 167.883 21.3287 167.883 21.3287C167.537 16.0831 162.737 12.8913 158.852 12.8913L163.528 41.4203C169.492 41.3955 172.708 37.3624 174.391 33.0818C174.391 33.0818 177.978 23.803 178.102 23.3824C178.127 23.7783 180.675 41.4203 180.675 41.4203C186.663 41.4203 189.88 37.6345 191.612 33.5024L200 12.8913C194.111 12.8913 190.993 16.9244 189.41 21.2297ZM120.648 0.173203L115.799 39.2923L114.809 44.1173C114.933 44.1173 115.081 44.142 115.205 44.142C120.426 44.0678 124.137 39.4903 124.83 33.7251L127.626 11.2829C128.467 4.42905 124.385 0.173203 120.648 0.173203Z" fill="#4353FF"/>
</g>
<defs>
<clipPath id="clip0_4207_594">
<rect width="200" height="50.3906" fill="white"/>
</clipPath>
</defs>
</svg>
